%TF.GenerationSoftware,KiCad,Pcbnew,9.0.1*%
%TF.CreationDate,2025-04-18T15:24:00+02:00*%
%TF.ProjectId,OpenHand_v3,4f70656e-4861-46e6-945f-76332e6b6963,rev?*%
%TF.SameCoordinates,Original*%
%TF.FileFunction,Soldermask,Bot*%
%TF.FilePolarity,Negative*%
%FSLAX46Y46*%
G04 Gerber Fmt 4.6, Leading zero omitted, Abs format (unit mm)*
G04 Created by KiCad (PCBNEW 9.0.1) date 2025-04-18 15:24:00*
%MOMM*%
%LPD*%
G01*
G04 APERTURE LIST*
G04 Aperture macros list*
%AMRoundRect*
0 Rectangle with rounded corners*
0 $1 Rounding radius*
0 $2 $3 $4 $5 $6 $7 $8 $9 X,Y pos of 4 corners*
0 Add a 4 corners polygon primitive as box body*
4,1,4,$2,$3,$4,$5,$6,$7,$8,$9,$2,$3,0*
0 Add four circle primitives for the rounded corners*
1,1,$1+$1,$2,$3*
1,1,$1+$1,$4,$5*
1,1,$1+$1,$6,$7*
1,1,$1+$1,$8,$9*
0 Add four rect primitives between the rounded corners*
20,1,$1+$1,$2,$3,$4,$5,0*
20,1,$1+$1,$4,$5,$6,$7,0*
20,1,$1+$1,$6,$7,$8,$9,0*
20,1,$1+$1,$8,$9,$2,$3,0*%
G04 Aperture macros list end*
%ADD10C,1.500000*%
%ADD11C,0.800000*%
%ADD12C,6.400000*%
%ADD13RoundRect,0.250000X0.600000X0.750000X-0.600000X0.750000X-0.600000X-0.750000X0.600000X-0.750000X0*%
%ADD14O,1.700000X2.000000*%
%ADD15RoundRect,0.250000X0.725000X-0.600000X0.725000X0.600000X-0.725000X0.600000X-0.725000X-0.600000X0*%
%ADD16O,1.950000X1.700000*%
%ADD17RoundRect,0.250000X-0.600000X-0.750000X0.600000X-0.750000X0.600000X0.750000X-0.600000X0.750000X0*%
%ADD18RoundRect,0.250000X0.600000X0.725000X-0.600000X0.725000X-0.600000X-0.725000X0.600000X-0.725000X0*%
%ADD19O,1.700000X1.950000*%
%ADD20RoundRect,0.250000X-0.725000X0.600000X-0.725000X-0.600000X0.725000X-0.600000X0.725000X0.600000X0*%
%ADD21C,0.650000*%
%ADD22O,1.000000X2.100000*%
%ADD23O,1.000000X1.800000*%
G04 APERTURE END LIST*
D10*
%TO.C,TP11*%
X104925000Y-134850000D03*
%TD*%
D11*
%TO.C,H4*%
X192600000Y-145000000D03*
X193302944Y-143302944D03*
X193302944Y-146697056D03*
X195000000Y-142600000D03*
D12*
X195000000Y-145000000D03*
D11*
X195000000Y-147400000D03*
X196697056Y-143302944D03*
X196697056Y-146697056D03*
X197400000Y-145000000D03*
%TD*%
D13*
%TO.C,J1*%
X171300000Y-143035000D03*
D14*
X168800000Y-143035000D03*
%TD*%
D10*
%TO.C,TP18*%
X109600000Y-101800000D03*
%TD*%
%TO.C,TP17*%
X158850000Y-101850000D03*
%TD*%
D15*
%TO.C,J15*%
X146050000Y-147050000D03*
D16*
X146050000Y-144550000D03*
X146050000Y-142050000D03*
X146050000Y-139550000D03*
%TD*%
D10*
%TO.C,TP37*%
X133975000Y-147500000D03*
%TD*%
%TO.C,TP14*%
X130875000Y-142420000D03*
%TD*%
%TO.C,TP9*%
X104925000Y-137390000D03*
%TD*%
D11*
%TO.C,H1*%
X102600000Y-105000000D03*
X103302944Y-103302944D03*
X103302944Y-106697056D03*
X105000000Y-102600000D03*
D12*
X105000000Y-105000000D03*
D11*
X105000000Y-107400000D03*
X106697056Y-103302944D03*
X106697056Y-106697056D03*
X107400000Y-105000000D03*
%TD*%
D10*
%TO.C,TP41*%
X133975000Y-144960000D03*
%TD*%
%TO.C,TP1*%
X104925000Y-139930000D03*
%TD*%
%TO.C,TP13*%
X129300000Y-123460000D03*
%TD*%
D17*
%TO.C,J3*%
X185750000Y-107232499D03*
D14*
X188250000Y-107232499D03*
%TD*%
D10*
%TO.C,TP39*%
X133975000Y-139880000D03*
%TD*%
%TO.C,TP40*%
X133975000Y-142420000D03*
%TD*%
%TO.C,TP2*%
X161200000Y-121870000D03*
%TD*%
%TO.C,TP4*%
X130875000Y-139880000D03*
%TD*%
%TO.C,TP38*%
X130875000Y-147500000D03*
%TD*%
D13*
%TO.C,J7*%
X162700000Y-143000000D03*
D14*
X160200000Y-143000000D03*
%TD*%
D15*
%TO.C,J16*%
X152850000Y-147050000D03*
D16*
X152850000Y-144550000D03*
X152850000Y-142050000D03*
X152850000Y-139550000D03*
%TD*%
D18*
%TO.C,J12*%
X140850000Y-103800000D03*
D19*
X138350000Y-103800000D03*
X135850000Y-103800000D03*
X133350000Y-103800000D03*
%TD*%
D10*
%TO.C,TP3*%
X161200000Y-119330000D03*
%TD*%
D20*
%TO.C,J11*%
X103875000Y-124605000D03*
D16*
X103875000Y-127105000D03*
X103875000Y-129605000D03*
%TD*%
D10*
%TO.C,TP36*%
X130875000Y-144960000D03*
%TD*%
%TO.C,TP5*%
X101825000Y-139930000D03*
%TD*%
%TO.C,TP10*%
X101825000Y-134850000D03*
%TD*%
%TO.C,TP6*%
X101825000Y-137390000D03*
%TD*%
D11*
%TO.C,H3*%
X102600000Y-145000000D03*
X103302944Y-143302944D03*
X103302944Y-146697056D03*
X105000000Y-142600000D03*
D12*
X105000000Y-145000000D03*
D11*
X105000000Y-147400000D03*
X106697056Y-143302944D03*
X106697056Y-146697056D03*
X107400000Y-145000000D03*
%TD*%
D10*
%TO.C,TP12*%
X129300000Y-126000000D03*
%TD*%
D21*
%TO.C,J5*%
X152890000Y-106605000D03*
X147110000Y-106605000D03*
D22*
X154320000Y-107125000D03*
D23*
X154320000Y-102925000D03*
D22*
X145680000Y-107125000D03*
D23*
X145680000Y-102925000D03*
%TD*%
D13*
%TO.C,J2*%
X179900000Y-143035000D03*
D14*
X177400000Y-143035000D03*
%TD*%
D15*
%TO.C,J14*%
X139275000Y-147050000D03*
D16*
X139275000Y-144550000D03*
X139275000Y-142050000D03*
X139275000Y-139550000D03*
%TD*%
D20*
%TO.C,J8*%
X103858000Y-113250000D03*
D16*
X103858000Y-115750000D03*
X103858000Y-118250000D03*
%TD*%
D13*
%TO.C,J6*%
X188450000Y-143035000D03*
D14*
X185950000Y-143035000D03*
%TD*%
D10*
%TO.C,TP8*%
X163000000Y-101850000D03*
%TD*%
D11*
%TO.C,H2*%
X192600000Y-105000000D03*
X193302944Y-103302944D03*
X193302944Y-106697056D03*
X195000000Y-102600000D03*
D12*
X195000000Y-105000000D03*
D11*
X195000000Y-107400000D03*
X196697056Y-103302944D03*
X196697056Y-106697056D03*
X197400000Y-105000000D03*
%TD*%
D10*
%TO.C,TP19*%
X123800000Y-101700000D03*
%TD*%
%TO.C,TP7*%
X128900000Y-101600000D03*
%TD*%
M02*
