M48
; DRILL file {KiCad 8.0.4} date 2025-01-25T12:58:38+0100
; FORMAT={-:-/ absolute / inch / decimal}
; #@! TF.CreationDate,2025-01-25T12:58:38+01:00
; #@! TF.GenerationSoftware,Kicad,Pcbnew,8.0.4
; #@! TF.FileFunction,Plated,1,4,PTH
FMAT,2
INCH
; #@! TA.AperFunction,Plated,PTH,ViaDrill
T1C0.0059
; #@! TA.AperFunction,Plated,PTH,ViaDrill
T2C0.0079
; #@! TA.AperFunction,Plated,PTH,ComponentDrill
T3C0.0079
; #@! TA.AperFunction,Plated,PTH,ComponentDrill
T4C0.0197
; #@! TA.AperFunction,Plated,PTH,ComponentDrill
T5C0.0236
; #@! TA.AperFunction,Plated,PTH,ComponentDrill
T6C0.0276
; #@! TA.AperFunction,Plated,PTH,ComponentDrill
T7C0.0374
; #@! TA.AperFunction,Plated,PTH,ComponentDrill
T8C0.0394
; #@! TA.AperFunction,Plated,PTH,ComponentDrill
T9C0.1260
%
G90
G05
T1
X4.7756Y-5.1811
X4.7776Y-4.4724
X5.248Y-4.8661
X5.248Y-4.9606
X5.4016Y-4.9094
X5.5079Y-4.9606
X5.5177Y-4.9724
X5.561Y-4.8268
X5.561Y-4.9134
X5.6142Y-4.5709
X5.624Y-4.8917
X5.6299Y-4.9508
X5.6299Y-4.9705
X5.6339Y-4.7933
X5.6339Y-4.813
X5.6378Y-4.8327
X5.7264Y-5.0689
X5.7264Y-5.0827
X5.7697Y-4.6309
X5.7992Y-4.6417
X5.861Y-5.0657
X5.8622Y-5.0492
X5.8957Y-4.2106
X5.8957Y-4.75
X5.9154Y-4.75
X5.935Y-4.2106
X5.935Y-4.75
X5.935Y-5.1063
X5.9547Y-5.1063
X5.9744Y-5.1949
X5.9941Y-4.6516
X5.9941Y-5.1949
X6.0Y-4.6175
X6.0059Y-4.752
X6.0059Y-4.7717
X6.0138Y-4.6516
X6.0138Y-5.1949
X6.0423Y-4.6445
X6.0925Y-4.5472
X6.0935Y-4.813
X6.1516Y-4.534
X6.1732Y-4.9311
X6.1732Y-4.9508
X6.1732Y-4.9705
X6.1732Y-5.0098
X6.1732Y-5.0295
X6.1732Y-5.0492
X6.4587Y-5.1142
X6.4921Y-5.0276
X6.5059Y-4.9567
X6.5295Y-4.685
X6.6319Y-4.9587
X6.6594Y-5.0256
X6.6929Y-5.1457
X6.813Y-4.878
X6.813Y-4.9705
X6.8346Y-5.2205
X6.8661Y-5.0295
X6.9331Y-4.4429
X7.0284Y-5.0281
X7.1929Y-4.878
X7.1929Y-4.9705
X7.2087Y-5.2205
X7.2434Y-5.0283
X7.4035Y-5.0276
X7.5531Y-4.878
X7.5531Y-4.9705
X7.565Y-5.2205
X7.6004Y-5.0295
X7.7638Y-5.0295
T2
X4.3346Y-5.5236
X4.3346Y-5.7402
X4.3386Y-4.815
X4.3386Y-5.0315
X4.3937Y-4.3465
X4.4961Y-5.1811
X4.5Y-4.4724
X4.5138Y-5.7185
X4.5197Y-5.0098
X4.563Y-5.5315
X4.5669Y-4.8228
X4.5787Y-4.5551
X4.5827Y-5.2677
X4.6378Y-4.2874
X4.7087Y-5.1772
X4.7126Y-4.4724
X4.7362Y-4.8189
X4.7362Y-5.5315
X4.874Y-4.2165
X4.8819Y-5.5433
X4.8858Y-4.8307
X4.9075Y-4.2165
X4.9213Y-5.0748
X4.9213Y-5.7874
X4.9587Y-4.3543
X4.9646Y-5.685
X4.9685Y-4.9685
X5.0079Y-4.3543
X5.1732Y-5.0866
X5.189Y-4.3602
X5.2559Y-5.0866
X5.2913Y-4.9134
X5.3465Y-4.4193
X5.4193Y-5.0866
X5.4587Y-4.3622
X5.5059Y-5.0866
X5.5374Y-4.5689
X5.5374Y-4.7402
X5.5433Y-4.6634
X5.5433Y-5.0118
X5.6102Y-4.7657
X5.6161Y-4.4213
X5.6161Y-5.0236
X5.6417Y-4.9882
X5.689Y-4.3465
X5.7441Y-5.2303
X5.7461Y-5.3071
X5.7579Y-4.6594
X5.7776Y-4.6594
X5.7776Y-5.185
X5.7795Y-4.2795
X5.7913Y-5.2657
X5.811Y-4.2795
X5.8425Y-4.3465
X6.0Y-4.2795
X6.0335Y-4.2756
X6.0364Y-5.1959
X6.0374Y-5.2598
X6.0531Y-5.2283
X6.1299Y-4.3465
X6.1516Y-4.435
X6.1673Y-4.7933
X6.2047Y-4.2283
X6.2106Y-4.7382
X6.2283Y-4.7579
X6.2402Y-4.3465
X6.2402Y-4.5059
X6.3819Y-4.5394
X6.3819Y-4.5728
X6.3819Y-4.5945
X6.3976Y-4.2205
X6.4173Y-5.1949
X6.4272Y-4.2205
X6.4469Y-5.2835
X6.4587Y-4.2205
X6.4803Y-4.5394
X6.4803Y-4.5728
X6.4803Y-4.5925
X6.4882Y-4.8031
X6.5098Y-5.2638
X6.561Y-4.9567
X6.563Y-5.2618
X6.5866Y-4.9547
X6.5866Y-5.2618
X6.622Y-4.8366
X6.6299Y-4.5846
X6.6378Y-5.2618
X6.6516Y-4.1811
X6.6516Y-4.2087
X6.6654Y-4.6083
X6.6654Y-4.8819
X6.6831Y-4.1811
X6.7146Y-4.6102
X6.7697Y-4.6102
X6.7913Y-5.1319
X6.811Y-4.5827
X6.813Y-5.2894
X6.8622Y-4.8071
X6.876Y-4.122
X6.8839Y-5.2618
X6.9331Y-4.5236
X6.935Y-5.2618
X6.937Y-4.9567
X6.9626Y-4.9567
X6.9626Y-5.2618
X7.0Y-4.8366
X7.002Y-4.0512
X7.002Y-4.0886
X7.0138Y-5.2618
X7.0433Y-4.8819
X7.1063Y-4.0512
X7.1063Y-4.0886
X7.1654Y-5.1339
X7.1811Y-5.2913
X7.1929Y-4.4724
X7.2362Y-4.8031
X7.2598Y-5.2638
X7.3091Y-4.9567
X7.31Y-5.2628
X7.3356Y-5.2608
X7.3366Y-4.9587
X7.3701Y-4.8366
X7.3858Y-5.2638
X7.4134Y-4.8819
X7.5236Y-5.1299
X7.5433Y-5.2894
X7.5945Y-4.8071
X7.6161Y-5.2618
X7.6673Y-4.9567
X7.6673Y-5.2618
X7.6929Y-4.9587
X7.6929Y-5.2618
X7.7244Y-4.8366
X7.7441Y-5.2638
X7.7677Y-4.8819
T3
X6.5157Y-5.0787
X6.5157Y-5.1378
X6.5748Y-5.0787
X6.5748Y-5.1378
X6.6339Y-5.0787
X6.6339Y-5.1378
X6.8898Y-5.0787
X6.8898Y-5.1378
X6.9488Y-5.0787
X6.9488Y-5.1378
X7.0079Y-5.0787
X7.0079Y-5.1378
X7.2638Y-5.0787
X7.2638Y-5.1378
X7.3228Y-5.0787
X7.3228Y-5.1378
X7.3819Y-5.0787
X7.3819Y-5.1378
X7.6213Y-5.0787
X7.6213Y-5.1378
X7.6803Y-5.0787
X7.6803Y-5.1378
X7.7394Y-5.0787
X7.7394Y-5.1378
T4
X4.0394Y-4.1339
X4.0394Y-5.7087
X4.067Y-4.067
X4.067Y-4.2007
X4.067Y-5.6418
X4.067Y-5.7755
X4.1339Y-4.0394
X4.1339Y-4.2283
X4.1339Y-5.6142
X4.1339Y-5.8031
X4.2007Y-4.067
X4.2007Y-4.2007
X4.2007Y-5.6418
X4.2007Y-5.7755
X4.2283Y-4.1339
X4.2283Y-5.7087
X7.5827Y-4.1339
X7.5827Y-5.7087
X7.6104Y-4.067
X7.6104Y-4.2007
X7.6104Y-5.6418
X7.6104Y-5.7755
X7.6772Y-4.0394
X7.6772Y-4.2283
X7.6772Y-5.6142
X7.6772Y-5.8031
X7.744Y-4.067
X7.744Y-4.2007
X7.744Y-5.6418
X7.744Y-5.7755
X7.7717Y-4.1339
X7.7717Y-5.7087
T6
X4.2657Y-5.0866
X4.315Y-4.0079
X4.874Y-4.0039
X5.0748Y-4.0
X5.0906Y-4.8606
X5.0906Y-4.9606
X5.128Y-5.4
X5.128Y-5.5
X5.128Y-5.6
X5.128Y-5.7
X5.128Y-5.8
X5.25Y-5.4
X5.25Y-5.5
X5.25Y-5.6
X5.25Y-5.7
X5.25Y-5.8
X6.2539Y-4.0098
X6.3465Y-4.698
X6.3465Y-4.798
X6.4173Y-4.0098
T7
X4.0867Y-4.5533
X4.0867Y-4.6518
X4.0867Y-4.7502
X4.0874Y-5.0004
X4.0874Y-5.0988
X4.0874Y-5.1972
X5.25Y-4.0866
X5.3484Y-4.0866
X5.4469Y-4.0866
X5.4833Y-5.4941
X5.4833Y-5.5925
X5.4833Y-5.6909
X5.4833Y-5.7894
X5.5453Y-4.0866
X5.75Y-5.4941
X5.75Y-5.5925
X5.75Y-5.6909
X5.75Y-5.7894
X6.0177Y-5.4941
X6.0177Y-5.5925
X6.0177Y-5.6909
X6.0177Y-5.7894
T8
X6.3071Y-5.6299
X6.4055Y-5.6299
X6.6457Y-5.6313
X6.7441Y-5.6313
X6.9843Y-5.6313
X7.0827Y-5.6313
X7.313Y-4.2218
X7.3209Y-5.6313
X7.4114Y-4.2218
X7.4193Y-5.6313
T9
X4.1339Y-4.1339
X4.1339Y-5.7087
X7.6772Y-4.1339
X7.6772Y-5.7087
T5
G00X5.7354Y-4.0679
M15
G01X5.7354Y-4.0364
M16
G05
G00X5.7354Y-4.2392
M15
G01X5.7354Y-4.1959
M16
G05
G00X6.0756Y-4.0679
M15
G01X6.0756Y-4.0364
M16
G05
G00X6.0756Y-4.2392
M15
G01X6.0756Y-4.1959
M16
G05
M30
