%TF.GenerationSoftware,KiCad,Pcbnew,8.0.4*%
%TF.CreationDate,2025-01-23T17:28:26+01:00*%
%TF.ProjectId,OpenHand_v3,4f70656e-4861-46e6-945f-76332e6b6963,rev?*%
%TF.SameCoordinates,Original*%
%TF.FileFunction,Legend,Bot*%
%TF.FilePolarity,Positive*%
%FSLAX46Y46*%
G04 Gerber Fmt 4.6, Leading zero omitted, Abs format (unit mm)*
G04 Created by KiCad (PCBNEW 8.0.4) date 2025-01-23 17:28:26*
%MOMM*%
%LPD*%
G01*
G04 APERTURE LIST*
G04 Aperture macros list*
%AMRoundRect*
0 Rectangle with rounded corners*
0 $1 Rounding radius*
0 $2 $3 $4 $5 $6 $7 $8 $9 X,Y pos of 4 corners*
0 Add a 4 corners polygon primitive as box body*
4,1,4,$2,$3,$4,$5,$6,$7,$8,$9,$2,$3,0*
0 Add four circle primitives for the rounded corners*
1,1,$1+$1,$2,$3*
1,1,$1+$1,$4,$5*
1,1,$1+$1,$6,$7*
1,1,$1+$1,$8,$9*
0 Add four rect primitives between the rounded corners*
20,1,$1+$1,$2,$3,$4,$5,0*
20,1,$1+$1,$4,$5,$6,$7,0*
20,1,$1+$1,$6,$7,$8,$9,0*
20,1,$1+$1,$8,$9,$2,$3,0*%
G04 Aperture macros list end*
%ADD10C,0.150000*%
%ADD11C,0.100000*%
%ADD12C,0.220000*%
%ADD13C,0.087500*%
%ADD14C,0.800000*%
%ADD15C,6.400000*%
%ADD16RoundRect,0.250000X0.600000X0.750000X-0.600000X0.750000X-0.600000X-0.750000X0.600000X-0.750000X0*%
%ADD17O,1.700000X2.000000*%
%ADD18C,1.500000*%
%ADD19R,1.700000X1.700000*%
%ADD20O,1.700000X1.700000*%
%ADD21RoundRect,0.250000X-0.600000X-0.750000X0.600000X-0.750000X0.600000X0.750000X-0.600000X0.750000X0*%
%ADD22C,0.650000*%
%ADD23O,1.000000X2.100000*%
%ADD24O,1.000000X1.800000*%
G04 APERTURE END LIST*
D10*
X137071033Y-143903333D02*
X136371033Y-143903333D01*
X136371033Y-143903333D02*
X136371033Y-144170000D01*
X136371033Y-144170000D02*
X136404366Y-144236667D01*
X136404366Y-144236667D02*
X136437700Y-144270000D01*
X136437700Y-144270000D02*
X136504366Y-144303333D01*
X136504366Y-144303333D02*
X136604366Y-144303333D01*
X136604366Y-144303333D02*
X136671033Y-144270000D01*
X136671033Y-144270000D02*
X136704366Y-144236667D01*
X136704366Y-144236667D02*
X136737700Y-144170000D01*
X136737700Y-144170000D02*
X136737700Y-143903333D01*
X136871033Y-144570000D02*
X136871033Y-144903333D01*
X137071033Y-144503333D02*
X136371033Y-144736667D01*
X136371033Y-144736667D02*
X137071033Y-144970000D01*
X136437700Y-145170000D02*
X136404366Y-145203333D01*
X136404366Y-145203333D02*
X136371033Y-145270000D01*
X136371033Y-145270000D02*
X136371033Y-145436667D01*
X136371033Y-145436667D02*
X136404366Y-145503333D01*
X136404366Y-145503333D02*
X136437700Y-145536667D01*
X136437700Y-145536667D02*
X136504366Y-145570000D01*
X136504366Y-145570000D02*
X136571033Y-145570000D01*
X136571033Y-145570000D02*
X136671033Y-145536667D01*
X136671033Y-145536667D02*
X137071033Y-145136667D01*
X137071033Y-145136667D02*
X137071033Y-145570000D01*
X103883966Y-122349998D02*
X104583966Y-122349998D01*
X104583966Y-122349998D02*
X103883966Y-121949998D01*
X103883966Y-121949998D02*
X104583966Y-121949998D01*
X103883966Y-119483333D02*
X104583966Y-119483333D01*
X104583966Y-119483333D02*
X104583966Y-119216666D01*
X104583966Y-119216666D02*
X104550633Y-119150000D01*
X104550633Y-119150000D02*
X104517300Y-119116666D01*
X104517300Y-119116666D02*
X104450633Y-119083333D01*
X104450633Y-119083333D02*
X104350633Y-119083333D01*
X104350633Y-119083333D02*
X104283966Y-119116666D01*
X104283966Y-119116666D02*
X104250633Y-119150000D01*
X104250633Y-119150000D02*
X104217300Y-119216666D01*
X104217300Y-119216666D02*
X104217300Y-119483333D01*
X104150633Y-117183334D02*
X104150633Y-116650001D01*
X133261033Y-136303333D02*
X132561033Y-136303333D01*
X132561033Y-136303333D02*
X132561033Y-136570000D01*
X132561033Y-136570000D02*
X132594366Y-136636667D01*
X132594366Y-136636667D02*
X132627700Y-136670000D01*
X132627700Y-136670000D02*
X132694366Y-136703333D01*
X132694366Y-136703333D02*
X132794366Y-136703333D01*
X132794366Y-136703333D02*
X132861033Y-136670000D01*
X132861033Y-136670000D02*
X132894366Y-136636667D01*
X132894366Y-136636667D02*
X132927700Y-136570000D01*
X132927700Y-136570000D02*
X132927700Y-136303333D01*
X133194366Y-137403333D02*
X133227700Y-137370000D01*
X133227700Y-137370000D02*
X133261033Y-137270000D01*
X133261033Y-137270000D02*
X133261033Y-137203333D01*
X133261033Y-137203333D02*
X133227700Y-137103333D01*
X133227700Y-137103333D02*
X133161033Y-137036667D01*
X133161033Y-137036667D02*
X133094366Y-137003333D01*
X133094366Y-137003333D02*
X132961033Y-136970000D01*
X132961033Y-136970000D02*
X132861033Y-136970000D01*
X132861033Y-136970000D02*
X132727700Y-137003333D01*
X132727700Y-137003333D02*
X132661033Y-137036667D01*
X132661033Y-137036667D02*
X132594366Y-137103333D01*
X132594366Y-137103333D02*
X132561033Y-137203333D01*
X132561033Y-137203333D02*
X132561033Y-137270000D01*
X132561033Y-137270000D02*
X132594366Y-137370000D01*
X132594366Y-137370000D02*
X132627700Y-137403333D01*
X132794366Y-138003333D02*
X133261033Y-138003333D01*
X132527700Y-137836667D02*
X133027700Y-137670000D01*
X133027700Y-137670000D02*
X133027700Y-138103333D01*
X131382700Y-125166666D02*
X131416033Y-125266666D01*
X131416033Y-125266666D02*
X131416033Y-125433333D01*
X131416033Y-125433333D02*
X131382700Y-125499999D01*
X131382700Y-125499999D02*
X131349366Y-125533333D01*
X131349366Y-125533333D02*
X131282700Y-125566666D01*
X131282700Y-125566666D02*
X131216033Y-125566666D01*
X131216033Y-125566666D02*
X131149366Y-125533333D01*
X131149366Y-125533333D02*
X131116033Y-125499999D01*
X131116033Y-125499999D02*
X131082700Y-125433333D01*
X131082700Y-125433333D02*
X131049366Y-125299999D01*
X131049366Y-125299999D02*
X131016033Y-125233333D01*
X131016033Y-125233333D02*
X130982700Y-125199999D01*
X130982700Y-125199999D02*
X130916033Y-125166666D01*
X130916033Y-125166666D02*
X130849366Y-125166666D01*
X130849366Y-125166666D02*
X130782700Y-125199999D01*
X130782700Y-125199999D02*
X130749366Y-125233333D01*
X130749366Y-125233333D02*
X130716033Y-125299999D01*
X130716033Y-125299999D02*
X130716033Y-125466666D01*
X130716033Y-125466666D02*
X130749366Y-125566666D01*
X131349366Y-126266666D02*
X131382700Y-126233333D01*
X131382700Y-126233333D02*
X131416033Y-126133333D01*
X131416033Y-126133333D02*
X131416033Y-126066666D01*
X131416033Y-126066666D02*
X131382700Y-125966666D01*
X131382700Y-125966666D02*
X131316033Y-125900000D01*
X131316033Y-125900000D02*
X131249366Y-125866666D01*
X131249366Y-125866666D02*
X131116033Y-125833333D01*
X131116033Y-125833333D02*
X131016033Y-125833333D01*
X131016033Y-125833333D02*
X130882700Y-125866666D01*
X130882700Y-125866666D02*
X130816033Y-125900000D01*
X130816033Y-125900000D02*
X130749366Y-125966666D01*
X130749366Y-125966666D02*
X130716033Y-126066666D01*
X130716033Y-126066666D02*
X130716033Y-126133333D01*
X130716033Y-126133333D02*
X130749366Y-126233333D01*
X130749366Y-126233333D02*
X130782700Y-126266666D01*
X131416033Y-126900000D02*
X131416033Y-126566666D01*
X131416033Y-126566666D02*
X130716033Y-126566666D01*
X179516666Y-141349366D02*
X178983333Y-141349366D01*
X178149999Y-140982700D02*
X178116666Y-140949366D01*
X178116666Y-140949366D02*
X178049999Y-140916033D01*
X178049999Y-140916033D02*
X177883333Y-140916033D01*
X177883333Y-140916033D02*
X177816666Y-140949366D01*
X177816666Y-140949366D02*
X177783333Y-140982700D01*
X177783333Y-140982700D02*
X177749999Y-141049366D01*
X177749999Y-141049366D02*
X177749999Y-141116033D01*
X177749999Y-141116033D02*
X177783333Y-141216033D01*
X177783333Y-141216033D02*
X178183333Y-141616033D01*
X178183333Y-141616033D02*
X177749999Y-141616033D01*
X176916666Y-141349366D02*
X176383333Y-141349366D01*
X176649999Y-141616033D02*
X176649999Y-141082700D01*
X154519048Y-104354819D02*
X154519048Y-105069104D01*
X154519048Y-105069104D02*
X154566667Y-105211961D01*
X154566667Y-105211961D02*
X154661905Y-105307200D01*
X154661905Y-105307200D02*
X154804762Y-105354819D01*
X154804762Y-105354819D02*
X154900000Y-105354819D01*
X153566667Y-105354819D02*
X154042857Y-105354819D01*
X154042857Y-105354819D02*
X154042857Y-104354819D01*
X152661905Y-105259580D02*
X152709524Y-105307200D01*
X152709524Y-105307200D02*
X152852381Y-105354819D01*
X152852381Y-105354819D02*
X152947619Y-105354819D01*
X152947619Y-105354819D02*
X153090476Y-105307200D01*
X153090476Y-105307200D02*
X153185714Y-105211961D01*
X153185714Y-105211961D02*
X153233333Y-105116723D01*
X153233333Y-105116723D02*
X153280952Y-104926247D01*
X153280952Y-104926247D02*
X153280952Y-104783390D01*
X153280952Y-104783390D02*
X153233333Y-104592914D01*
X153233333Y-104592914D02*
X153185714Y-104497676D01*
X153185714Y-104497676D02*
X153090476Y-104402438D01*
X153090476Y-104402438D02*
X152947619Y-104354819D01*
X152947619Y-104354819D02*
X152852381Y-104354819D01*
X152852381Y-104354819D02*
X152709524Y-104402438D01*
X152709524Y-104402438D02*
X152661905Y-104450057D01*
X151947619Y-104354819D02*
X151947619Y-105069104D01*
X151947619Y-105069104D02*
X151995238Y-105211961D01*
X151995238Y-105211961D02*
X152090476Y-105307200D01*
X152090476Y-105307200D02*
X152233333Y-105354819D01*
X152233333Y-105354819D02*
X152328571Y-105354819D01*
X150995238Y-105354819D02*
X151471428Y-105354819D01*
X151471428Y-105354819D02*
X151471428Y-104354819D01*
X150090476Y-105259580D02*
X150138095Y-105307200D01*
X150138095Y-105307200D02*
X150280952Y-105354819D01*
X150280952Y-105354819D02*
X150376190Y-105354819D01*
X150376190Y-105354819D02*
X150519047Y-105307200D01*
X150519047Y-105307200D02*
X150614285Y-105211961D01*
X150614285Y-105211961D02*
X150661904Y-105116723D01*
X150661904Y-105116723D02*
X150709523Y-104926247D01*
X150709523Y-104926247D02*
X150709523Y-104783390D01*
X150709523Y-104783390D02*
X150661904Y-104592914D01*
X150661904Y-104592914D02*
X150614285Y-104497676D01*
X150614285Y-104497676D02*
X150519047Y-104402438D01*
X150519047Y-104402438D02*
X150376190Y-104354819D01*
X150376190Y-104354819D02*
X150280952Y-104354819D01*
X150280952Y-104354819D02*
X150138095Y-104402438D01*
X150138095Y-104402438D02*
X150090476Y-104450057D01*
X149376190Y-104354819D02*
X149376190Y-105069104D01*
X149376190Y-105069104D02*
X149423809Y-105211961D01*
X149423809Y-105211961D02*
X149519047Y-105307200D01*
X149519047Y-105307200D02*
X149661904Y-105354819D01*
X149661904Y-105354819D02*
X149757142Y-105354819D01*
X148423809Y-105354819D02*
X148899999Y-105354819D01*
X148899999Y-105354819D02*
X148899999Y-104354819D01*
X147519047Y-105259580D02*
X147566666Y-105307200D01*
X147566666Y-105307200D02*
X147709523Y-105354819D01*
X147709523Y-105354819D02*
X147804761Y-105354819D01*
X147804761Y-105354819D02*
X147947618Y-105307200D01*
X147947618Y-105307200D02*
X148042856Y-105211961D01*
X148042856Y-105211961D02*
X148090475Y-105116723D01*
X148090475Y-105116723D02*
X148138094Y-104926247D01*
X148138094Y-104926247D02*
X148138094Y-104783390D01*
X148138094Y-104783390D02*
X148090475Y-104592914D01*
X148090475Y-104592914D02*
X148042856Y-104497676D01*
X148042856Y-104497676D02*
X147947618Y-104402438D01*
X147947618Y-104402438D02*
X147804761Y-104354819D01*
X147804761Y-104354819D02*
X147709523Y-104354819D01*
X147709523Y-104354819D02*
X147566666Y-104402438D01*
X147566666Y-104402438D02*
X147519047Y-104450057D01*
X146804761Y-104354819D02*
X146804761Y-105069104D01*
X146804761Y-105069104D02*
X146852380Y-105211961D01*
X146852380Y-105211961D02*
X146947618Y-105307200D01*
X146947618Y-105307200D02*
X147090475Y-105354819D01*
X147090475Y-105354819D02*
X147185713Y-105354819D01*
X145852380Y-105354819D02*
X146328570Y-105354819D01*
X146328570Y-105354819D02*
X146328570Y-104354819D01*
X144947618Y-105259580D02*
X144995237Y-105307200D01*
X144995237Y-105307200D02*
X145138094Y-105354819D01*
X145138094Y-105354819D02*
X145233332Y-105354819D01*
X145233332Y-105354819D02*
X145376189Y-105307200D01*
X145376189Y-105307200D02*
X145471427Y-105211961D01*
X145471427Y-105211961D02*
X145519046Y-105116723D01*
X145519046Y-105116723D02*
X145566665Y-104926247D01*
X145566665Y-104926247D02*
X145566665Y-104783390D01*
X145566665Y-104783390D02*
X145519046Y-104592914D01*
X145519046Y-104592914D02*
X145471427Y-104497676D01*
X145471427Y-104497676D02*
X145376189Y-104402438D01*
X145376189Y-104402438D02*
X145233332Y-104354819D01*
X145233332Y-104354819D02*
X145138094Y-104354819D01*
X145138094Y-104354819D02*
X144995237Y-104402438D01*
X144995237Y-104402438D02*
X144947618Y-104450057D01*
X170716666Y-141349366D02*
X170183333Y-141349366D01*
X168949999Y-141616033D02*
X169349999Y-141616033D01*
X169149999Y-141616033D02*
X169149999Y-140916033D01*
X169149999Y-140916033D02*
X169216666Y-141016033D01*
X169216666Y-141016033D02*
X169283333Y-141082700D01*
X169283333Y-141082700D02*
X169349999Y-141116033D01*
X168116666Y-141349366D02*
X167583333Y-141349366D01*
X167849999Y-141616033D02*
X167849999Y-141082700D01*
X158666667Y-103983966D02*
X158333333Y-103983966D01*
X158333333Y-103983966D02*
X158300000Y-103650633D01*
X158300000Y-103650633D02*
X158333333Y-103683966D01*
X158333333Y-103683966D02*
X158400000Y-103717300D01*
X158400000Y-103717300D02*
X158566667Y-103717300D01*
X158566667Y-103717300D02*
X158633333Y-103683966D01*
X158633333Y-103683966D02*
X158666667Y-103650633D01*
X158666667Y-103650633D02*
X158700000Y-103583966D01*
X158700000Y-103583966D02*
X158700000Y-103417300D01*
X158700000Y-103417300D02*
X158666667Y-103350633D01*
X158666667Y-103350633D02*
X158633333Y-103317300D01*
X158633333Y-103317300D02*
X158566667Y-103283966D01*
X158566667Y-103283966D02*
X158400000Y-103283966D01*
X158400000Y-103283966D02*
X158333333Y-103317300D01*
X158333333Y-103317300D02*
X158300000Y-103350633D01*
X158900000Y-103983966D02*
X159133334Y-103283966D01*
X159133334Y-103283966D02*
X159366667Y-103983966D01*
X159292033Y-119483333D02*
X159858700Y-119483333D01*
X159858700Y-119483333D02*
X159925366Y-119516667D01*
X159925366Y-119516667D02*
X159958700Y-119550000D01*
X159958700Y-119550000D02*
X159992033Y-119616667D01*
X159992033Y-119616667D02*
X159992033Y-119750000D01*
X159992033Y-119750000D02*
X159958700Y-119816667D01*
X159958700Y-119816667D02*
X159925366Y-119850000D01*
X159925366Y-119850000D02*
X159858700Y-119883333D01*
X159858700Y-119883333D02*
X159292033Y-119883333D01*
X159792033Y-120183333D02*
X159792033Y-120516666D01*
X159992033Y-120116666D02*
X159292033Y-120350000D01*
X159292033Y-120350000D02*
X159992033Y-120583333D01*
X159992033Y-121216666D02*
X159658700Y-120983333D01*
X159992033Y-120816666D02*
X159292033Y-120816666D01*
X159292033Y-120816666D02*
X159292033Y-121083333D01*
X159292033Y-121083333D02*
X159325366Y-121150000D01*
X159325366Y-121150000D02*
X159358700Y-121183333D01*
X159358700Y-121183333D02*
X159425366Y-121216666D01*
X159425366Y-121216666D02*
X159525366Y-121216666D01*
X159525366Y-121216666D02*
X159592033Y-121183333D01*
X159592033Y-121183333D02*
X159625366Y-121150000D01*
X159625366Y-121150000D02*
X159658700Y-121083333D01*
X159658700Y-121083333D02*
X159658700Y-120816666D01*
X159292033Y-121416666D02*
X159292033Y-121816666D01*
X159992033Y-121616666D02*
X159292033Y-121616666D01*
D11*
X131933333Y-104381366D02*
X132366666Y-104381366D01*
X132366666Y-104381366D02*
X132133333Y-104114700D01*
X132133333Y-104114700D02*
X132233333Y-104114700D01*
X132233333Y-104114700D02*
X132299999Y-104081366D01*
X132299999Y-104081366D02*
X132333333Y-104048033D01*
X132333333Y-104048033D02*
X132366666Y-103981366D01*
X132366666Y-103981366D02*
X132366666Y-103814700D01*
X132366666Y-103814700D02*
X132333333Y-103748033D01*
X132333333Y-103748033D02*
X132299999Y-103714700D01*
X132299999Y-103714700D02*
X132233333Y-103681366D01*
X132233333Y-103681366D02*
X132033333Y-103681366D01*
X132033333Y-103681366D02*
X131966666Y-103714700D01*
X131966666Y-103714700D02*
X131933333Y-103748033D01*
X132566666Y-104381366D02*
X132800000Y-103681366D01*
X132800000Y-103681366D02*
X133033333Y-104381366D01*
X133200000Y-104381366D02*
X133633333Y-104381366D01*
X133633333Y-104381366D02*
X133400000Y-104114700D01*
X133400000Y-104114700D02*
X133500000Y-104114700D01*
X133500000Y-104114700D02*
X133566666Y-104081366D01*
X133566666Y-104081366D02*
X133600000Y-104048033D01*
X133600000Y-104048033D02*
X133633333Y-103981366D01*
X133633333Y-103981366D02*
X133633333Y-103814700D01*
X133633333Y-103814700D02*
X133600000Y-103748033D01*
X133600000Y-103748033D02*
X133566666Y-103714700D01*
X133566666Y-103714700D02*
X133500000Y-103681366D01*
X133500000Y-103681366D02*
X133300000Y-103681366D01*
X133300000Y-103681366D02*
X133233333Y-103714700D01*
X133233333Y-103714700D02*
X133200000Y-103748033D01*
D10*
X110205633Y-129733332D02*
X110238966Y-129799999D01*
X110238966Y-129799999D02*
X110238966Y-129899999D01*
X110238966Y-129899999D02*
X110205633Y-129999999D01*
X110205633Y-129999999D02*
X110138966Y-130066666D01*
X110138966Y-130066666D02*
X110072300Y-130099999D01*
X110072300Y-130099999D02*
X109938966Y-130133332D01*
X109938966Y-130133332D02*
X109838966Y-130133332D01*
X109838966Y-130133332D02*
X109705633Y-130099999D01*
X109705633Y-130099999D02*
X109638966Y-130066666D01*
X109638966Y-130066666D02*
X109572300Y-129999999D01*
X109572300Y-129999999D02*
X109538966Y-129899999D01*
X109538966Y-129899999D02*
X109538966Y-129833332D01*
X109538966Y-129833332D02*
X109572300Y-129733332D01*
X109572300Y-129733332D02*
X109605633Y-129699999D01*
X109605633Y-129699999D02*
X109838966Y-129699999D01*
X109838966Y-129699999D02*
X109838966Y-129833332D01*
X109538966Y-129399999D02*
X110238966Y-129399999D01*
X110238966Y-129399999D02*
X109538966Y-128999999D01*
X109538966Y-128999999D02*
X110238966Y-128999999D01*
X109538966Y-128666666D02*
X110238966Y-128666666D01*
X110238966Y-128666666D02*
X110238966Y-128499999D01*
X110238966Y-128499999D02*
X110205633Y-128399999D01*
X110205633Y-128399999D02*
X110138966Y-128333333D01*
X110138966Y-128333333D02*
X110072300Y-128299999D01*
X110072300Y-128299999D02*
X109938966Y-128266666D01*
X109938966Y-128266666D02*
X109838966Y-128266666D01*
X109838966Y-128266666D02*
X109705633Y-128299999D01*
X109705633Y-128299999D02*
X109638966Y-128333333D01*
X109638966Y-128333333D02*
X109572300Y-128399999D01*
X109572300Y-128399999D02*
X109538966Y-128499999D01*
X109538966Y-128499999D02*
X109538966Y-128666666D01*
X131382700Y-122550000D02*
X131416033Y-122650000D01*
X131416033Y-122650000D02*
X131416033Y-122816667D01*
X131416033Y-122816667D02*
X131382700Y-122883333D01*
X131382700Y-122883333D02*
X131349366Y-122916667D01*
X131349366Y-122916667D02*
X131282700Y-122950000D01*
X131282700Y-122950000D02*
X131216033Y-122950000D01*
X131216033Y-122950000D02*
X131149366Y-122916667D01*
X131149366Y-122916667D02*
X131116033Y-122883333D01*
X131116033Y-122883333D02*
X131082700Y-122816667D01*
X131082700Y-122816667D02*
X131049366Y-122683333D01*
X131049366Y-122683333D02*
X131016033Y-122616667D01*
X131016033Y-122616667D02*
X130982700Y-122583333D01*
X130982700Y-122583333D02*
X130916033Y-122550000D01*
X130916033Y-122550000D02*
X130849366Y-122550000D01*
X130849366Y-122550000D02*
X130782700Y-122583333D01*
X130782700Y-122583333D02*
X130749366Y-122616667D01*
X130749366Y-122616667D02*
X130716033Y-122683333D01*
X130716033Y-122683333D02*
X130716033Y-122850000D01*
X130716033Y-122850000D02*
X130749366Y-122950000D01*
X131416033Y-123250000D02*
X130716033Y-123250000D01*
X130716033Y-123250000D02*
X130716033Y-123416667D01*
X130716033Y-123416667D02*
X130749366Y-123516667D01*
X130749366Y-123516667D02*
X130816033Y-123583334D01*
X130816033Y-123583334D02*
X130882700Y-123616667D01*
X130882700Y-123616667D02*
X131016033Y-123650000D01*
X131016033Y-123650000D02*
X131116033Y-123650000D01*
X131116033Y-123650000D02*
X131249366Y-123616667D01*
X131249366Y-123616667D02*
X131316033Y-123583334D01*
X131316033Y-123583334D02*
X131382700Y-123516667D01*
X131382700Y-123516667D02*
X131416033Y-123416667D01*
X131416033Y-123416667D02*
X131416033Y-123250000D01*
X131216033Y-123916667D02*
X131216033Y-124250000D01*
X131416033Y-123850000D02*
X130716033Y-124083334D01*
X130716033Y-124083334D02*
X131416033Y-124316667D01*
X162467033Y-121336666D02*
X162467033Y-121736666D01*
X163167033Y-121536666D02*
X162467033Y-121536666D01*
X162467033Y-121903333D02*
X163167033Y-122369999D01*
X162467033Y-122369999D02*
X163167033Y-121903333D01*
X133261033Y-146129999D02*
X132561033Y-146129999D01*
X132561033Y-146129999D02*
X132561033Y-146396666D01*
X132561033Y-146396666D02*
X132594366Y-146463333D01*
X132594366Y-146463333D02*
X132627700Y-146496666D01*
X132627700Y-146496666D02*
X132694366Y-146529999D01*
X132694366Y-146529999D02*
X132794366Y-146529999D01*
X132794366Y-146529999D02*
X132861033Y-146496666D01*
X132861033Y-146496666D02*
X132894366Y-146463333D01*
X132894366Y-146463333D02*
X132927700Y-146396666D01*
X132927700Y-146396666D02*
X132927700Y-146129999D01*
X133194366Y-147229999D02*
X133227700Y-147196666D01*
X133227700Y-147196666D02*
X133261033Y-147096666D01*
X133261033Y-147096666D02*
X133261033Y-147029999D01*
X133261033Y-147029999D02*
X133227700Y-146929999D01*
X133227700Y-146929999D02*
X133161033Y-146863333D01*
X133161033Y-146863333D02*
X133094366Y-146829999D01*
X133094366Y-146829999D02*
X132961033Y-146796666D01*
X132961033Y-146796666D02*
X132861033Y-146796666D01*
X132861033Y-146796666D02*
X132727700Y-146829999D01*
X132727700Y-146829999D02*
X132661033Y-146863333D01*
X132661033Y-146863333D02*
X132594366Y-146929999D01*
X132594366Y-146929999D02*
X132561033Y-147029999D01*
X132561033Y-147029999D02*
X132561033Y-147096666D01*
X132561033Y-147096666D02*
X132594366Y-147196666D01*
X132594366Y-147196666D02*
X132627700Y-147229999D01*
X133261033Y-147896666D02*
X133261033Y-147496666D01*
X133261033Y-147696666D02*
X132561033Y-147696666D01*
X132561033Y-147696666D02*
X132661033Y-147629999D01*
X132661033Y-147629999D02*
X132727700Y-147563333D01*
X132727700Y-147563333D02*
X132761033Y-147496666D01*
X132561033Y-148530000D02*
X132561033Y-148196666D01*
X132561033Y-148196666D02*
X132894366Y-148163333D01*
X132894366Y-148163333D02*
X132861033Y-148196666D01*
X132861033Y-148196666D02*
X132827700Y-148263333D01*
X132827700Y-148263333D02*
X132827700Y-148430000D01*
X132827700Y-148430000D02*
X132861033Y-148496666D01*
X132861033Y-148496666D02*
X132894366Y-148530000D01*
X132894366Y-148530000D02*
X132961033Y-148563333D01*
X132961033Y-148563333D02*
X133127700Y-148563333D01*
X133127700Y-148563333D02*
X133194366Y-148530000D01*
X133194366Y-148530000D02*
X133227700Y-148496666D01*
X133227700Y-148496666D02*
X133261033Y-148430000D01*
X133261033Y-148430000D02*
X133261033Y-148263333D01*
X133261033Y-148263333D02*
X133227700Y-148196666D01*
X133227700Y-148196666D02*
X133194366Y-148163333D01*
D12*
X187785712Y-147643702D02*
X187785712Y-148615131D01*
X187785712Y-148615131D02*
X187842854Y-148729417D01*
X187842854Y-148729417D02*
X187899997Y-148786560D01*
X187899997Y-148786560D02*
X188014283Y-148843702D01*
X188014283Y-148843702D02*
X188185712Y-148843702D01*
X188185712Y-148843702D02*
X188299997Y-148786560D01*
X187785712Y-148386560D02*
X187899997Y-148443702D01*
X187899997Y-148443702D02*
X188128569Y-148443702D01*
X188128569Y-148443702D02*
X188242854Y-148386560D01*
X188242854Y-148386560D02*
X188299997Y-148329417D01*
X188299997Y-148329417D02*
X188357140Y-148215131D01*
X188357140Y-148215131D02*
X188357140Y-147872274D01*
X188357140Y-147872274D02*
X188299997Y-147757988D01*
X188299997Y-147757988D02*
X188242854Y-147700845D01*
X188242854Y-147700845D02*
X188128569Y-147643702D01*
X188128569Y-147643702D02*
X187899997Y-147643702D01*
X187899997Y-147643702D02*
X187785712Y-147700845D01*
X187214283Y-148443702D02*
X187214283Y-147643702D01*
X187214283Y-147243702D02*
X187271426Y-147300845D01*
X187271426Y-147300845D02*
X187214283Y-147357988D01*
X187214283Y-147357988D02*
X187157140Y-147300845D01*
X187157140Y-147300845D02*
X187214283Y-147243702D01*
X187214283Y-147243702D02*
X187214283Y-147357988D01*
X186814283Y-147643702D02*
X186357140Y-147643702D01*
X186642854Y-147243702D02*
X186642854Y-148272274D01*
X186642854Y-148272274D02*
X186585711Y-148386560D01*
X186585711Y-148386560D02*
X186471426Y-148443702D01*
X186471426Y-148443702D02*
X186357140Y-148443702D01*
X185957140Y-148443702D02*
X185957140Y-147243702D01*
X185442855Y-148443702D02*
X185442855Y-147815131D01*
X185442855Y-147815131D02*
X185499997Y-147700845D01*
X185499997Y-147700845D02*
X185614283Y-147643702D01*
X185614283Y-147643702D02*
X185785712Y-147643702D01*
X185785712Y-147643702D02*
X185899997Y-147700845D01*
X185899997Y-147700845D02*
X185957140Y-147757988D01*
X184357141Y-147643702D02*
X184357141Y-148443702D01*
X184871426Y-147643702D02*
X184871426Y-148272274D01*
X184871426Y-148272274D02*
X184814283Y-148386560D01*
X184814283Y-148386560D02*
X184699998Y-148443702D01*
X184699998Y-148443702D02*
X184528569Y-148443702D01*
X184528569Y-148443702D02*
X184414283Y-148386560D01*
X184414283Y-148386560D02*
X184357141Y-148329417D01*
X183785712Y-148443702D02*
X183785712Y-147243702D01*
X183785712Y-147700845D02*
X183671427Y-147643702D01*
X183671427Y-147643702D02*
X183442855Y-147643702D01*
X183442855Y-147643702D02*
X183328569Y-147700845D01*
X183328569Y-147700845D02*
X183271427Y-147757988D01*
X183271427Y-147757988D02*
X183214284Y-147872274D01*
X183214284Y-147872274D02*
X183214284Y-148215131D01*
X183214284Y-148215131D02*
X183271427Y-148329417D01*
X183271427Y-148329417D02*
X183328569Y-148386560D01*
X183328569Y-148386560D02*
X183442855Y-148443702D01*
X183442855Y-148443702D02*
X183671427Y-148443702D01*
X183671427Y-148443702D02*
X183785712Y-148386560D01*
X182699998Y-148329417D02*
X182642855Y-148386560D01*
X182642855Y-148386560D02*
X182699998Y-148443702D01*
X182699998Y-148443702D02*
X182757141Y-148386560D01*
X182757141Y-148386560D02*
X182699998Y-148329417D01*
X182699998Y-148329417D02*
X182699998Y-148443702D01*
X181614284Y-148386560D02*
X181728569Y-148443702D01*
X181728569Y-148443702D02*
X181957141Y-148443702D01*
X181957141Y-148443702D02*
X182071426Y-148386560D01*
X182071426Y-148386560D02*
X182128569Y-148329417D01*
X182128569Y-148329417D02*
X182185712Y-148215131D01*
X182185712Y-148215131D02*
X182185712Y-147872274D01*
X182185712Y-147872274D02*
X182128569Y-147757988D01*
X182128569Y-147757988D02*
X182071426Y-147700845D01*
X182071426Y-147700845D02*
X181957141Y-147643702D01*
X181957141Y-147643702D02*
X181728569Y-147643702D01*
X181728569Y-147643702D02*
X181614284Y-147700845D01*
X180928570Y-148443702D02*
X181042855Y-148386560D01*
X181042855Y-148386560D02*
X181099998Y-148329417D01*
X181099998Y-148329417D02*
X181157141Y-148215131D01*
X181157141Y-148215131D02*
X181157141Y-147872274D01*
X181157141Y-147872274D02*
X181099998Y-147757988D01*
X181099998Y-147757988D02*
X181042855Y-147700845D01*
X181042855Y-147700845D02*
X180928570Y-147643702D01*
X180928570Y-147643702D02*
X180757141Y-147643702D01*
X180757141Y-147643702D02*
X180642855Y-147700845D01*
X180642855Y-147700845D02*
X180585713Y-147757988D01*
X180585713Y-147757988D02*
X180528570Y-147872274D01*
X180528570Y-147872274D02*
X180528570Y-148215131D01*
X180528570Y-148215131D02*
X180585713Y-148329417D01*
X180585713Y-148329417D02*
X180642855Y-148386560D01*
X180642855Y-148386560D02*
X180757141Y-148443702D01*
X180757141Y-148443702D02*
X180928570Y-148443702D01*
X180014284Y-148443702D02*
X180014284Y-147643702D01*
X180014284Y-147757988D02*
X179957141Y-147700845D01*
X179957141Y-147700845D02*
X179842856Y-147643702D01*
X179842856Y-147643702D02*
X179671427Y-147643702D01*
X179671427Y-147643702D02*
X179557141Y-147700845D01*
X179557141Y-147700845D02*
X179499999Y-147815131D01*
X179499999Y-147815131D02*
X179499999Y-148443702D01*
X179499999Y-147815131D02*
X179442856Y-147700845D01*
X179442856Y-147700845D02*
X179328570Y-147643702D01*
X179328570Y-147643702D02*
X179157141Y-147643702D01*
X179157141Y-147643702D02*
X179042856Y-147700845D01*
X179042856Y-147700845D02*
X178985713Y-147815131D01*
X178985713Y-147815131D02*
X178985713Y-148443702D01*
X177557141Y-147186560D02*
X178585713Y-148729417D01*
X177214284Y-148100845D02*
X176642856Y-148100845D01*
X177328570Y-148443702D02*
X176928570Y-147243702D01*
X176928570Y-147243702D02*
X176528570Y-148443702D01*
X175957142Y-148443702D02*
X176071427Y-148386560D01*
X176071427Y-148386560D02*
X176128570Y-148272274D01*
X176128570Y-148272274D02*
X176128570Y-147243702D01*
X175042856Y-148386560D02*
X175157142Y-148443702D01*
X175157142Y-148443702D02*
X175385714Y-148443702D01*
X175385714Y-148443702D02*
X175499999Y-148386560D01*
X175499999Y-148386560D02*
X175557142Y-148272274D01*
X175557142Y-148272274D02*
X175557142Y-147815131D01*
X175557142Y-147815131D02*
X175499999Y-147700845D01*
X175499999Y-147700845D02*
X175385714Y-147643702D01*
X175385714Y-147643702D02*
X175157142Y-147643702D01*
X175157142Y-147643702D02*
X175042856Y-147700845D01*
X175042856Y-147700845D02*
X174985714Y-147815131D01*
X174985714Y-147815131D02*
X174985714Y-147929417D01*
X174985714Y-147929417D02*
X175557142Y-148043702D01*
X174471428Y-148443702D02*
X174471428Y-147243702D01*
X174357143Y-147986560D02*
X174014285Y-148443702D01*
X174014285Y-147643702D02*
X174471428Y-148100845D01*
X173557142Y-148386560D02*
X173442856Y-148443702D01*
X173442856Y-148443702D02*
X173214285Y-148443702D01*
X173214285Y-148443702D02*
X173099999Y-148386560D01*
X173099999Y-148386560D02*
X173042856Y-148272274D01*
X173042856Y-148272274D02*
X173042856Y-148215131D01*
X173042856Y-148215131D02*
X173099999Y-148100845D01*
X173099999Y-148100845D02*
X173214285Y-148043702D01*
X173214285Y-148043702D02*
X173385714Y-148043702D01*
X173385714Y-148043702D02*
X173499999Y-147986560D01*
X173499999Y-147986560D02*
X173557142Y-147872274D01*
X173557142Y-147872274D02*
X173557142Y-147815131D01*
X173557142Y-147815131D02*
X173499999Y-147700845D01*
X173499999Y-147700845D02*
X173385714Y-147643702D01*
X173385714Y-147643702D02*
X173214285Y-147643702D01*
X173214285Y-147643702D02*
X173099999Y-147700845D01*
X172014285Y-148443702D02*
X172014285Y-147815131D01*
X172014285Y-147815131D02*
X172071427Y-147700845D01*
X172071427Y-147700845D02*
X172185713Y-147643702D01*
X172185713Y-147643702D02*
X172414285Y-147643702D01*
X172414285Y-147643702D02*
X172528570Y-147700845D01*
X172014285Y-148386560D02*
X172128570Y-148443702D01*
X172128570Y-148443702D02*
X172414285Y-148443702D01*
X172414285Y-148443702D02*
X172528570Y-148386560D01*
X172528570Y-148386560D02*
X172585713Y-148272274D01*
X172585713Y-148272274D02*
X172585713Y-148157988D01*
X172585713Y-148157988D02*
X172528570Y-148043702D01*
X172528570Y-148043702D02*
X172414285Y-147986560D01*
X172414285Y-147986560D02*
X172128570Y-147986560D01*
X172128570Y-147986560D02*
X172014285Y-147929417D01*
X171442856Y-148443702D02*
X171442856Y-147243702D01*
X171442856Y-147815131D02*
X170757142Y-147815131D01*
X170757142Y-148443702D02*
X170757142Y-147243702D01*
X169728570Y-148386560D02*
X169842856Y-148443702D01*
X169842856Y-148443702D02*
X170071428Y-148443702D01*
X170071428Y-148443702D02*
X170185713Y-148386560D01*
X170185713Y-148386560D02*
X170242856Y-148272274D01*
X170242856Y-148272274D02*
X170242856Y-147815131D01*
X170242856Y-147815131D02*
X170185713Y-147700845D01*
X170185713Y-147700845D02*
X170071428Y-147643702D01*
X170071428Y-147643702D02*
X169842856Y-147643702D01*
X169842856Y-147643702D02*
X169728570Y-147700845D01*
X169728570Y-147700845D02*
X169671428Y-147815131D01*
X169671428Y-147815131D02*
X169671428Y-147929417D01*
X169671428Y-147929417D02*
X170242856Y-148043702D01*
X168985714Y-148443702D02*
X169099999Y-148386560D01*
X169099999Y-148386560D02*
X169157142Y-148272274D01*
X169157142Y-148272274D02*
X169157142Y-147243702D01*
X168071428Y-148386560D02*
X168185714Y-148443702D01*
X168185714Y-148443702D02*
X168414286Y-148443702D01*
X168414286Y-148443702D02*
X168528571Y-148386560D01*
X168528571Y-148386560D02*
X168585714Y-148272274D01*
X168585714Y-148272274D02*
X168585714Y-147815131D01*
X168585714Y-147815131D02*
X168528571Y-147700845D01*
X168528571Y-147700845D02*
X168414286Y-147643702D01*
X168414286Y-147643702D02*
X168185714Y-147643702D01*
X168185714Y-147643702D02*
X168071428Y-147700845D01*
X168071428Y-147700845D02*
X168014286Y-147815131D01*
X168014286Y-147815131D02*
X168014286Y-147929417D01*
X168014286Y-147929417D02*
X168585714Y-148043702D01*
X167500000Y-148443702D02*
X167500000Y-147643702D01*
X167500000Y-147872274D02*
X167442857Y-147757988D01*
X167442857Y-147757988D02*
X167385715Y-147700845D01*
X167385715Y-147700845D02*
X167271429Y-147643702D01*
X167271429Y-147643702D02*
X167157143Y-147643702D01*
X165900000Y-147186560D02*
X166928572Y-148729417D01*
X165271429Y-147243702D02*
X165042857Y-147243702D01*
X165042857Y-147243702D02*
X164928572Y-147300845D01*
X164928572Y-147300845D02*
X164814286Y-147415131D01*
X164814286Y-147415131D02*
X164757143Y-147643702D01*
X164757143Y-147643702D02*
X164757143Y-148043702D01*
X164757143Y-148043702D02*
X164814286Y-148272274D01*
X164814286Y-148272274D02*
X164928572Y-148386560D01*
X164928572Y-148386560D02*
X165042857Y-148443702D01*
X165042857Y-148443702D02*
X165271429Y-148443702D01*
X165271429Y-148443702D02*
X165385715Y-148386560D01*
X165385715Y-148386560D02*
X165500000Y-148272274D01*
X165500000Y-148272274D02*
X165557143Y-148043702D01*
X165557143Y-148043702D02*
X165557143Y-147643702D01*
X165557143Y-147643702D02*
X165500000Y-147415131D01*
X165500000Y-147415131D02*
X165385715Y-147300845D01*
X165385715Y-147300845D02*
X165271429Y-147243702D01*
X164242857Y-147643702D02*
X164242857Y-148843702D01*
X164242857Y-147700845D02*
X164128572Y-147643702D01*
X164128572Y-147643702D02*
X163900000Y-147643702D01*
X163900000Y-147643702D02*
X163785714Y-147700845D01*
X163785714Y-147700845D02*
X163728572Y-147757988D01*
X163728572Y-147757988D02*
X163671429Y-147872274D01*
X163671429Y-147872274D02*
X163671429Y-148215131D01*
X163671429Y-148215131D02*
X163728572Y-148329417D01*
X163728572Y-148329417D02*
X163785714Y-148386560D01*
X163785714Y-148386560D02*
X163900000Y-148443702D01*
X163900000Y-148443702D02*
X164128572Y-148443702D01*
X164128572Y-148443702D02*
X164242857Y-148386560D01*
X162700000Y-148386560D02*
X162814286Y-148443702D01*
X162814286Y-148443702D02*
X163042858Y-148443702D01*
X163042858Y-148443702D02*
X163157143Y-148386560D01*
X163157143Y-148386560D02*
X163214286Y-148272274D01*
X163214286Y-148272274D02*
X163214286Y-147815131D01*
X163214286Y-147815131D02*
X163157143Y-147700845D01*
X163157143Y-147700845D02*
X163042858Y-147643702D01*
X163042858Y-147643702D02*
X162814286Y-147643702D01*
X162814286Y-147643702D02*
X162700000Y-147700845D01*
X162700000Y-147700845D02*
X162642858Y-147815131D01*
X162642858Y-147815131D02*
X162642858Y-147929417D01*
X162642858Y-147929417D02*
X163214286Y-148043702D01*
X162128572Y-147643702D02*
X162128572Y-148443702D01*
X162128572Y-147757988D02*
X162071429Y-147700845D01*
X162071429Y-147700845D02*
X161957144Y-147643702D01*
X161957144Y-147643702D02*
X161785715Y-147643702D01*
X161785715Y-147643702D02*
X161671429Y-147700845D01*
X161671429Y-147700845D02*
X161614287Y-147815131D01*
X161614287Y-147815131D02*
X161614287Y-148443702D01*
X161042858Y-148443702D02*
X161042858Y-147243702D01*
X161042858Y-147815131D02*
X160357144Y-147815131D01*
X160357144Y-148443702D02*
X160357144Y-147243702D01*
X159271430Y-148443702D02*
X159271430Y-147815131D01*
X159271430Y-147815131D02*
X159328572Y-147700845D01*
X159328572Y-147700845D02*
X159442858Y-147643702D01*
X159442858Y-147643702D02*
X159671430Y-147643702D01*
X159671430Y-147643702D02*
X159785715Y-147700845D01*
X159271430Y-148386560D02*
X159385715Y-148443702D01*
X159385715Y-148443702D02*
X159671430Y-148443702D01*
X159671430Y-148443702D02*
X159785715Y-148386560D01*
X159785715Y-148386560D02*
X159842858Y-148272274D01*
X159842858Y-148272274D02*
X159842858Y-148157988D01*
X159842858Y-148157988D02*
X159785715Y-148043702D01*
X159785715Y-148043702D02*
X159671430Y-147986560D01*
X159671430Y-147986560D02*
X159385715Y-147986560D01*
X159385715Y-147986560D02*
X159271430Y-147929417D01*
X158700001Y-147643702D02*
X158700001Y-148443702D01*
X158700001Y-147757988D02*
X158642858Y-147700845D01*
X158642858Y-147700845D02*
X158528573Y-147643702D01*
X158528573Y-147643702D02*
X158357144Y-147643702D01*
X158357144Y-147643702D02*
X158242858Y-147700845D01*
X158242858Y-147700845D02*
X158185716Y-147815131D01*
X158185716Y-147815131D02*
X158185716Y-148443702D01*
X157100002Y-148443702D02*
X157100002Y-147243702D01*
X157100002Y-148386560D02*
X157214287Y-148443702D01*
X157214287Y-148443702D02*
X157442859Y-148443702D01*
X157442859Y-148443702D02*
X157557144Y-148386560D01*
X157557144Y-148386560D02*
X157614287Y-148329417D01*
X157614287Y-148329417D02*
X157671430Y-148215131D01*
X157671430Y-148215131D02*
X157671430Y-147872274D01*
X157671430Y-147872274D02*
X157614287Y-147757988D01*
X157614287Y-147757988D02*
X157557144Y-147700845D01*
X157557144Y-147700845D02*
X157442859Y-147643702D01*
X157442859Y-147643702D02*
X157214287Y-147643702D01*
X157214287Y-147643702D02*
X157100002Y-147700845D01*
D11*
X137583333Y-103748033D02*
X137550000Y-103714700D01*
X137550000Y-103714700D02*
X137450000Y-103681366D01*
X137450000Y-103681366D02*
X137383333Y-103681366D01*
X137383333Y-103681366D02*
X137283333Y-103714700D01*
X137283333Y-103714700D02*
X137216667Y-103781366D01*
X137216667Y-103781366D02*
X137183333Y-103848033D01*
X137183333Y-103848033D02*
X137150000Y-103981366D01*
X137150000Y-103981366D02*
X137150000Y-104081366D01*
X137150000Y-104081366D02*
X137183333Y-104214700D01*
X137183333Y-104214700D02*
X137216667Y-104281366D01*
X137216667Y-104281366D02*
X137283333Y-104348033D01*
X137283333Y-104348033D02*
X137383333Y-104381366D01*
X137383333Y-104381366D02*
X137450000Y-104381366D01*
X137450000Y-104381366D02*
X137550000Y-104348033D01*
X137550000Y-104348033D02*
X137583333Y-104314700D01*
X138216667Y-103681366D02*
X137883333Y-103681366D01*
X137883333Y-103681366D02*
X137883333Y-104381366D01*
X138450000Y-103681366D02*
X138450000Y-104381366D01*
X138850000Y-103681366D02*
X138550000Y-104081366D01*
X138850000Y-104381366D02*
X138450000Y-103981366D01*
D10*
X128866667Y-103950633D02*
X128800000Y-103983966D01*
X128800000Y-103983966D02*
X128700000Y-103983966D01*
X128700000Y-103983966D02*
X128600000Y-103950633D01*
X128600000Y-103950633D02*
X128533334Y-103883966D01*
X128533334Y-103883966D02*
X128500000Y-103817300D01*
X128500000Y-103817300D02*
X128466667Y-103683966D01*
X128466667Y-103683966D02*
X128466667Y-103583966D01*
X128466667Y-103583966D02*
X128500000Y-103450633D01*
X128500000Y-103450633D02*
X128533334Y-103383966D01*
X128533334Y-103383966D02*
X128600000Y-103317300D01*
X128600000Y-103317300D02*
X128700000Y-103283966D01*
X128700000Y-103283966D02*
X128766667Y-103283966D01*
X128766667Y-103283966D02*
X128866667Y-103317300D01*
X128866667Y-103317300D02*
X128900000Y-103350633D01*
X128900000Y-103350633D02*
X128900000Y-103583966D01*
X128900000Y-103583966D02*
X128766667Y-103583966D01*
X129200000Y-103283966D02*
X129200000Y-103983966D01*
X129200000Y-103983966D02*
X129600000Y-103283966D01*
X129600000Y-103283966D02*
X129600000Y-103983966D01*
X129933333Y-103283966D02*
X129933333Y-103983966D01*
X129933333Y-103983966D02*
X130100000Y-103983966D01*
X130100000Y-103983966D02*
X130200000Y-103950633D01*
X130200000Y-103950633D02*
X130266667Y-103883966D01*
X130266667Y-103883966D02*
X130300000Y-103817300D01*
X130300000Y-103817300D02*
X130333333Y-103683966D01*
X130333333Y-103683966D02*
X130333333Y-103583966D01*
X130333333Y-103583966D02*
X130300000Y-103450633D01*
X130300000Y-103450633D02*
X130266667Y-103383966D01*
X130266667Y-103383966D02*
X130200000Y-103317300D01*
X130200000Y-103317300D02*
X130100000Y-103283966D01*
X130100000Y-103283966D02*
X129933333Y-103283966D01*
X130086033Y-138843333D02*
X129386033Y-138843333D01*
X129386033Y-138843333D02*
X129386033Y-139110000D01*
X129386033Y-139110000D02*
X129419366Y-139176667D01*
X129419366Y-139176667D02*
X129452700Y-139210000D01*
X129452700Y-139210000D02*
X129519366Y-139243333D01*
X129519366Y-139243333D02*
X129619366Y-139243333D01*
X129619366Y-139243333D02*
X129686033Y-139210000D01*
X129686033Y-139210000D02*
X129719366Y-139176667D01*
X129719366Y-139176667D02*
X129752700Y-139110000D01*
X129752700Y-139110000D02*
X129752700Y-138843333D01*
X130019366Y-139943333D02*
X130052700Y-139910000D01*
X130052700Y-139910000D02*
X130086033Y-139810000D01*
X130086033Y-139810000D02*
X130086033Y-139743333D01*
X130086033Y-139743333D02*
X130052700Y-139643333D01*
X130052700Y-139643333D02*
X129986033Y-139576667D01*
X129986033Y-139576667D02*
X129919366Y-139543333D01*
X129919366Y-139543333D02*
X129786033Y-139510000D01*
X129786033Y-139510000D02*
X129686033Y-139510000D01*
X129686033Y-139510000D02*
X129552700Y-139543333D01*
X129552700Y-139543333D02*
X129486033Y-139576667D01*
X129486033Y-139576667D02*
X129419366Y-139643333D01*
X129419366Y-139643333D02*
X129386033Y-139743333D01*
X129386033Y-139743333D02*
X129386033Y-139810000D01*
X129386033Y-139810000D02*
X129419366Y-139910000D01*
X129419366Y-139910000D02*
X129452700Y-139943333D01*
X129386033Y-140576667D02*
X129386033Y-140243333D01*
X129386033Y-140243333D02*
X129719366Y-140210000D01*
X129719366Y-140210000D02*
X129686033Y-140243333D01*
X129686033Y-140243333D02*
X129652700Y-140310000D01*
X129652700Y-140310000D02*
X129652700Y-140476667D01*
X129652700Y-140476667D02*
X129686033Y-140543333D01*
X129686033Y-140543333D02*
X129719366Y-140576667D01*
X129719366Y-140576667D02*
X129786033Y-140610000D01*
X129786033Y-140610000D02*
X129952700Y-140610000D01*
X129952700Y-140610000D02*
X130019366Y-140576667D01*
X130019366Y-140576667D02*
X130052700Y-140543333D01*
X130052700Y-140543333D02*
X130086033Y-140476667D01*
X130086033Y-140476667D02*
X130086033Y-140310000D01*
X130086033Y-140310000D02*
X130052700Y-140243333D01*
X130052700Y-140243333D02*
X130019366Y-140210000D01*
X160799999Y-141349366D02*
X160266666Y-141349366D01*
X158333333Y-141349366D02*
X157800000Y-141349366D01*
X158066666Y-141616033D02*
X158066666Y-141082700D01*
X137071033Y-138913333D02*
X136371033Y-138913333D01*
X136371033Y-138913333D02*
X136371033Y-139180000D01*
X136371033Y-139180000D02*
X136404366Y-139246667D01*
X136404366Y-139246667D02*
X136437700Y-139280000D01*
X136437700Y-139280000D02*
X136504366Y-139313333D01*
X136504366Y-139313333D02*
X136604366Y-139313333D01*
X136604366Y-139313333D02*
X136671033Y-139280000D01*
X136671033Y-139280000D02*
X136704366Y-139246667D01*
X136704366Y-139246667D02*
X136737700Y-139180000D01*
X136737700Y-139180000D02*
X136737700Y-138913333D01*
X136704366Y-139846667D02*
X136737700Y-139946667D01*
X136737700Y-139946667D02*
X136771033Y-139980000D01*
X136771033Y-139980000D02*
X136837700Y-140013333D01*
X136837700Y-140013333D02*
X136937700Y-140013333D01*
X136937700Y-140013333D02*
X137004366Y-139980000D01*
X137004366Y-139980000D02*
X137037700Y-139946667D01*
X137037700Y-139946667D02*
X137071033Y-139880000D01*
X137071033Y-139880000D02*
X137071033Y-139613333D01*
X137071033Y-139613333D02*
X136371033Y-139613333D01*
X136371033Y-139613333D02*
X136371033Y-139846667D01*
X136371033Y-139846667D02*
X136404366Y-139913333D01*
X136404366Y-139913333D02*
X136437700Y-139946667D01*
X136437700Y-139946667D02*
X136504366Y-139980000D01*
X136504366Y-139980000D02*
X136571033Y-139980000D01*
X136571033Y-139980000D02*
X136637700Y-139946667D01*
X136637700Y-139946667D02*
X136671033Y-139913333D01*
X136671033Y-139913333D02*
X136704366Y-139846667D01*
X136704366Y-139846667D02*
X136704366Y-139613333D01*
X136604366Y-140613333D02*
X137071033Y-140613333D01*
X136337700Y-140446667D02*
X136837700Y-140280000D01*
X136837700Y-140280000D02*
X136837700Y-140713333D01*
X149166666Y-141168483D02*
X148633333Y-141168483D01*
X148899999Y-141435150D02*
X148899999Y-140901817D01*
X149066666Y-143489072D02*
X148733333Y-143489072D01*
X149133333Y-143689072D02*
X148900000Y-142989072D01*
X148900000Y-142989072D02*
X148666666Y-143689072D01*
X148850000Y-145576327D02*
X148750000Y-145609661D01*
X148750000Y-145609661D02*
X148716666Y-145642994D01*
X148716666Y-145642994D02*
X148683333Y-145709661D01*
X148683333Y-145709661D02*
X148683333Y-145809661D01*
X148683333Y-145809661D02*
X148716666Y-145876327D01*
X148716666Y-145876327D02*
X148750000Y-145909661D01*
X148750000Y-145909661D02*
X148816666Y-145942994D01*
X148816666Y-145942994D02*
X149083333Y-145942994D01*
X149083333Y-145942994D02*
X149083333Y-145242994D01*
X149083333Y-145242994D02*
X148850000Y-145242994D01*
X148850000Y-145242994D02*
X148783333Y-145276327D01*
X148783333Y-145276327D02*
X148750000Y-145309661D01*
X148750000Y-145309661D02*
X148716666Y-145376327D01*
X148716666Y-145376327D02*
X148716666Y-145442994D01*
X148716666Y-145442994D02*
X148750000Y-145509661D01*
X148750000Y-145509661D02*
X148783333Y-145542994D01*
X148783333Y-145542994D02*
X148850000Y-145576327D01*
X148850000Y-145576327D02*
X149083333Y-145576327D01*
X149166666Y-147930249D02*
X148633333Y-147930249D01*
X163167033Y-119213333D02*
X162833700Y-118980000D01*
X163167033Y-118813333D02*
X162467033Y-118813333D01*
X162467033Y-118813333D02*
X162467033Y-119080000D01*
X162467033Y-119080000D02*
X162500366Y-119146667D01*
X162500366Y-119146667D02*
X162533700Y-119180000D01*
X162533700Y-119180000D02*
X162600366Y-119213333D01*
X162600366Y-119213333D02*
X162700366Y-119213333D01*
X162700366Y-119213333D02*
X162767033Y-119180000D01*
X162767033Y-119180000D02*
X162800366Y-119146667D01*
X162800366Y-119146667D02*
X162833700Y-119080000D01*
X162833700Y-119080000D02*
X162833700Y-118813333D01*
X162467033Y-119446667D02*
X163167033Y-119913333D01*
X162467033Y-119913333D02*
X163167033Y-119446667D01*
X137071033Y-141383333D02*
X136371033Y-141383333D01*
X136371033Y-141383333D02*
X136371033Y-141650000D01*
X136371033Y-141650000D02*
X136404366Y-141716667D01*
X136404366Y-141716667D02*
X136437700Y-141750000D01*
X136437700Y-141750000D02*
X136504366Y-141783333D01*
X136504366Y-141783333D02*
X136604366Y-141783333D01*
X136604366Y-141783333D02*
X136671033Y-141750000D01*
X136671033Y-141750000D02*
X136704366Y-141716667D01*
X136704366Y-141716667D02*
X136737700Y-141650000D01*
X136737700Y-141650000D02*
X136737700Y-141383333D01*
X136704366Y-142316667D02*
X136737700Y-142416667D01*
X136737700Y-142416667D02*
X136771033Y-142450000D01*
X136771033Y-142450000D02*
X136837700Y-142483333D01*
X136837700Y-142483333D02*
X136937700Y-142483333D01*
X136937700Y-142483333D02*
X137004366Y-142450000D01*
X137004366Y-142450000D02*
X137037700Y-142416667D01*
X137037700Y-142416667D02*
X137071033Y-142350000D01*
X137071033Y-142350000D02*
X137071033Y-142083333D01*
X137071033Y-142083333D02*
X136371033Y-142083333D01*
X136371033Y-142083333D02*
X136371033Y-142316667D01*
X136371033Y-142316667D02*
X136404366Y-142383333D01*
X136404366Y-142383333D02*
X136437700Y-142416667D01*
X136437700Y-142416667D02*
X136504366Y-142450000D01*
X136504366Y-142450000D02*
X136571033Y-142450000D01*
X136571033Y-142450000D02*
X136637700Y-142416667D01*
X136637700Y-142416667D02*
X136671033Y-142383333D01*
X136671033Y-142383333D02*
X136704366Y-142316667D01*
X136704366Y-142316667D02*
X136704366Y-142083333D01*
X136371033Y-143116667D02*
X136371033Y-142783333D01*
X136371033Y-142783333D02*
X136704366Y-142750000D01*
X136704366Y-142750000D02*
X136671033Y-142783333D01*
X136671033Y-142783333D02*
X136637700Y-142850000D01*
X136637700Y-142850000D02*
X136637700Y-143016667D01*
X136637700Y-143016667D02*
X136671033Y-143083333D01*
X136671033Y-143083333D02*
X136704366Y-143116667D01*
X136704366Y-143116667D02*
X136771033Y-143150000D01*
X136771033Y-143150000D02*
X136937700Y-143150000D01*
X136937700Y-143150000D02*
X137004366Y-143116667D01*
X137004366Y-143116667D02*
X137037700Y-143083333D01*
X137037700Y-143083333D02*
X137071033Y-143016667D01*
X137071033Y-143016667D02*
X137071033Y-142850000D01*
X137071033Y-142850000D02*
X137037700Y-142783333D01*
X137037700Y-142783333D02*
X137004366Y-142750000D01*
X133261033Y-141049999D02*
X132561033Y-141049999D01*
X132561033Y-141049999D02*
X132561033Y-141316666D01*
X132561033Y-141316666D02*
X132594366Y-141383333D01*
X132594366Y-141383333D02*
X132627700Y-141416666D01*
X132627700Y-141416666D02*
X132694366Y-141449999D01*
X132694366Y-141449999D02*
X132794366Y-141449999D01*
X132794366Y-141449999D02*
X132861033Y-141416666D01*
X132861033Y-141416666D02*
X132894366Y-141383333D01*
X132894366Y-141383333D02*
X132927700Y-141316666D01*
X132927700Y-141316666D02*
X132927700Y-141049999D01*
X133194366Y-142149999D02*
X133227700Y-142116666D01*
X133227700Y-142116666D02*
X133261033Y-142016666D01*
X133261033Y-142016666D02*
X133261033Y-141949999D01*
X133261033Y-141949999D02*
X133227700Y-141849999D01*
X133227700Y-141849999D02*
X133161033Y-141783333D01*
X133161033Y-141783333D02*
X133094366Y-141749999D01*
X133094366Y-141749999D02*
X132961033Y-141716666D01*
X132961033Y-141716666D02*
X132861033Y-141716666D01*
X132861033Y-141716666D02*
X132727700Y-141749999D01*
X132727700Y-141749999D02*
X132661033Y-141783333D01*
X132661033Y-141783333D02*
X132594366Y-141849999D01*
X132594366Y-141849999D02*
X132561033Y-141949999D01*
X132561033Y-141949999D02*
X132561033Y-142016666D01*
X132561033Y-142016666D02*
X132594366Y-142116666D01*
X132594366Y-142116666D02*
X132627700Y-142149999D01*
X133261033Y-142816666D02*
X133261033Y-142416666D01*
X133261033Y-142616666D02*
X132561033Y-142616666D01*
X132561033Y-142616666D02*
X132661033Y-142549999D01*
X132661033Y-142549999D02*
X132727700Y-142483333D01*
X132727700Y-142483333D02*
X132761033Y-142416666D01*
X132561033Y-143050000D02*
X132561033Y-143483333D01*
X132561033Y-143483333D02*
X132827700Y-143250000D01*
X132827700Y-143250000D02*
X132827700Y-143350000D01*
X132827700Y-143350000D02*
X132861033Y-143416666D01*
X132861033Y-143416666D02*
X132894366Y-143450000D01*
X132894366Y-143450000D02*
X132961033Y-143483333D01*
X132961033Y-143483333D02*
X133127700Y-143483333D01*
X133127700Y-143483333D02*
X133194366Y-143450000D01*
X133194366Y-143450000D02*
X133227700Y-143416666D01*
X133227700Y-143416666D02*
X133261033Y-143350000D01*
X133261033Y-143350000D02*
X133261033Y-143150000D01*
X133261033Y-143150000D02*
X133227700Y-143083333D01*
X133227700Y-143083333D02*
X133194366Y-143050000D01*
X137071033Y-136303333D02*
X136371033Y-136303333D01*
X136371033Y-136303333D02*
X136371033Y-136570000D01*
X136371033Y-136570000D02*
X136404366Y-136636667D01*
X136404366Y-136636667D02*
X136437700Y-136670000D01*
X136437700Y-136670000D02*
X136504366Y-136703333D01*
X136504366Y-136703333D02*
X136604366Y-136703333D01*
X136604366Y-136703333D02*
X136671033Y-136670000D01*
X136671033Y-136670000D02*
X136704366Y-136636667D01*
X136704366Y-136636667D02*
X136737700Y-136570000D01*
X136737700Y-136570000D02*
X136737700Y-136303333D01*
X136704366Y-137236667D02*
X136737700Y-137336667D01*
X136737700Y-137336667D02*
X136771033Y-137370000D01*
X136771033Y-137370000D02*
X136837700Y-137403333D01*
X136837700Y-137403333D02*
X136937700Y-137403333D01*
X136937700Y-137403333D02*
X137004366Y-137370000D01*
X137004366Y-137370000D02*
X137037700Y-137336667D01*
X137037700Y-137336667D02*
X137071033Y-137270000D01*
X137071033Y-137270000D02*
X137071033Y-137003333D01*
X137071033Y-137003333D02*
X136371033Y-137003333D01*
X136371033Y-137003333D02*
X136371033Y-137236667D01*
X136371033Y-137236667D02*
X136404366Y-137303333D01*
X136404366Y-137303333D02*
X136437700Y-137336667D01*
X136437700Y-137336667D02*
X136504366Y-137370000D01*
X136504366Y-137370000D02*
X136571033Y-137370000D01*
X136571033Y-137370000D02*
X136637700Y-137336667D01*
X136637700Y-137336667D02*
X136671033Y-137303333D01*
X136671033Y-137303333D02*
X136704366Y-137236667D01*
X136704366Y-137236667D02*
X136704366Y-137003333D01*
X136371033Y-137636667D02*
X136371033Y-138070000D01*
X136371033Y-138070000D02*
X136637700Y-137836667D01*
X136637700Y-137836667D02*
X136637700Y-137936667D01*
X136637700Y-137936667D02*
X136671033Y-138003333D01*
X136671033Y-138003333D02*
X136704366Y-138036667D01*
X136704366Y-138036667D02*
X136771033Y-138070000D01*
X136771033Y-138070000D02*
X136937700Y-138070000D01*
X136937700Y-138070000D02*
X137004366Y-138036667D01*
X137004366Y-138036667D02*
X137037700Y-138003333D01*
X137037700Y-138003333D02*
X137071033Y-137936667D01*
X137071033Y-137936667D02*
X137071033Y-137736667D01*
X137071033Y-137736667D02*
X137037700Y-137670000D01*
X137037700Y-137670000D02*
X137004366Y-137636667D01*
X188416666Y-141349366D02*
X187883333Y-141349366D01*
X187083333Y-140916033D02*
X186649999Y-140916033D01*
X186649999Y-140916033D02*
X186883333Y-141182700D01*
X186883333Y-141182700D02*
X186783333Y-141182700D01*
X186783333Y-141182700D02*
X186716666Y-141216033D01*
X186716666Y-141216033D02*
X186683333Y-141249366D01*
X186683333Y-141249366D02*
X186649999Y-141316033D01*
X186649999Y-141316033D02*
X186649999Y-141482700D01*
X186649999Y-141482700D02*
X186683333Y-141549366D01*
X186683333Y-141549366D02*
X186716666Y-141582700D01*
X186716666Y-141582700D02*
X186783333Y-141616033D01*
X186783333Y-141616033D02*
X186983333Y-141616033D01*
X186983333Y-141616033D02*
X187049999Y-141582700D01*
X187049999Y-141582700D02*
X187083333Y-141549366D01*
X185816666Y-141349366D02*
X185283333Y-141349366D01*
X185549999Y-141616033D02*
X185549999Y-141082700D01*
X144166666Y-141168483D02*
X143633333Y-141168483D01*
X143899999Y-141435150D02*
X143899999Y-140901817D01*
X144066666Y-143489072D02*
X143733333Y-143489072D01*
X144133333Y-143689072D02*
X143900000Y-142989072D01*
X143900000Y-142989072D02*
X143666666Y-143689072D01*
X143850000Y-145576327D02*
X143750000Y-145609661D01*
X143750000Y-145609661D02*
X143716666Y-145642994D01*
X143716666Y-145642994D02*
X143683333Y-145709661D01*
X143683333Y-145709661D02*
X143683333Y-145809661D01*
X143683333Y-145809661D02*
X143716666Y-145876327D01*
X143716666Y-145876327D02*
X143750000Y-145909661D01*
X143750000Y-145909661D02*
X143816666Y-145942994D01*
X143816666Y-145942994D02*
X144083333Y-145942994D01*
X144083333Y-145942994D02*
X144083333Y-145242994D01*
X144083333Y-145242994D02*
X143850000Y-145242994D01*
X143850000Y-145242994D02*
X143783333Y-145276327D01*
X143783333Y-145276327D02*
X143750000Y-145309661D01*
X143750000Y-145309661D02*
X143716666Y-145376327D01*
X143716666Y-145376327D02*
X143716666Y-145442994D01*
X143716666Y-145442994D02*
X143750000Y-145509661D01*
X143750000Y-145509661D02*
X143783333Y-145542994D01*
X143783333Y-145542994D02*
X143850000Y-145576327D01*
X143850000Y-145576327D02*
X144083333Y-145576327D01*
X144166666Y-147930249D02*
X143633333Y-147930249D01*
X108599999Y-103450633D02*
X109133333Y-103450633D01*
X109800000Y-103883966D02*
X109466666Y-103883966D01*
X109466666Y-103883966D02*
X109433333Y-103550633D01*
X109433333Y-103550633D02*
X109466666Y-103583966D01*
X109466666Y-103583966D02*
X109533333Y-103617300D01*
X109533333Y-103617300D02*
X109700000Y-103617300D01*
X109700000Y-103617300D02*
X109766666Y-103583966D01*
X109766666Y-103583966D02*
X109800000Y-103550633D01*
X109800000Y-103550633D02*
X109833333Y-103483966D01*
X109833333Y-103483966D02*
X109833333Y-103317300D01*
X109833333Y-103317300D02*
X109800000Y-103250633D01*
X109800000Y-103250633D02*
X109766666Y-103217300D01*
X109766666Y-103217300D02*
X109700000Y-103183966D01*
X109700000Y-103183966D02*
X109533333Y-103183966D01*
X109533333Y-103183966D02*
X109466666Y-103217300D01*
X109466666Y-103217300D02*
X109433333Y-103250633D01*
X110033333Y-103883966D02*
X110266667Y-103183966D01*
X110266667Y-103183966D02*
X110500000Y-103883966D01*
X185500000Y-108950633D02*
X186033334Y-108950633D01*
X187966666Y-108950633D02*
X188500000Y-108950633D01*
X188233333Y-108683966D02*
X188233333Y-109217300D01*
X162466667Y-103950633D02*
X162400000Y-103983966D01*
X162400000Y-103983966D02*
X162300000Y-103983966D01*
X162300000Y-103983966D02*
X162200000Y-103950633D01*
X162200000Y-103950633D02*
X162133334Y-103883966D01*
X162133334Y-103883966D02*
X162100000Y-103817300D01*
X162100000Y-103817300D02*
X162066667Y-103683966D01*
X162066667Y-103683966D02*
X162066667Y-103583966D01*
X162066667Y-103583966D02*
X162100000Y-103450633D01*
X162100000Y-103450633D02*
X162133334Y-103383966D01*
X162133334Y-103383966D02*
X162200000Y-103317300D01*
X162200000Y-103317300D02*
X162300000Y-103283966D01*
X162300000Y-103283966D02*
X162366667Y-103283966D01*
X162366667Y-103283966D02*
X162466667Y-103317300D01*
X162466667Y-103317300D02*
X162500000Y-103350633D01*
X162500000Y-103350633D02*
X162500000Y-103583966D01*
X162500000Y-103583966D02*
X162366667Y-103583966D01*
X162800000Y-103283966D02*
X162800000Y-103983966D01*
X162800000Y-103983966D02*
X163200000Y-103283966D01*
X163200000Y-103283966D02*
X163200000Y-103983966D01*
X163533333Y-103283966D02*
X163533333Y-103983966D01*
X163533333Y-103983966D02*
X163700000Y-103983966D01*
X163700000Y-103983966D02*
X163800000Y-103950633D01*
X163800000Y-103950633D02*
X163866667Y-103883966D01*
X163866667Y-103883966D02*
X163900000Y-103817300D01*
X163900000Y-103817300D02*
X163933333Y-103683966D01*
X163933333Y-103683966D02*
X163933333Y-103583966D01*
X163933333Y-103583966D02*
X163900000Y-103450633D01*
X163900000Y-103450633D02*
X163866667Y-103383966D01*
X163866667Y-103383966D02*
X163800000Y-103317300D01*
X163800000Y-103317300D02*
X163700000Y-103283966D01*
X163700000Y-103283966D02*
X163533333Y-103283966D01*
X128216033Y-124116666D02*
X127516033Y-124116666D01*
X127582700Y-124416666D02*
X127549366Y-124449999D01*
X127549366Y-124449999D02*
X127516033Y-124516666D01*
X127516033Y-124516666D02*
X127516033Y-124683333D01*
X127516033Y-124683333D02*
X127549366Y-124749999D01*
X127549366Y-124749999D02*
X127582700Y-124783333D01*
X127582700Y-124783333D02*
X127649366Y-124816666D01*
X127649366Y-124816666D02*
X127716033Y-124816666D01*
X127716033Y-124816666D02*
X127816033Y-124783333D01*
X127816033Y-124783333D02*
X128216033Y-124383333D01*
X128216033Y-124383333D02*
X128216033Y-124816666D01*
X128149366Y-125516666D02*
X128182700Y-125483333D01*
X128182700Y-125483333D02*
X128216033Y-125383333D01*
X128216033Y-125383333D02*
X128216033Y-125316666D01*
X128216033Y-125316666D02*
X128182700Y-125216666D01*
X128182700Y-125216666D02*
X128116033Y-125150000D01*
X128116033Y-125150000D02*
X128049366Y-125116666D01*
X128049366Y-125116666D02*
X127916033Y-125083333D01*
X127916033Y-125083333D02*
X127816033Y-125083333D01*
X127816033Y-125083333D02*
X127682700Y-125116666D01*
X127682700Y-125116666D02*
X127616033Y-125150000D01*
X127616033Y-125150000D02*
X127549366Y-125216666D01*
X127549366Y-125216666D02*
X127516033Y-125316666D01*
X127516033Y-125316666D02*
X127516033Y-125383333D01*
X127516033Y-125383333D02*
X127549366Y-125483333D01*
X127549366Y-125483333D02*
X127582700Y-125516666D01*
X130086033Y-143589999D02*
X129386033Y-143589999D01*
X129386033Y-143589999D02*
X129386033Y-143856666D01*
X129386033Y-143856666D02*
X129419366Y-143923333D01*
X129419366Y-143923333D02*
X129452700Y-143956666D01*
X129452700Y-143956666D02*
X129519366Y-143989999D01*
X129519366Y-143989999D02*
X129619366Y-143989999D01*
X129619366Y-143989999D02*
X129686033Y-143956666D01*
X129686033Y-143956666D02*
X129719366Y-143923333D01*
X129719366Y-143923333D02*
X129752700Y-143856666D01*
X129752700Y-143856666D02*
X129752700Y-143589999D01*
X130019366Y-144689999D02*
X130052700Y-144656666D01*
X130052700Y-144656666D02*
X130086033Y-144556666D01*
X130086033Y-144556666D02*
X130086033Y-144489999D01*
X130086033Y-144489999D02*
X130052700Y-144389999D01*
X130052700Y-144389999D02*
X129986033Y-144323333D01*
X129986033Y-144323333D02*
X129919366Y-144289999D01*
X129919366Y-144289999D02*
X129786033Y-144256666D01*
X129786033Y-144256666D02*
X129686033Y-144256666D01*
X129686033Y-144256666D02*
X129552700Y-144289999D01*
X129552700Y-144289999D02*
X129486033Y-144323333D01*
X129486033Y-144323333D02*
X129419366Y-144389999D01*
X129419366Y-144389999D02*
X129386033Y-144489999D01*
X129386033Y-144489999D02*
X129386033Y-144556666D01*
X129386033Y-144556666D02*
X129419366Y-144656666D01*
X129419366Y-144656666D02*
X129452700Y-144689999D01*
X130086033Y-145356666D02*
X130086033Y-144956666D01*
X130086033Y-145156666D02*
X129386033Y-145156666D01*
X129386033Y-145156666D02*
X129486033Y-145089999D01*
X129486033Y-145089999D02*
X129552700Y-145023333D01*
X129552700Y-145023333D02*
X129586033Y-144956666D01*
X129619366Y-145956666D02*
X130086033Y-145956666D01*
X129352700Y-145790000D02*
X129852700Y-145623333D01*
X129852700Y-145623333D02*
X129852700Y-146056666D01*
X103883966Y-132049998D02*
X104583966Y-132049998D01*
X104583966Y-132049998D02*
X103883966Y-131649998D01*
X103883966Y-131649998D02*
X104583966Y-131649998D01*
X103883966Y-129183333D02*
X104583966Y-129183333D01*
X104583966Y-129183333D02*
X104583966Y-128916666D01*
X104583966Y-128916666D02*
X104550633Y-128850000D01*
X104550633Y-128850000D02*
X104517300Y-128816666D01*
X104517300Y-128816666D02*
X104450633Y-128783333D01*
X104450633Y-128783333D02*
X104350633Y-128783333D01*
X104350633Y-128783333D02*
X104283966Y-128816666D01*
X104283966Y-128816666D02*
X104250633Y-128850000D01*
X104250633Y-128850000D02*
X104217300Y-128916666D01*
X104217300Y-128916666D02*
X104217300Y-129183333D01*
X104150633Y-126883334D02*
X104150633Y-126350001D01*
D11*
X140066667Y-104348033D02*
X140000000Y-104381366D01*
X140000000Y-104381366D02*
X139900000Y-104381366D01*
X139900000Y-104381366D02*
X139800000Y-104348033D01*
X139800000Y-104348033D02*
X139733334Y-104281366D01*
X139733334Y-104281366D02*
X139700000Y-104214700D01*
X139700000Y-104214700D02*
X139666667Y-104081366D01*
X139666667Y-104081366D02*
X139666667Y-103981366D01*
X139666667Y-103981366D02*
X139700000Y-103848033D01*
X139700000Y-103848033D02*
X139733334Y-103781366D01*
X139733334Y-103781366D02*
X139800000Y-103714700D01*
X139800000Y-103714700D02*
X139900000Y-103681366D01*
X139900000Y-103681366D02*
X139966667Y-103681366D01*
X139966667Y-103681366D02*
X140066667Y-103714700D01*
X140066667Y-103714700D02*
X140100000Y-103748033D01*
X140100000Y-103748033D02*
X140100000Y-103981366D01*
X140100000Y-103981366D02*
X139966667Y-103981366D01*
X140400000Y-103681366D02*
X140400000Y-104381366D01*
X140400000Y-104381366D02*
X140800000Y-103681366D01*
X140800000Y-103681366D02*
X140800000Y-104381366D01*
X141133333Y-103681366D02*
X141133333Y-104381366D01*
X141133333Y-104381366D02*
X141300000Y-104381366D01*
X141300000Y-104381366D02*
X141400000Y-104348033D01*
X141400000Y-104348033D02*
X141466667Y-104281366D01*
X141466667Y-104281366D02*
X141500000Y-104214700D01*
X141500000Y-104214700D02*
X141533333Y-104081366D01*
X141533333Y-104081366D02*
X141533333Y-103981366D01*
X141533333Y-103981366D02*
X141500000Y-103848033D01*
X141500000Y-103848033D02*
X141466667Y-103781366D01*
X141466667Y-103781366D02*
X141400000Y-103714700D01*
X141400000Y-103714700D02*
X141300000Y-103681366D01*
X141300000Y-103681366D02*
X141133333Y-103681366D01*
D13*
X134683333Y-103680716D02*
X134683333Y-104380716D01*
X134683333Y-104380716D02*
X134850000Y-104380716D01*
X134850000Y-104380716D02*
X134950000Y-104347383D01*
X134950000Y-104347383D02*
X135016667Y-104280716D01*
X135016667Y-104280716D02*
X135050000Y-104214050D01*
X135050000Y-104214050D02*
X135083333Y-104080716D01*
X135083333Y-104080716D02*
X135083333Y-103980716D01*
X135083333Y-103980716D02*
X135050000Y-103847383D01*
X135050000Y-103847383D02*
X135016667Y-103780716D01*
X135016667Y-103780716D02*
X134950000Y-103714050D01*
X134950000Y-103714050D02*
X134850000Y-103680716D01*
X134850000Y-103680716D02*
X134683333Y-103680716D01*
X135383333Y-103680716D02*
X135383333Y-104380716D01*
X135850000Y-104380716D02*
X135983333Y-104380716D01*
X135983333Y-104380716D02*
X136050000Y-104347383D01*
X136050000Y-104347383D02*
X136116666Y-104280716D01*
X136116666Y-104280716D02*
X136150000Y-104147383D01*
X136150000Y-104147383D02*
X136150000Y-103914050D01*
X136150000Y-103914050D02*
X136116666Y-103780716D01*
X136116666Y-103780716D02*
X136050000Y-103714050D01*
X136050000Y-103714050D02*
X135983333Y-103680716D01*
X135983333Y-103680716D02*
X135850000Y-103680716D01*
X135850000Y-103680716D02*
X135783333Y-103714050D01*
X135783333Y-103714050D02*
X135716666Y-103780716D01*
X135716666Y-103780716D02*
X135683333Y-103914050D01*
X135683333Y-103914050D02*
X135683333Y-104147383D01*
X135683333Y-104147383D02*
X135716666Y-104280716D01*
X135716666Y-104280716D02*
X135783333Y-104347383D01*
X135783333Y-104347383D02*
X135850000Y-104380716D01*
D10*
X137071033Y-146513333D02*
X136371033Y-146513333D01*
X136371033Y-146513333D02*
X136371033Y-146780000D01*
X136371033Y-146780000D02*
X136404366Y-146846667D01*
X136404366Y-146846667D02*
X136437700Y-146880000D01*
X136437700Y-146880000D02*
X136504366Y-146913333D01*
X136504366Y-146913333D02*
X136604366Y-146913333D01*
X136604366Y-146913333D02*
X136671033Y-146880000D01*
X136671033Y-146880000D02*
X136704366Y-146846667D01*
X136704366Y-146846667D02*
X136737700Y-146780000D01*
X136737700Y-146780000D02*
X136737700Y-146513333D01*
X136871033Y-147180000D02*
X136871033Y-147513333D01*
X137071033Y-147113333D02*
X136371033Y-147346667D01*
X136371033Y-147346667D02*
X137071033Y-147580000D01*
X136371033Y-147746667D02*
X136371033Y-148180000D01*
X136371033Y-148180000D02*
X136637700Y-147946667D01*
X136637700Y-147946667D02*
X136637700Y-148046667D01*
X136637700Y-148046667D02*
X136671033Y-148113333D01*
X136671033Y-148113333D02*
X136704366Y-148146667D01*
X136704366Y-148146667D02*
X136771033Y-148180000D01*
X136771033Y-148180000D02*
X136937700Y-148180000D01*
X136937700Y-148180000D02*
X137004366Y-148146667D01*
X137004366Y-148146667D02*
X137037700Y-148113333D01*
X137037700Y-148113333D02*
X137071033Y-148046667D01*
X137071033Y-148046667D02*
X137071033Y-147846667D01*
X137071033Y-147846667D02*
X137037700Y-147780000D01*
X137037700Y-147780000D02*
X137004366Y-147746667D01*
%LPC*%
D14*
%TO.C,H4*%
X192600000Y-145000000D03*
X193302944Y-143302944D03*
X193302944Y-146697056D03*
X195000000Y-142600000D03*
D15*
X195000000Y-145000000D03*
D14*
X195000000Y-147400000D03*
X196697056Y-143302944D03*
X196697056Y-146697056D03*
X197400000Y-145000000D03*
%TD*%
D16*
%TO.C,J1*%
X170350000Y-143035000D03*
D17*
X167850000Y-143035000D03*
%TD*%
D18*
%TO.C,TP18*%
X109600000Y-101800000D03*
%TD*%
%TO.C,TP17*%
X158850000Y-101850000D03*
%TD*%
D19*
%TO.C,J15*%
X146400000Y-148400000D03*
D20*
X146400000Y-145860000D03*
X146400000Y-143320000D03*
X146400000Y-140780000D03*
%TD*%
D18*
%TO.C,TP37*%
X135255000Y-144780000D03*
%TD*%
%TO.C,TP6*%
X108350000Y-129200000D03*
%TD*%
%TO.C,TP14*%
X131445000Y-144780000D03*
%TD*%
D14*
%TO.C,H1*%
X102600000Y-105000000D03*
X103302944Y-103302944D03*
X103302944Y-106697056D03*
X105000000Y-102600000D03*
D15*
X105000000Y-105000000D03*
D14*
X105000000Y-107400000D03*
X106697056Y-103302944D03*
X106697056Y-106697056D03*
X107400000Y-105000000D03*
%TD*%
D18*
%TO.C,TP41*%
X135255000Y-142240000D03*
%TD*%
%TO.C,TP1*%
X131445000Y-139700000D03*
%TD*%
%TO.C,TP13*%
X129300000Y-123460000D03*
%TD*%
%TO.C,TP39*%
X135255000Y-137160000D03*
%TD*%
%TO.C,TP40*%
X135255000Y-139700000D03*
%TD*%
%TO.C,TP2*%
X161200000Y-121870000D03*
%TD*%
%TO.C,TP4*%
X131445000Y-142240000D03*
%TD*%
%TO.C,TP38*%
X135255000Y-147320000D03*
%TD*%
D16*
%TO.C,J7*%
X160500000Y-143067500D03*
D17*
X158000000Y-143067500D03*
%TD*%
D19*
%TO.C,J16*%
X151400000Y-148400000D03*
D20*
X151400000Y-145860000D03*
X151400000Y-143320000D03*
X151400000Y-140780000D03*
%TD*%
D19*
%TO.C,J12*%
X140530000Y-102000000D03*
D20*
X137990000Y-102000000D03*
X135450000Y-102000000D03*
X132910000Y-102000000D03*
%TD*%
D18*
%TO.C,TP5*%
X131445000Y-137160000D03*
%TD*%
%TO.C,TP3*%
X161200000Y-119330000D03*
%TD*%
D19*
%TO.C,J11*%
X102300000Y-126700000D03*
D20*
X102300000Y-129240000D03*
X102300000Y-131780000D03*
%TD*%
D18*
%TO.C,TP36*%
X131445000Y-147320000D03*
%TD*%
D21*
%TO.C,J3*%
X185750000Y-107232500D03*
D17*
X188250000Y-107232500D03*
%TD*%
D14*
%TO.C,H3*%
X102600000Y-145000000D03*
X103302944Y-143302944D03*
X103302944Y-146697056D03*
X105000000Y-142600000D03*
D15*
X105000000Y-145000000D03*
D14*
X105000000Y-147400000D03*
X106697056Y-143302944D03*
X106697056Y-146697056D03*
X107400000Y-145000000D03*
%TD*%
D18*
%TO.C,TP12*%
X129300000Y-126000000D03*
%TD*%
D22*
%TO.C,J5*%
X152890000Y-106605000D03*
X147110000Y-106605000D03*
D23*
X154320000Y-107125000D03*
D24*
X154320000Y-102925000D03*
D23*
X145680000Y-107125000D03*
D24*
X145680000Y-102925000D03*
%TD*%
D16*
%TO.C,J2*%
X179200000Y-143035000D03*
D17*
X176700000Y-143035000D03*
%TD*%
D19*
%TO.C,J14*%
X141400000Y-148400000D03*
D20*
X141400000Y-145860000D03*
X141400000Y-143320000D03*
X141400000Y-140780000D03*
%TD*%
D19*
%TO.C,J8*%
X102300000Y-116945000D03*
D20*
X102300000Y-119485000D03*
X102300000Y-122025000D03*
%TD*%
D16*
%TO.C,J6*%
X188050000Y-143035000D03*
D17*
X185550000Y-143035000D03*
%TD*%
D18*
%TO.C,TP8*%
X163000000Y-101850000D03*
%TD*%
D14*
%TO.C,H2*%
X192600000Y-105000000D03*
X193302944Y-103302944D03*
X193302944Y-106697056D03*
X195000000Y-102600000D03*
D15*
X195000000Y-105000000D03*
D14*
X195000000Y-107400000D03*
X196697056Y-103302944D03*
X196697056Y-106697056D03*
X197400000Y-105000000D03*
%TD*%
D18*
%TO.C,TP7*%
X129350000Y-101800000D03*
%TD*%
%LPD*%
M02*
