%TF.GenerationSoftware,KiCad,Pcbnew,8.0.4*%
%TF.CreationDate,2025-01-23T17:28:27+01:00*%
%TF.ProjectId,OpenHand_v3,4f70656e-4861-46e6-945f-76332e6b6963,rev?*%
%TF.SameCoordinates,Original*%
%TF.FileFunction,Soldermask,Bot*%
%TF.FilePolarity,Negative*%
%FSLAX46Y46*%
G04 Gerber Fmt 4.6, Leading zero omitted, Abs format (unit mm)*
G04 Created by KiCad (PCBNEW 8.0.4) date 2025-01-23 17:28:27*
%MOMM*%
%LPD*%
G01*
G04 APERTURE LIST*
G04 Aperture macros list*
%AMRoundRect*
0 Rectangle with rounded corners*
0 $1 Rounding radius*
0 $2 $3 $4 $5 $6 $7 $8 $9 X,Y pos of 4 corners*
0 Add a 4 corners polygon primitive as box body*
4,1,4,$2,$3,$4,$5,$6,$7,$8,$9,$2,$3,0*
0 Add four circle primitives for the rounded corners*
1,1,$1+$1,$2,$3*
1,1,$1+$1,$4,$5*
1,1,$1+$1,$6,$7*
1,1,$1+$1,$8,$9*
0 Add four rect primitives between the rounded corners*
20,1,$1+$1,$2,$3,$4,$5,0*
20,1,$1+$1,$4,$5,$6,$7,0*
20,1,$1+$1,$6,$7,$8,$9,0*
20,1,$1+$1,$8,$9,$2,$3,0*%
G04 Aperture macros list end*
%ADD10C,0.800000*%
%ADD11C,6.400000*%
%ADD12RoundRect,0.250000X0.600000X0.750000X-0.600000X0.750000X-0.600000X-0.750000X0.600000X-0.750000X0*%
%ADD13O,1.700000X2.000000*%
%ADD14C,1.500000*%
%ADD15R,1.700000X1.700000*%
%ADD16O,1.700000X1.700000*%
%ADD17RoundRect,0.250000X-0.600000X-0.750000X0.600000X-0.750000X0.600000X0.750000X-0.600000X0.750000X0*%
%ADD18C,0.650000*%
%ADD19O,1.000000X2.100000*%
%ADD20O,1.000000X1.800000*%
G04 APERTURE END LIST*
D10*
%TO.C,H4*%
X192600000Y-145000000D03*
X193302944Y-143302944D03*
X193302944Y-146697056D03*
X195000000Y-142600000D03*
D11*
X195000000Y-145000000D03*
D10*
X195000000Y-147400000D03*
X196697056Y-143302944D03*
X196697056Y-146697056D03*
X197400000Y-145000000D03*
%TD*%
D12*
%TO.C,J1*%
X170350000Y-143035000D03*
D13*
X167850000Y-143035000D03*
%TD*%
D14*
%TO.C,TP18*%
X109600000Y-101800000D03*
%TD*%
%TO.C,TP17*%
X158850000Y-101850000D03*
%TD*%
D15*
%TO.C,J15*%
X146400000Y-148400000D03*
D16*
X146400000Y-145860000D03*
X146400000Y-143320000D03*
X146400000Y-140780000D03*
%TD*%
D14*
%TO.C,TP37*%
X135255000Y-144780000D03*
%TD*%
%TO.C,TP6*%
X108350000Y-129200000D03*
%TD*%
%TO.C,TP14*%
X131445000Y-144780000D03*
%TD*%
D10*
%TO.C,H1*%
X102600000Y-105000000D03*
X103302944Y-103302944D03*
X103302944Y-106697056D03*
X105000000Y-102600000D03*
D11*
X105000000Y-105000000D03*
D10*
X105000000Y-107400000D03*
X106697056Y-103302944D03*
X106697056Y-106697056D03*
X107400000Y-105000000D03*
%TD*%
D14*
%TO.C,TP41*%
X135255000Y-142240000D03*
%TD*%
%TO.C,TP1*%
X131445000Y-139700000D03*
%TD*%
%TO.C,TP13*%
X129300000Y-123460000D03*
%TD*%
%TO.C,TP39*%
X135255000Y-137160000D03*
%TD*%
%TO.C,TP40*%
X135255000Y-139700000D03*
%TD*%
%TO.C,TP2*%
X161200000Y-121870000D03*
%TD*%
%TO.C,TP4*%
X131445000Y-142240000D03*
%TD*%
%TO.C,TP38*%
X135255000Y-147320000D03*
%TD*%
D12*
%TO.C,J7*%
X160500000Y-143067500D03*
D13*
X158000000Y-143067500D03*
%TD*%
D15*
%TO.C,J16*%
X151400000Y-148400000D03*
D16*
X151400000Y-145860000D03*
X151400000Y-143320000D03*
X151400000Y-140780000D03*
%TD*%
D15*
%TO.C,J12*%
X140530000Y-102000000D03*
D16*
X137990000Y-102000000D03*
X135450000Y-102000000D03*
X132910000Y-102000000D03*
%TD*%
D14*
%TO.C,TP5*%
X131445000Y-137160000D03*
%TD*%
%TO.C,TP3*%
X161200000Y-119330000D03*
%TD*%
D15*
%TO.C,J11*%
X102300000Y-126700000D03*
D16*
X102300000Y-129240000D03*
X102300000Y-131780000D03*
%TD*%
D14*
%TO.C,TP36*%
X131445000Y-147320000D03*
%TD*%
D17*
%TO.C,J3*%
X185750000Y-107232500D03*
D13*
X188250000Y-107232500D03*
%TD*%
D10*
%TO.C,H3*%
X102600000Y-145000000D03*
X103302944Y-143302944D03*
X103302944Y-146697056D03*
X105000000Y-142600000D03*
D11*
X105000000Y-145000000D03*
D10*
X105000000Y-147400000D03*
X106697056Y-143302944D03*
X106697056Y-146697056D03*
X107400000Y-145000000D03*
%TD*%
D14*
%TO.C,TP12*%
X129300000Y-126000000D03*
%TD*%
D18*
%TO.C,J5*%
X152890000Y-106605000D03*
X147110000Y-106605000D03*
D19*
X154320000Y-107125000D03*
D20*
X154320000Y-102925000D03*
D19*
X145680000Y-107125000D03*
D20*
X145680000Y-102925000D03*
%TD*%
D12*
%TO.C,J2*%
X179200000Y-143035000D03*
D13*
X176700000Y-143035000D03*
%TD*%
D15*
%TO.C,J14*%
X141400000Y-148400000D03*
D16*
X141400000Y-145860000D03*
X141400000Y-143320000D03*
X141400000Y-140780000D03*
%TD*%
D15*
%TO.C,J8*%
X102300000Y-116945000D03*
D16*
X102300000Y-119485000D03*
X102300000Y-122025000D03*
%TD*%
D12*
%TO.C,J6*%
X188050000Y-143035000D03*
D13*
X185550000Y-143035000D03*
%TD*%
D14*
%TO.C,TP8*%
X163000000Y-101850000D03*
%TD*%
D10*
%TO.C,H2*%
X192600000Y-105000000D03*
X193302944Y-103302944D03*
X193302944Y-106697056D03*
X195000000Y-102600000D03*
D11*
X195000000Y-105000000D03*
D10*
X195000000Y-107400000D03*
X196697056Y-103302944D03*
X196697056Y-106697056D03*
X197400000Y-105000000D03*
%TD*%
D14*
%TO.C,TP7*%
X129350000Y-101800000D03*
%TD*%
M02*
