%TF.GenerationSoftware,KiCad,Pcbnew,8.0.4*%
%TF.CreationDate,2025-01-23T17:28:26+01:00*%
%TF.ProjectId,OpenHand_v3,4f70656e-4861-46e6-945f-76332e6b6963,rev?*%
%TF.SameCoordinates,Original*%
%TF.FileFunction,Legend,Top*%
%TF.FilePolarity,Positive*%
%FSLAX46Y46*%
G04 Gerber Fmt 4.6, Leading zero omitted, Abs format (unit mm)*
G04 Created by KiCad (PCBNEW 8.0.4) date 2025-01-23 17:28:26*
%MOMM*%
%LPD*%
G01*
G04 APERTURE LIST*
G04 Aperture macros list*
%AMRoundRect*
0 Rectangle with rounded corners*
0 $1 Rounding radius*
0 $2 $3 $4 $5 $6 $7 $8 $9 X,Y pos of 4 corners*
0 Add a 4 corners polygon primitive as box body*
4,1,4,$2,$3,$4,$5,$6,$7,$8,$9,$2,$3,0*
0 Add four circle primitives for the rounded corners*
1,1,$1+$1,$2,$3*
1,1,$1+$1,$4,$5*
1,1,$1+$1,$6,$7*
1,1,$1+$1,$8,$9*
0 Add four rect primitives between the rounded corners*
20,1,$1+$1,$2,$3,$4,$5,0*
20,1,$1+$1,$4,$5,$6,$7,0*
20,1,$1+$1,$6,$7,$8,$9,0*
20,1,$1+$1,$8,$9,$2,$3,0*%
G04 Aperture macros list end*
%ADD10C,0.150000*%
%ADD11C,0.200000*%
%ADD12C,0.087500*%
%ADD13C,0.100000*%
%ADD14C,0.400000*%
%ADD15C,0.120000*%
%ADD16RoundRect,0.250000X-0.450000X0.262500X-0.450000X-0.262500X0.450000X-0.262500X0.450000X0.262500X0*%
%ADD17C,1.000000*%
%ADD18RoundRect,0.250000X0.450000X-0.262500X0.450000X0.262500X-0.450000X0.262500X-0.450000X-0.262500X0*%
%ADD19RoundRect,0.250000X0.250000X0.475000X-0.250000X0.475000X-0.250000X-0.475000X0.250000X-0.475000X0*%
%ADD20RoundRect,0.250000X-0.250000X-0.475000X0.250000X-0.475000X0.250000X0.475000X-0.250000X0.475000X0*%
%ADD21C,0.800000*%
%ADD22C,6.400000*%
%ADD23RoundRect,0.250000X-0.475000X0.250000X-0.475000X-0.250000X0.475000X-0.250000X0.475000X0.250000X0*%
%ADD24RoundRect,0.250000X0.600000X0.750000X-0.600000X0.750000X-0.600000X-0.750000X0.600000X-0.750000X0*%
%ADD25O,1.700000X2.000000*%
%ADD26RoundRect,0.250000X0.312500X0.625000X-0.312500X0.625000X-0.312500X-0.625000X0.312500X-0.625000X0*%
%ADD27C,1.500000*%
%ADD28R,1.700000X1.700000*%
%ADD29O,1.700000X1.700000*%
%ADD30R,2.310000X2.460000*%
%ADD31RoundRect,0.100000X0.100000X-0.687500X0.100000X0.687500X-0.100000X0.687500X-0.100000X-0.687500X0*%
%ADD32RoundRect,0.250000X-0.262500X-0.450000X0.262500X-0.450000X0.262500X0.450000X-0.262500X0.450000X0*%
%ADD33RoundRect,0.250000X-1.075000X0.375000X-1.075000X-0.375000X1.075000X-0.375000X1.075000X0.375000X0*%
%ADD34R,1.300000X2.000000*%
%ADD35R,2.000000X2.000000*%
%ADD36RoundRect,0.250000X0.262500X0.450000X-0.262500X0.450000X-0.262500X-0.450000X0.262500X-0.450000X0*%
%ADD37RoundRect,0.250000X0.475000X-0.250000X0.475000X0.250000X-0.475000X0.250000X-0.475000X-0.250000X0*%
%ADD38R,1.250000X1.000000*%
%ADD39RoundRect,0.225000X-0.225000X-0.375000X0.225000X-0.375000X0.225000X0.375000X-0.225000X0.375000X0*%
%ADD40RoundRect,0.250000X0.550000X-1.050000X0.550000X1.050000X-0.550000X1.050000X-0.550000X-1.050000X0*%
%ADD41RoundRect,0.150000X-0.150000X0.675000X-0.150000X-0.675000X0.150000X-0.675000X0.150000X0.675000X0*%
%ADD42RoundRect,0.150000X-0.837500X-0.150000X0.837500X-0.150000X0.837500X0.150000X-0.837500X0.150000X0*%
%ADD43RoundRect,0.250000X-0.600000X-0.750000X0.600000X-0.750000X0.600000X0.750000X-0.600000X0.750000X0*%
%ADD44RoundRect,0.375000X-0.375000X0.625000X-0.375000X-0.625000X0.375000X-0.625000X0.375000X0.625000X0*%
%ADD45RoundRect,0.500000X-1.400000X0.500000X-1.400000X-0.500000X1.400000X-0.500000X1.400000X0.500000X0*%
%ADD46R,3.500000X2.950000*%
%ADD47RoundRect,0.250000X0.550000X-1.500000X0.550000X1.500000X-0.550000X1.500000X-0.550000X-1.500000X0*%
%ADD48C,0.650000*%
%ADD49R,0.600000X1.240000*%
%ADD50R,0.300000X1.240000*%
%ADD51O,1.000000X2.100000*%
%ADD52O,1.000000X1.800000*%
%ADD53RoundRect,0.150000X-0.150000X0.587500X-0.150000X-0.587500X0.150000X-0.587500X0.150000X0.587500X0*%
%ADD54R,1.200000X1.400000*%
%ADD55C,2.000000*%
%ADD56R,0.549999X0.800001*%
%ADD57RoundRect,0.250000X1.050000X0.550000X-1.050000X0.550000X-1.050000X-0.550000X1.050000X-0.550000X0*%
%ADD58RoundRect,0.075000X-0.075000X-0.700000X0.075000X-0.700000X0.075000X0.700000X-0.075000X0.700000X0*%
%ADD59RoundRect,0.075000X-0.700000X-0.075000X0.700000X-0.075000X0.700000X0.075000X-0.700000X0.075000X0*%
G04 APERTURE END LIST*
D10*
X164550000Y-141599069D02*
G75*
G02*
X165549069Y-140599100I1000000J-31D01*
G01*
X131900000Y-104800000D02*
X141600000Y-104800000D01*
X190399069Y-140575932D02*
G75*
G02*
X191399968Y-141575932I931J-999968D01*
G01*
X130900000Y-103800000D02*
X130900000Y-100100000D01*
X163800000Y-141600000D02*
X163800000Y-149825000D01*
X164550000Y-141599069D02*
X164550000Y-149825000D01*
X138900000Y-139000000D02*
X138907107Y-149832107D01*
X162900000Y-140600000D02*
X155600000Y-140600000D01*
X142600000Y-103800000D02*
G75*
G02*
X141600000Y-104800000I-1000000J0D01*
G01*
X103600000Y-134000000D02*
X100100000Y-134000000D01*
X103600000Y-114900000D02*
X100100000Y-114900000D01*
X131900000Y-104800000D02*
G75*
G02*
X130900000Y-103800000I0J1000000D01*
G01*
X104600000Y-115900000D02*
X104600000Y-133000000D01*
X190399069Y-140575932D02*
X165549069Y-140599070D01*
X142600000Y-103800000D02*
X142600000Y-100100000D01*
X152800000Y-138007107D02*
G75*
G02*
X153799993Y-139007107I0J-999993D01*
G01*
X191400000Y-149775000D02*
X191400000Y-141575932D01*
X104600000Y-133000000D02*
G75*
G02*
X103600000Y-134000000I-1000000J0D01*
G01*
X154600000Y-141600000D02*
G75*
G02*
X155600000Y-140600000I1000000J0D01*
G01*
X154600000Y-141600000D02*
X154600000Y-149825000D01*
X103600000Y-114900000D02*
G75*
G02*
X104600000Y-115900000I0J-1000000D01*
G01*
X162800000Y-140600000D02*
G75*
G02*
X163800000Y-141600000I0J-1000000D01*
G01*
X153800000Y-139007107D02*
X153800000Y-149812500D01*
X138900000Y-139000000D02*
G75*
G02*
X139900000Y-138000000I1000000J0D01*
G01*
X152800000Y-138000000D02*
X139900000Y-138000000D01*
D11*
X156200000Y-140144742D02*
X156200000Y-138944742D01*
X156200000Y-139516171D02*
X156885714Y-139516171D01*
X156885714Y-140144742D02*
X156885714Y-138944742D01*
X157400000Y-139801885D02*
X157971429Y-139801885D01*
X157285714Y-140144742D02*
X157685714Y-138944742D01*
X157685714Y-138944742D02*
X158085714Y-140144742D01*
X158485714Y-140144742D02*
X158485714Y-138944742D01*
X158485714Y-138944742D02*
X158942857Y-138944742D01*
X158942857Y-138944742D02*
X159057142Y-139001885D01*
X159057142Y-139001885D02*
X159114285Y-139059028D01*
X159114285Y-139059028D02*
X159171428Y-139173314D01*
X159171428Y-139173314D02*
X159171428Y-139344742D01*
X159171428Y-139344742D02*
X159114285Y-139459028D01*
X159114285Y-139459028D02*
X159057142Y-139516171D01*
X159057142Y-139516171D02*
X158942857Y-139573314D01*
X158942857Y-139573314D02*
X158485714Y-139573314D01*
X159514285Y-138944742D02*
X160200000Y-138944742D01*
X159857142Y-140144742D02*
X159857142Y-138944742D01*
X160600000Y-140144742D02*
X160600000Y-138944742D01*
X161857143Y-140030457D02*
X161800000Y-140087600D01*
X161800000Y-140087600D02*
X161628572Y-140144742D01*
X161628572Y-140144742D02*
X161514286Y-140144742D01*
X161514286Y-140144742D02*
X161342857Y-140087600D01*
X161342857Y-140087600D02*
X161228572Y-139973314D01*
X161228572Y-139973314D02*
X161171429Y-139859028D01*
X161171429Y-139859028D02*
X161114286Y-139630457D01*
X161114286Y-139630457D02*
X161114286Y-139459028D01*
X161114286Y-139459028D02*
X161171429Y-139230457D01*
X161171429Y-139230457D02*
X161228572Y-139116171D01*
X161228572Y-139116171D02*
X161342857Y-139001885D01*
X161342857Y-139001885D02*
X161514286Y-138944742D01*
X161514286Y-138944742D02*
X161628572Y-138944742D01*
X161628572Y-138944742D02*
X161800000Y-139001885D01*
X161800000Y-139001885D02*
X161857143Y-139059028D01*
D10*
X167533333Y-141349366D02*
X168066667Y-141349366D01*
X167800000Y-141616033D02*
X167800000Y-141082700D01*
X169300000Y-141616033D02*
X168900000Y-141616033D01*
X169100000Y-141616033D02*
X169100000Y-140916033D01*
X169100000Y-140916033D02*
X169033333Y-141016033D01*
X169033333Y-141016033D02*
X168966667Y-141082700D01*
X168966667Y-141082700D02*
X168900000Y-141116033D01*
X170133333Y-141349366D02*
X170666667Y-141349366D01*
D11*
X174514285Y-140144742D02*
X174514285Y-138944742D01*
X174514285Y-138944742D02*
X174914285Y-139801885D01*
X174914285Y-139801885D02*
X175314285Y-138944742D01*
X175314285Y-138944742D02*
X175314285Y-140144742D01*
X176114285Y-138944742D02*
X176342857Y-138944742D01*
X176342857Y-138944742D02*
X176457142Y-139001885D01*
X176457142Y-139001885D02*
X176571428Y-139116171D01*
X176571428Y-139116171D02*
X176628571Y-139344742D01*
X176628571Y-139344742D02*
X176628571Y-139744742D01*
X176628571Y-139744742D02*
X176571428Y-139973314D01*
X176571428Y-139973314D02*
X176457142Y-140087600D01*
X176457142Y-140087600D02*
X176342857Y-140144742D01*
X176342857Y-140144742D02*
X176114285Y-140144742D01*
X176114285Y-140144742D02*
X176000000Y-140087600D01*
X176000000Y-140087600D02*
X175885714Y-139973314D01*
X175885714Y-139973314D02*
X175828571Y-139744742D01*
X175828571Y-139744742D02*
X175828571Y-139344742D01*
X175828571Y-139344742D02*
X175885714Y-139116171D01*
X175885714Y-139116171D02*
X176000000Y-139001885D01*
X176000000Y-139001885D02*
X176114285Y-138944742D01*
X176971428Y-138944742D02*
X177657143Y-138944742D01*
X177314285Y-140144742D02*
X177314285Y-138944742D01*
X178285714Y-138944742D02*
X178514286Y-138944742D01*
X178514286Y-138944742D02*
X178628571Y-139001885D01*
X178628571Y-139001885D02*
X178742857Y-139116171D01*
X178742857Y-139116171D02*
X178800000Y-139344742D01*
X178800000Y-139344742D02*
X178800000Y-139744742D01*
X178800000Y-139744742D02*
X178742857Y-139973314D01*
X178742857Y-139973314D02*
X178628571Y-140087600D01*
X178628571Y-140087600D02*
X178514286Y-140144742D01*
X178514286Y-140144742D02*
X178285714Y-140144742D01*
X178285714Y-140144742D02*
X178171429Y-140087600D01*
X178171429Y-140087600D02*
X178057143Y-139973314D01*
X178057143Y-139973314D02*
X178000000Y-139744742D01*
X178000000Y-139744742D02*
X178000000Y-139344742D01*
X178000000Y-139344742D02*
X178057143Y-139116171D01*
X178057143Y-139116171D02*
X178171429Y-139001885D01*
X178171429Y-139001885D02*
X178285714Y-138944742D01*
X180000000Y-140144742D02*
X179600000Y-139573314D01*
X179314286Y-140144742D02*
X179314286Y-138944742D01*
X179314286Y-138944742D02*
X179771429Y-138944742D01*
X179771429Y-138944742D02*
X179885714Y-139001885D01*
X179885714Y-139001885D02*
X179942857Y-139059028D01*
X179942857Y-139059028D02*
X180000000Y-139173314D01*
X180000000Y-139173314D02*
X180000000Y-139344742D01*
X180000000Y-139344742D02*
X179942857Y-139459028D01*
X179942857Y-139459028D02*
X179885714Y-139516171D01*
X179885714Y-139516171D02*
X179771429Y-139573314D01*
X179771429Y-139573314D02*
X179314286Y-139573314D01*
X180457143Y-140087600D02*
X180628572Y-140144742D01*
X180628572Y-140144742D02*
X180914286Y-140144742D01*
X180914286Y-140144742D02*
X181028572Y-140087600D01*
X181028572Y-140087600D02*
X181085714Y-140030457D01*
X181085714Y-140030457D02*
X181142857Y-139916171D01*
X181142857Y-139916171D02*
X181142857Y-139801885D01*
X181142857Y-139801885D02*
X181085714Y-139687600D01*
X181085714Y-139687600D02*
X181028572Y-139630457D01*
X181028572Y-139630457D02*
X180914286Y-139573314D01*
X180914286Y-139573314D02*
X180685714Y-139516171D01*
X180685714Y-139516171D02*
X180571429Y-139459028D01*
X180571429Y-139459028D02*
X180514286Y-139401885D01*
X180514286Y-139401885D02*
X180457143Y-139287600D01*
X180457143Y-139287600D02*
X180457143Y-139173314D01*
X180457143Y-139173314D02*
X180514286Y-139059028D01*
X180514286Y-139059028D02*
X180571429Y-139001885D01*
X180571429Y-139001885D02*
X180685714Y-138944742D01*
X180685714Y-138944742D02*
X180971429Y-138944742D01*
X180971429Y-138944742D02*
X181142857Y-139001885D01*
D12*
X136116666Y-103680716D02*
X136116666Y-104380716D01*
X136116666Y-104380716D02*
X135949999Y-104380716D01*
X135949999Y-104380716D02*
X135849999Y-104347383D01*
X135849999Y-104347383D02*
X135783333Y-104280716D01*
X135783333Y-104280716D02*
X135749999Y-104214050D01*
X135749999Y-104214050D02*
X135716666Y-104080716D01*
X135716666Y-104080716D02*
X135716666Y-103980716D01*
X135716666Y-103980716D02*
X135749999Y-103847383D01*
X135749999Y-103847383D02*
X135783333Y-103780716D01*
X135783333Y-103780716D02*
X135849999Y-103714050D01*
X135849999Y-103714050D02*
X135949999Y-103680716D01*
X135949999Y-103680716D02*
X136116666Y-103680716D01*
X135416666Y-103680716D02*
X135416666Y-104380716D01*
X134950000Y-104380716D02*
X134816666Y-104380716D01*
X134816666Y-104380716D02*
X134750000Y-104347383D01*
X134750000Y-104347383D02*
X134683333Y-104280716D01*
X134683333Y-104280716D02*
X134650000Y-104147383D01*
X134650000Y-104147383D02*
X134650000Y-103914050D01*
X134650000Y-103914050D02*
X134683333Y-103780716D01*
X134683333Y-103780716D02*
X134750000Y-103714050D01*
X134750000Y-103714050D02*
X134816666Y-103680716D01*
X134816666Y-103680716D02*
X134950000Y-103680716D01*
X134950000Y-103680716D02*
X135016666Y-103714050D01*
X135016666Y-103714050D02*
X135083333Y-103780716D01*
X135083333Y-103780716D02*
X135116666Y-103914050D01*
X135116666Y-103914050D02*
X135116666Y-104147383D01*
X135116666Y-104147383D02*
X135083333Y-104280716D01*
X135083333Y-104280716D02*
X135016666Y-104347383D01*
X135016666Y-104347383D02*
X134950000Y-104380716D01*
D10*
X121616033Y-132299999D02*
X121616033Y-132166665D01*
X121616033Y-132166665D02*
X121649366Y-132099999D01*
X121649366Y-132099999D02*
X121716033Y-132033332D01*
X121716033Y-132033332D02*
X121849366Y-131999999D01*
X121849366Y-131999999D02*
X122082700Y-131999999D01*
X122082700Y-131999999D02*
X122216033Y-132033332D01*
X122216033Y-132033332D02*
X122282700Y-132099999D01*
X122282700Y-132099999D02*
X122316033Y-132166665D01*
X122316033Y-132166665D02*
X122316033Y-132299999D01*
X122316033Y-132299999D02*
X122282700Y-132366665D01*
X122282700Y-132366665D02*
X122216033Y-132433332D01*
X122216033Y-132433332D02*
X122082700Y-132466665D01*
X122082700Y-132466665D02*
X121849366Y-132466665D01*
X121849366Y-132466665D02*
X121716033Y-132433332D01*
X121716033Y-132433332D02*
X121649366Y-132366665D01*
X121649366Y-132366665D02*
X121616033Y-132299999D01*
X121616033Y-131699999D02*
X122182700Y-131699999D01*
X122182700Y-131699999D02*
X122249366Y-131666666D01*
X122249366Y-131666666D02*
X122282700Y-131633332D01*
X122282700Y-131633332D02*
X122316033Y-131566666D01*
X122316033Y-131566666D02*
X122316033Y-131433332D01*
X122316033Y-131433332D02*
X122282700Y-131366666D01*
X122282700Y-131366666D02*
X122249366Y-131333332D01*
X122249366Y-131333332D02*
X122182700Y-131299999D01*
X122182700Y-131299999D02*
X121616033Y-131299999D01*
X121616033Y-131066666D02*
X121616033Y-130666666D01*
X122316033Y-130866666D02*
X121616033Y-130866666D01*
D13*
X110700000Y-103548033D02*
X110166667Y-103548033D01*
X109500000Y-103981366D02*
X109833333Y-103981366D01*
X109833333Y-103981366D02*
X109866666Y-103648033D01*
X109866666Y-103648033D02*
X109833333Y-103681366D01*
X109833333Y-103681366D02*
X109766666Y-103714700D01*
X109766666Y-103714700D02*
X109600000Y-103714700D01*
X109600000Y-103714700D02*
X109533333Y-103681366D01*
X109533333Y-103681366D02*
X109500000Y-103648033D01*
X109500000Y-103648033D02*
X109466666Y-103581366D01*
X109466666Y-103581366D02*
X109466666Y-103414700D01*
X109466666Y-103414700D02*
X109500000Y-103348033D01*
X109500000Y-103348033D02*
X109533333Y-103314700D01*
X109533333Y-103314700D02*
X109600000Y-103281366D01*
X109600000Y-103281366D02*
X109766666Y-103281366D01*
X109766666Y-103281366D02*
X109833333Y-103314700D01*
X109833333Y-103314700D02*
X109866666Y-103348033D01*
X109266666Y-103981366D02*
X109033333Y-103281366D01*
X109033333Y-103281366D02*
X108799999Y-103981366D01*
X138416666Y-103748033D02*
X138449999Y-103714700D01*
X138449999Y-103714700D02*
X138549999Y-103681366D01*
X138549999Y-103681366D02*
X138616666Y-103681366D01*
X138616666Y-103681366D02*
X138716666Y-103714700D01*
X138716666Y-103714700D02*
X138783333Y-103781366D01*
X138783333Y-103781366D02*
X138816666Y-103848033D01*
X138816666Y-103848033D02*
X138849999Y-103981366D01*
X138849999Y-103981366D02*
X138849999Y-104081366D01*
X138849999Y-104081366D02*
X138816666Y-104214700D01*
X138816666Y-104214700D02*
X138783333Y-104281366D01*
X138783333Y-104281366D02*
X138716666Y-104348033D01*
X138716666Y-104348033D02*
X138616666Y-104381366D01*
X138616666Y-104381366D02*
X138549999Y-104381366D01*
X138549999Y-104381366D02*
X138449999Y-104348033D01*
X138449999Y-104348033D02*
X138416666Y-104314700D01*
X137783333Y-103681366D02*
X138116666Y-103681366D01*
X138116666Y-103681366D02*
X138116666Y-104381366D01*
X137549999Y-103681366D02*
X137549999Y-104381366D01*
X137149999Y-103681366D02*
X137449999Y-104081366D01*
X137149999Y-104381366D02*
X137549999Y-103981366D01*
D10*
X131382700Y-124249999D02*
X131416033Y-124149999D01*
X131416033Y-124149999D02*
X131416033Y-123983333D01*
X131416033Y-123983333D02*
X131382700Y-123916666D01*
X131382700Y-123916666D02*
X131349366Y-123883333D01*
X131349366Y-123883333D02*
X131282700Y-123849999D01*
X131282700Y-123849999D02*
X131216033Y-123849999D01*
X131216033Y-123849999D02*
X131149366Y-123883333D01*
X131149366Y-123883333D02*
X131116033Y-123916666D01*
X131116033Y-123916666D02*
X131082700Y-123983333D01*
X131082700Y-123983333D02*
X131049366Y-124116666D01*
X131049366Y-124116666D02*
X131016033Y-124183333D01*
X131016033Y-124183333D02*
X130982700Y-124216666D01*
X130982700Y-124216666D02*
X130916033Y-124249999D01*
X130916033Y-124249999D02*
X130849366Y-124249999D01*
X130849366Y-124249999D02*
X130782700Y-124216666D01*
X130782700Y-124216666D02*
X130749366Y-124183333D01*
X130749366Y-124183333D02*
X130716033Y-124116666D01*
X130716033Y-124116666D02*
X130716033Y-123949999D01*
X130716033Y-123949999D02*
X130749366Y-123849999D01*
X131416033Y-123549999D02*
X130716033Y-123549999D01*
X130716033Y-123549999D02*
X130716033Y-123383332D01*
X130716033Y-123383332D02*
X130749366Y-123283332D01*
X130749366Y-123283332D02*
X130816033Y-123216666D01*
X130816033Y-123216666D02*
X130882700Y-123183332D01*
X130882700Y-123183332D02*
X131016033Y-123149999D01*
X131016033Y-123149999D02*
X131116033Y-123149999D01*
X131116033Y-123149999D02*
X131249366Y-123183332D01*
X131249366Y-123183332D02*
X131316033Y-123216666D01*
X131316033Y-123216666D02*
X131382700Y-123283332D01*
X131382700Y-123283332D02*
X131416033Y-123383332D01*
X131416033Y-123383332D02*
X131416033Y-123549999D01*
X131216033Y-122883332D02*
X131216033Y-122549999D01*
X131416033Y-122949999D02*
X130716033Y-122716666D01*
X130716033Y-122716666D02*
X131416033Y-122483332D01*
X157750000Y-141349366D02*
X158283334Y-141349366D01*
X158016667Y-141616033D02*
X158016667Y-141082700D01*
X160216666Y-141349366D02*
X160750000Y-141349366D01*
D11*
X156555257Y-100828571D02*
X155583828Y-100828571D01*
X155583828Y-100828571D02*
X155469542Y-100885714D01*
X155469542Y-100885714D02*
X155412400Y-100942857D01*
X155412400Y-100942857D02*
X155355257Y-101057142D01*
X155355257Y-101057142D02*
X155355257Y-101285714D01*
X155355257Y-101285714D02*
X155412400Y-101399999D01*
X155412400Y-101399999D02*
X155469542Y-101457142D01*
X155469542Y-101457142D02*
X155583828Y-101514285D01*
X155583828Y-101514285D02*
X156555257Y-101514285D01*
X155412400Y-102028571D02*
X155355257Y-102200000D01*
X155355257Y-102200000D02*
X155355257Y-102485714D01*
X155355257Y-102485714D02*
X155412400Y-102600000D01*
X155412400Y-102600000D02*
X155469542Y-102657142D01*
X155469542Y-102657142D02*
X155583828Y-102714285D01*
X155583828Y-102714285D02*
X155698114Y-102714285D01*
X155698114Y-102714285D02*
X155812400Y-102657142D01*
X155812400Y-102657142D02*
X155869542Y-102600000D01*
X155869542Y-102600000D02*
X155926685Y-102485714D01*
X155926685Y-102485714D02*
X155983828Y-102257142D01*
X155983828Y-102257142D02*
X156040971Y-102142857D01*
X156040971Y-102142857D02*
X156098114Y-102085714D01*
X156098114Y-102085714D02*
X156212400Y-102028571D01*
X156212400Y-102028571D02*
X156326685Y-102028571D01*
X156326685Y-102028571D02*
X156440971Y-102085714D01*
X156440971Y-102085714D02*
X156498114Y-102142857D01*
X156498114Y-102142857D02*
X156555257Y-102257142D01*
X156555257Y-102257142D02*
X156555257Y-102542857D01*
X156555257Y-102542857D02*
X156498114Y-102714285D01*
X155983828Y-103628571D02*
X155926685Y-103799999D01*
X155926685Y-103799999D02*
X155869542Y-103857142D01*
X155869542Y-103857142D02*
X155755257Y-103914285D01*
X155755257Y-103914285D02*
X155583828Y-103914285D01*
X155583828Y-103914285D02*
X155469542Y-103857142D01*
X155469542Y-103857142D02*
X155412400Y-103799999D01*
X155412400Y-103799999D02*
X155355257Y-103685714D01*
X155355257Y-103685714D02*
X155355257Y-103228571D01*
X155355257Y-103228571D02*
X156555257Y-103228571D01*
X156555257Y-103228571D02*
X156555257Y-103628571D01*
X156555257Y-103628571D02*
X156498114Y-103742857D01*
X156498114Y-103742857D02*
X156440971Y-103799999D01*
X156440971Y-103799999D02*
X156326685Y-103857142D01*
X156326685Y-103857142D02*
X156212400Y-103857142D01*
X156212400Y-103857142D02*
X156098114Y-103799999D01*
X156098114Y-103799999D02*
X156040971Y-103742857D01*
X156040971Y-103742857D02*
X155983828Y-103628571D01*
X155983828Y-103628571D02*
X155983828Y-103228571D01*
X155469542Y-106028571D02*
X155412400Y-105971428D01*
X155412400Y-105971428D02*
X155355257Y-105800000D01*
X155355257Y-105800000D02*
X155355257Y-105685714D01*
X155355257Y-105685714D02*
X155412400Y-105514285D01*
X155412400Y-105514285D02*
X155526685Y-105400000D01*
X155526685Y-105400000D02*
X155640971Y-105342857D01*
X155640971Y-105342857D02*
X155869542Y-105285714D01*
X155869542Y-105285714D02*
X156040971Y-105285714D01*
X156040971Y-105285714D02*
X156269542Y-105342857D01*
X156269542Y-105342857D02*
X156383828Y-105400000D01*
X156383828Y-105400000D02*
X156498114Y-105514285D01*
X156498114Y-105514285D02*
X156555257Y-105685714D01*
X156555257Y-105685714D02*
X156555257Y-105800000D01*
X156555257Y-105800000D02*
X156498114Y-105971428D01*
X156498114Y-105971428D02*
X156440971Y-106028571D01*
D10*
X121716033Y-114299999D02*
X121716033Y-114166665D01*
X121716033Y-114166665D02*
X121749366Y-114099999D01*
X121749366Y-114099999D02*
X121816033Y-114033332D01*
X121816033Y-114033332D02*
X121949366Y-113999999D01*
X121949366Y-113999999D02*
X122182700Y-113999999D01*
X122182700Y-113999999D02*
X122316033Y-114033332D01*
X122316033Y-114033332D02*
X122382700Y-114099999D01*
X122382700Y-114099999D02*
X122416033Y-114166665D01*
X122416033Y-114166665D02*
X122416033Y-114299999D01*
X122416033Y-114299999D02*
X122382700Y-114366665D01*
X122382700Y-114366665D02*
X122316033Y-114433332D01*
X122316033Y-114433332D02*
X122182700Y-114466665D01*
X122182700Y-114466665D02*
X121949366Y-114466665D01*
X121949366Y-114466665D02*
X121816033Y-114433332D01*
X121816033Y-114433332D02*
X121749366Y-114366665D01*
X121749366Y-114366665D02*
X121716033Y-114299999D01*
X121716033Y-113699999D02*
X122282700Y-113699999D01*
X122282700Y-113699999D02*
X122349366Y-113666666D01*
X122349366Y-113666666D02*
X122382700Y-113633332D01*
X122382700Y-113633332D02*
X122416033Y-113566666D01*
X122416033Y-113566666D02*
X122416033Y-113433332D01*
X122416033Y-113433332D02*
X122382700Y-113366666D01*
X122382700Y-113366666D02*
X122349366Y-113333332D01*
X122349366Y-113333332D02*
X122282700Y-113299999D01*
X122282700Y-113299999D02*
X121716033Y-113299999D01*
X121716033Y-113066666D02*
X121716033Y-112666666D01*
X122416033Y-112866666D02*
X121716033Y-112866666D01*
X138300000Y-105582700D02*
X138333333Y-105549366D01*
X138333333Y-105549366D02*
X138400000Y-105516033D01*
X138400000Y-105516033D02*
X138566667Y-105516033D01*
X138566667Y-105516033D02*
X138633333Y-105549366D01*
X138633333Y-105549366D02*
X138666667Y-105582700D01*
X138666667Y-105582700D02*
X138700000Y-105649366D01*
X138700000Y-105649366D02*
X138700000Y-105716033D01*
X138700000Y-105716033D02*
X138666667Y-105816033D01*
X138666667Y-105816033D02*
X138266667Y-106216033D01*
X138266667Y-106216033D02*
X138700000Y-106216033D01*
X136500000Y-106216033D02*
X136100000Y-106216033D01*
X136300000Y-106216033D02*
X136300000Y-105516033D01*
X136300000Y-105516033D02*
X136233333Y-105616033D01*
X136233333Y-105616033D02*
X136166667Y-105682700D01*
X136166667Y-105682700D02*
X136100000Y-105716033D01*
D11*
X142071429Y-136916171D02*
X142471429Y-136916171D01*
X142642857Y-137544742D02*
X142071429Y-137544742D01*
X142071429Y-137544742D02*
X142071429Y-136344742D01*
X142071429Y-136344742D02*
X142642857Y-136344742D01*
X143157143Y-137544742D02*
X143157143Y-136344742D01*
X143157143Y-136344742D02*
X143842857Y-137544742D01*
X143842857Y-137544742D02*
X143842857Y-136344742D01*
X145100000Y-137430457D02*
X145042857Y-137487600D01*
X145042857Y-137487600D02*
X144871429Y-137544742D01*
X144871429Y-137544742D02*
X144757143Y-137544742D01*
X144757143Y-137544742D02*
X144585714Y-137487600D01*
X144585714Y-137487600D02*
X144471429Y-137373314D01*
X144471429Y-137373314D02*
X144414286Y-137259028D01*
X144414286Y-137259028D02*
X144357143Y-137030457D01*
X144357143Y-137030457D02*
X144357143Y-136859028D01*
X144357143Y-136859028D02*
X144414286Y-136630457D01*
X144414286Y-136630457D02*
X144471429Y-136516171D01*
X144471429Y-136516171D02*
X144585714Y-136401885D01*
X144585714Y-136401885D02*
X144757143Y-136344742D01*
X144757143Y-136344742D02*
X144871429Y-136344742D01*
X144871429Y-136344742D02*
X145042857Y-136401885D01*
X145042857Y-136401885D02*
X145100000Y-136459028D01*
X145842857Y-136344742D02*
X146071429Y-136344742D01*
X146071429Y-136344742D02*
X146185714Y-136401885D01*
X146185714Y-136401885D02*
X146300000Y-136516171D01*
X146300000Y-136516171D02*
X146357143Y-136744742D01*
X146357143Y-136744742D02*
X146357143Y-137144742D01*
X146357143Y-137144742D02*
X146300000Y-137373314D01*
X146300000Y-137373314D02*
X146185714Y-137487600D01*
X146185714Y-137487600D02*
X146071429Y-137544742D01*
X146071429Y-137544742D02*
X145842857Y-137544742D01*
X145842857Y-137544742D02*
X145728572Y-137487600D01*
X145728572Y-137487600D02*
X145614286Y-137373314D01*
X145614286Y-137373314D02*
X145557143Y-137144742D01*
X145557143Y-137144742D02*
X145557143Y-136744742D01*
X145557143Y-136744742D02*
X145614286Y-136516171D01*
X145614286Y-136516171D02*
X145728572Y-136401885D01*
X145728572Y-136401885D02*
X145842857Y-136344742D01*
X146871429Y-137544742D02*
X146871429Y-136344742D01*
X146871429Y-136344742D02*
X147157143Y-136344742D01*
X147157143Y-136344742D02*
X147328572Y-136401885D01*
X147328572Y-136401885D02*
X147442857Y-136516171D01*
X147442857Y-136516171D02*
X147500000Y-136630457D01*
X147500000Y-136630457D02*
X147557143Y-136859028D01*
X147557143Y-136859028D02*
X147557143Y-137030457D01*
X147557143Y-137030457D02*
X147500000Y-137259028D01*
X147500000Y-137259028D02*
X147442857Y-137373314D01*
X147442857Y-137373314D02*
X147328572Y-137487600D01*
X147328572Y-137487600D02*
X147157143Y-137544742D01*
X147157143Y-137544742D02*
X146871429Y-137544742D01*
X148071429Y-136916171D02*
X148471429Y-136916171D01*
X148642857Y-137544742D02*
X148071429Y-137544742D01*
X148071429Y-137544742D02*
X148071429Y-136344742D01*
X148071429Y-136344742D02*
X148642857Y-136344742D01*
X149842857Y-137544742D02*
X149442857Y-136973314D01*
X149157143Y-137544742D02*
X149157143Y-136344742D01*
X149157143Y-136344742D02*
X149614286Y-136344742D01*
X149614286Y-136344742D02*
X149728571Y-136401885D01*
X149728571Y-136401885D02*
X149785714Y-136459028D01*
X149785714Y-136459028D02*
X149842857Y-136573314D01*
X149842857Y-136573314D02*
X149842857Y-136744742D01*
X149842857Y-136744742D02*
X149785714Y-136859028D01*
X149785714Y-136859028D02*
X149728571Y-136916171D01*
X149728571Y-136916171D02*
X149614286Y-136973314D01*
X149614286Y-136973314D02*
X149157143Y-136973314D01*
X150300000Y-137487600D02*
X150471429Y-137544742D01*
X150471429Y-137544742D02*
X150757143Y-137544742D01*
X150757143Y-137544742D02*
X150871429Y-137487600D01*
X150871429Y-137487600D02*
X150928571Y-137430457D01*
X150928571Y-137430457D02*
X150985714Y-137316171D01*
X150985714Y-137316171D02*
X150985714Y-137201885D01*
X150985714Y-137201885D02*
X150928571Y-137087600D01*
X150928571Y-137087600D02*
X150871429Y-137030457D01*
X150871429Y-137030457D02*
X150757143Y-136973314D01*
X150757143Y-136973314D02*
X150528571Y-136916171D01*
X150528571Y-136916171D02*
X150414286Y-136859028D01*
X150414286Y-136859028D02*
X150357143Y-136801885D01*
X150357143Y-136801885D02*
X150300000Y-136687600D01*
X150300000Y-136687600D02*
X150300000Y-136573314D01*
X150300000Y-136573314D02*
X150357143Y-136459028D01*
X150357143Y-136459028D02*
X150414286Y-136401885D01*
X150414286Y-136401885D02*
X150528571Y-136344742D01*
X150528571Y-136344742D02*
X150814286Y-136344742D01*
X150814286Y-136344742D02*
X150985714Y-136401885D01*
X188342856Y-110383828D02*
X188171428Y-110326685D01*
X188171428Y-110326685D02*
X188114285Y-110269542D01*
X188114285Y-110269542D02*
X188057142Y-110155257D01*
X188057142Y-110155257D02*
X188057142Y-109983828D01*
X188057142Y-109983828D02*
X188114285Y-109869542D01*
X188114285Y-109869542D02*
X188171428Y-109812400D01*
X188171428Y-109812400D02*
X188285713Y-109755257D01*
X188285713Y-109755257D02*
X188742856Y-109755257D01*
X188742856Y-109755257D02*
X188742856Y-110955257D01*
X188742856Y-110955257D02*
X188342856Y-110955257D01*
X188342856Y-110955257D02*
X188228571Y-110898114D01*
X188228571Y-110898114D02*
X188171428Y-110840971D01*
X188171428Y-110840971D02*
X188114285Y-110726685D01*
X188114285Y-110726685D02*
X188114285Y-110612400D01*
X188114285Y-110612400D02*
X188171428Y-110498114D01*
X188171428Y-110498114D02*
X188228571Y-110440971D01*
X188228571Y-110440971D02*
X188342856Y-110383828D01*
X188342856Y-110383828D02*
X188742856Y-110383828D01*
X187599999Y-110098114D02*
X187028571Y-110098114D01*
X187714285Y-109755257D02*
X187314285Y-110955257D01*
X187314285Y-110955257D02*
X186914285Y-109755257D01*
X186685714Y-110955257D02*
X186000000Y-110955257D01*
X186342857Y-109755257D02*
X186342857Y-110955257D01*
X185771428Y-110955257D02*
X185085714Y-110955257D01*
X185428571Y-109755257D02*
X185428571Y-110955257D01*
D10*
X143633333Y-141168483D02*
X144166667Y-141168483D01*
X143900000Y-141435150D02*
X143900000Y-140901817D01*
X143733333Y-143489072D02*
X144066666Y-143489072D01*
X143666666Y-143689072D02*
X143900000Y-142989072D01*
X143900000Y-142989072D02*
X144133333Y-143689072D01*
X143950000Y-145576327D02*
X144050000Y-145609661D01*
X144050000Y-145609661D02*
X144083333Y-145642994D01*
X144083333Y-145642994D02*
X144116666Y-145709661D01*
X144116666Y-145709661D02*
X144116666Y-145809661D01*
X144116666Y-145809661D02*
X144083333Y-145876327D01*
X144083333Y-145876327D02*
X144050000Y-145909661D01*
X144050000Y-145909661D02*
X143983333Y-145942994D01*
X143983333Y-145942994D02*
X143716666Y-145942994D01*
X143716666Y-145942994D02*
X143716666Y-145242994D01*
X143716666Y-145242994D02*
X143950000Y-145242994D01*
X143950000Y-145242994D02*
X144016666Y-145276327D01*
X144016666Y-145276327D02*
X144050000Y-145309661D01*
X144050000Y-145309661D02*
X144083333Y-145376327D01*
X144083333Y-145376327D02*
X144083333Y-145442994D01*
X144083333Y-145442994D02*
X144050000Y-145509661D01*
X144050000Y-145509661D02*
X144016666Y-145542994D01*
X144016666Y-145542994D02*
X143950000Y-145576327D01*
X143950000Y-145576327D02*
X143716666Y-145576327D01*
X143633333Y-147930249D02*
X144166667Y-147930249D01*
X176333333Y-141349366D02*
X176866667Y-141349366D01*
X176600000Y-141616033D02*
X176600000Y-141082700D01*
X177700000Y-140982700D02*
X177733333Y-140949366D01*
X177733333Y-140949366D02*
X177800000Y-140916033D01*
X177800000Y-140916033D02*
X177966667Y-140916033D01*
X177966667Y-140916033D02*
X178033333Y-140949366D01*
X178033333Y-140949366D02*
X178066667Y-140982700D01*
X178066667Y-140982700D02*
X178100000Y-141049366D01*
X178100000Y-141049366D02*
X178100000Y-141116033D01*
X178100000Y-141116033D02*
X178066667Y-141216033D01*
X178066667Y-141216033D02*
X177666667Y-141616033D01*
X177666667Y-141616033D02*
X178100000Y-141616033D01*
X178933333Y-141349366D02*
X179466667Y-141349366D01*
X185233333Y-141349366D02*
X185766667Y-141349366D01*
X185500000Y-141616033D02*
X185500000Y-141082700D01*
X186566667Y-140916033D02*
X187000000Y-140916033D01*
X187000000Y-140916033D02*
X186766667Y-141182700D01*
X186766667Y-141182700D02*
X186866667Y-141182700D01*
X186866667Y-141182700D02*
X186933333Y-141216033D01*
X186933333Y-141216033D02*
X186966667Y-141249366D01*
X186966667Y-141249366D02*
X187000000Y-141316033D01*
X187000000Y-141316033D02*
X187000000Y-141482700D01*
X187000000Y-141482700D02*
X186966667Y-141549366D01*
X186966667Y-141549366D02*
X186933333Y-141582700D01*
X186933333Y-141582700D02*
X186866667Y-141616033D01*
X186866667Y-141616033D02*
X186666667Y-141616033D01*
X186666667Y-141616033D02*
X186600000Y-141582700D01*
X186600000Y-141582700D02*
X186566667Y-141549366D01*
X187833333Y-141349366D02*
X188366667Y-141349366D01*
D11*
X149242857Y-113144742D02*
X148842857Y-112573314D01*
X148557143Y-113144742D02*
X148557143Y-111944742D01*
X148557143Y-111944742D02*
X149014286Y-111944742D01*
X149014286Y-111944742D02*
X149128571Y-112001885D01*
X149128571Y-112001885D02*
X149185714Y-112059028D01*
X149185714Y-112059028D02*
X149242857Y-112173314D01*
X149242857Y-112173314D02*
X149242857Y-112344742D01*
X149242857Y-112344742D02*
X149185714Y-112459028D01*
X149185714Y-112459028D02*
X149128571Y-112516171D01*
X149128571Y-112516171D02*
X149014286Y-112573314D01*
X149014286Y-112573314D02*
X148557143Y-112573314D01*
X149700000Y-113087600D02*
X149871429Y-113144742D01*
X149871429Y-113144742D02*
X150157143Y-113144742D01*
X150157143Y-113144742D02*
X150271429Y-113087600D01*
X150271429Y-113087600D02*
X150328571Y-113030457D01*
X150328571Y-113030457D02*
X150385714Y-112916171D01*
X150385714Y-112916171D02*
X150385714Y-112801885D01*
X150385714Y-112801885D02*
X150328571Y-112687600D01*
X150328571Y-112687600D02*
X150271429Y-112630457D01*
X150271429Y-112630457D02*
X150157143Y-112573314D01*
X150157143Y-112573314D02*
X149928571Y-112516171D01*
X149928571Y-112516171D02*
X149814286Y-112459028D01*
X149814286Y-112459028D02*
X149757143Y-112401885D01*
X149757143Y-112401885D02*
X149700000Y-112287600D01*
X149700000Y-112287600D02*
X149700000Y-112173314D01*
X149700000Y-112173314D02*
X149757143Y-112059028D01*
X149757143Y-112059028D02*
X149814286Y-112001885D01*
X149814286Y-112001885D02*
X149928571Y-111944742D01*
X149928571Y-111944742D02*
X150214286Y-111944742D01*
X150214286Y-111944742D02*
X150385714Y-112001885D01*
X150728571Y-111944742D02*
X151414286Y-111944742D01*
X151071428Y-113144742D02*
X151071428Y-111944742D01*
X142912400Y-100671428D02*
X142855257Y-100842857D01*
X142855257Y-100842857D02*
X142855257Y-101128571D01*
X142855257Y-101128571D02*
X142912400Y-101242857D01*
X142912400Y-101242857D02*
X142969542Y-101299999D01*
X142969542Y-101299999D02*
X143083828Y-101357142D01*
X143083828Y-101357142D02*
X143198114Y-101357142D01*
X143198114Y-101357142D02*
X143312400Y-101299999D01*
X143312400Y-101299999D02*
X143369542Y-101242857D01*
X143369542Y-101242857D02*
X143426685Y-101128571D01*
X143426685Y-101128571D02*
X143483828Y-100899999D01*
X143483828Y-100899999D02*
X143540971Y-100785714D01*
X143540971Y-100785714D02*
X143598114Y-100728571D01*
X143598114Y-100728571D02*
X143712400Y-100671428D01*
X143712400Y-100671428D02*
X143826685Y-100671428D01*
X143826685Y-100671428D02*
X143940971Y-100728571D01*
X143940971Y-100728571D02*
X143998114Y-100785714D01*
X143998114Y-100785714D02*
X144055257Y-100899999D01*
X144055257Y-100899999D02*
X144055257Y-101185714D01*
X144055257Y-101185714D02*
X143998114Y-101357142D01*
X144055257Y-101757142D02*
X142855257Y-102042856D01*
X142855257Y-102042856D02*
X143712400Y-102271428D01*
X143712400Y-102271428D02*
X142855257Y-102499999D01*
X142855257Y-102499999D02*
X144055257Y-102785714D01*
X142855257Y-103242857D02*
X144055257Y-103242857D01*
X144055257Y-103242857D02*
X144055257Y-103528571D01*
X144055257Y-103528571D02*
X143998114Y-103700000D01*
X143998114Y-103700000D02*
X143883828Y-103814285D01*
X143883828Y-103814285D02*
X143769542Y-103871428D01*
X143769542Y-103871428D02*
X143540971Y-103928571D01*
X143540971Y-103928571D02*
X143369542Y-103928571D01*
X143369542Y-103928571D02*
X143140971Y-103871428D01*
X143140971Y-103871428D02*
X143026685Y-103814285D01*
X143026685Y-103814285D02*
X142912400Y-103700000D01*
X142912400Y-103700000D02*
X142855257Y-103528571D01*
X142855257Y-103528571D02*
X142855257Y-103242857D01*
X105783828Y-116928571D02*
X105783828Y-117328571D01*
X105155257Y-117499999D02*
X105155257Y-116928571D01*
X105155257Y-116928571D02*
X106355257Y-116928571D01*
X106355257Y-116928571D02*
X106355257Y-117499999D01*
X105155257Y-118014285D02*
X106355257Y-118014285D01*
X106355257Y-118014285D02*
X105498114Y-118414285D01*
X105498114Y-118414285D02*
X106355257Y-118814285D01*
X106355257Y-118814285D02*
X105155257Y-118814285D01*
X106298114Y-120014285D02*
X106355257Y-119900000D01*
X106355257Y-119900000D02*
X106355257Y-119728571D01*
X106355257Y-119728571D02*
X106298114Y-119557142D01*
X106298114Y-119557142D02*
X106183828Y-119442857D01*
X106183828Y-119442857D02*
X106069542Y-119385714D01*
X106069542Y-119385714D02*
X105840971Y-119328571D01*
X105840971Y-119328571D02*
X105669542Y-119328571D01*
X105669542Y-119328571D02*
X105440971Y-119385714D01*
X105440971Y-119385714D02*
X105326685Y-119442857D01*
X105326685Y-119442857D02*
X105212400Y-119557142D01*
X105212400Y-119557142D02*
X105155257Y-119728571D01*
X105155257Y-119728571D02*
X105155257Y-119842857D01*
X105155257Y-119842857D02*
X105212400Y-120014285D01*
X105212400Y-120014285D02*
X105269542Y-120071428D01*
X105269542Y-120071428D02*
X105669542Y-120071428D01*
X105669542Y-120071428D02*
X105669542Y-119842857D01*
X105155257Y-122128571D02*
X105155257Y-121442857D01*
X105155257Y-121785714D02*
X106355257Y-121785714D01*
X106355257Y-121785714D02*
X106183828Y-121671428D01*
X106183828Y-121671428D02*
X106069542Y-121557143D01*
X106069542Y-121557143D02*
X106012400Y-121442857D01*
D13*
X141033332Y-104348033D02*
X141099999Y-104381366D01*
X141099999Y-104381366D02*
X141199999Y-104381366D01*
X141199999Y-104381366D02*
X141299999Y-104348033D01*
X141299999Y-104348033D02*
X141366666Y-104281366D01*
X141366666Y-104281366D02*
X141399999Y-104214700D01*
X141399999Y-104214700D02*
X141433332Y-104081366D01*
X141433332Y-104081366D02*
X141433332Y-103981366D01*
X141433332Y-103981366D02*
X141399999Y-103848033D01*
X141399999Y-103848033D02*
X141366666Y-103781366D01*
X141366666Y-103781366D02*
X141299999Y-103714700D01*
X141299999Y-103714700D02*
X141199999Y-103681366D01*
X141199999Y-103681366D02*
X141133332Y-103681366D01*
X141133332Y-103681366D02*
X141033332Y-103714700D01*
X141033332Y-103714700D02*
X140999999Y-103748033D01*
X140999999Y-103748033D02*
X140999999Y-103981366D01*
X140999999Y-103981366D02*
X141133332Y-103981366D01*
X140699999Y-103681366D02*
X140699999Y-104381366D01*
X140699999Y-104381366D02*
X140299999Y-103681366D01*
X140299999Y-103681366D02*
X140299999Y-104381366D01*
X139966666Y-103681366D02*
X139966666Y-104381366D01*
X139966666Y-104381366D02*
X139799999Y-104381366D01*
X139799999Y-104381366D02*
X139699999Y-104348033D01*
X139699999Y-104348033D02*
X139633333Y-104281366D01*
X139633333Y-104281366D02*
X139599999Y-104214700D01*
X139599999Y-104214700D02*
X139566666Y-104081366D01*
X139566666Y-104081366D02*
X139566666Y-103981366D01*
X139566666Y-103981366D02*
X139599999Y-103848033D01*
X139599999Y-103848033D02*
X139633333Y-103781366D01*
X139633333Y-103781366D02*
X139699999Y-103714700D01*
X139699999Y-103714700D02*
X139799999Y-103681366D01*
X139799999Y-103681366D02*
X139966666Y-103681366D01*
D11*
X182090475Y-101647780D02*
X181423809Y-101647780D01*
X181423809Y-101647780D02*
X181852380Y-100647780D01*
X181042856Y-100743019D02*
X180995237Y-100695400D01*
X180995237Y-100695400D02*
X181042856Y-100647780D01*
X181042856Y-100647780D02*
X181090475Y-100695400D01*
X181090475Y-100695400D02*
X181042856Y-100743019D01*
X181042856Y-100743019D02*
X181042856Y-100647780D01*
X180090476Y-101647780D02*
X180566666Y-101647780D01*
X180566666Y-101647780D02*
X180614285Y-101171590D01*
X180614285Y-101171590D02*
X180566666Y-101219209D01*
X180566666Y-101219209D02*
X180471428Y-101266828D01*
X180471428Y-101266828D02*
X180233333Y-101266828D01*
X180233333Y-101266828D02*
X180138095Y-101219209D01*
X180138095Y-101219209D02*
X180090476Y-101171590D01*
X180090476Y-101171590D02*
X180042857Y-101076352D01*
X180042857Y-101076352D02*
X180042857Y-100838257D01*
X180042857Y-100838257D02*
X180090476Y-100743019D01*
X180090476Y-100743019D02*
X180138095Y-100695400D01*
X180138095Y-100695400D02*
X180233333Y-100647780D01*
X180233333Y-100647780D02*
X180471428Y-100647780D01*
X180471428Y-100647780D02*
X180566666Y-100695400D01*
X180566666Y-100695400D02*
X180614285Y-100743019D01*
X179757142Y-101647780D02*
X179423809Y-100647780D01*
X179423809Y-100647780D02*
X179090476Y-101647780D01*
X178757142Y-101028733D02*
X177995238Y-101028733D01*
X176995238Y-100647780D02*
X177566666Y-100647780D01*
X177280952Y-100647780D02*
X177280952Y-101647780D01*
X177280952Y-101647780D02*
X177376190Y-101504923D01*
X177376190Y-101504923D02*
X177471428Y-101409685D01*
X177471428Y-101409685D02*
X177566666Y-101362066D01*
X176138095Y-101647780D02*
X176328571Y-101647780D01*
X176328571Y-101647780D02*
X176423809Y-101600161D01*
X176423809Y-101600161D02*
X176471428Y-101552542D01*
X176471428Y-101552542D02*
X176566666Y-101409685D01*
X176566666Y-101409685D02*
X176614285Y-101219209D01*
X176614285Y-101219209D02*
X176614285Y-100838257D01*
X176614285Y-100838257D02*
X176566666Y-100743019D01*
X176566666Y-100743019D02*
X176519047Y-100695400D01*
X176519047Y-100695400D02*
X176423809Y-100647780D01*
X176423809Y-100647780D02*
X176233333Y-100647780D01*
X176233333Y-100647780D02*
X176138095Y-100695400D01*
X176138095Y-100695400D02*
X176090476Y-100743019D01*
X176090476Y-100743019D02*
X176042857Y-100838257D01*
X176042857Y-100838257D02*
X176042857Y-101076352D01*
X176042857Y-101076352D02*
X176090476Y-101171590D01*
X176090476Y-101171590D02*
X176138095Y-101219209D01*
X176138095Y-101219209D02*
X176233333Y-101266828D01*
X176233333Y-101266828D02*
X176423809Y-101266828D01*
X176423809Y-101266828D02*
X176519047Y-101219209D01*
X176519047Y-101219209D02*
X176566666Y-101171590D01*
X176566666Y-101171590D02*
X176614285Y-101076352D01*
X175614285Y-100743019D02*
X175566666Y-100695400D01*
X175566666Y-100695400D02*
X175614285Y-100647780D01*
X175614285Y-100647780D02*
X175661904Y-100695400D01*
X175661904Y-100695400D02*
X175614285Y-100743019D01*
X175614285Y-100743019D02*
X175614285Y-100647780D01*
X174995238Y-101219209D02*
X175090476Y-101266828D01*
X175090476Y-101266828D02*
X175138095Y-101314447D01*
X175138095Y-101314447D02*
X175185714Y-101409685D01*
X175185714Y-101409685D02*
X175185714Y-101457304D01*
X175185714Y-101457304D02*
X175138095Y-101552542D01*
X175138095Y-101552542D02*
X175090476Y-101600161D01*
X175090476Y-101600161D02*
X174995238Y-101647780D01*
X174995238Y-101647780D02*
X174804762Y-101647780D01*
X174804762Y-101647780D02*
X174709524Y-101600161D01*
X174709524Y-101600161D02*
X174661905Y-101552542D01*
X174661905Y-101552542D02*
X174614286Y-101457304D01*
X174614286Y-101457304D02*
X174614286Y-101409685D01*
X174614286Y-101409685D02*
X174661905Y-101314447D01*
X174661905Y-101314447D02*
X174709524Y-101266828D01*
X174709524Y-101266828D02*
X174804762Y-101219209D01*
X174804762Y-101219209D02*
X174995238Y-101219209D01*
X174995238Y-101219209D02*
X175090476Y-101171590D01*
X175090476Y-101171590D02*
X175138095Y-101123971D01*
X175138095Y-101123971D02*
X175185714Y-101028733D01*
X175185714Y-101028733D02*
X175185714Y-100838257D01*
X175185714Y-100838257D02*
X175138095Y-100743019D01*
X175138095Y-100743019D02*
X175090476Y-100695400D01*
X175090476Y-100695400D02*
X174995238Y-100647780D01*
X174995238Y-100647780D02*
X174804762Y-100647780D01*
X174804762Y-100647780D02*
X174709524Y-100695400D01*
X174709524Y-100695400D02*
X174661905Y-100743019D01*
X174661905Y-100743019D02*
X174614286Y-100838257D01*
X174614286Y-100838257D02*
X174614286Y-101028733D01*
X174614286Y-101028733D02*
X174661905Y-101123971D01*
X174661905Y-101123971D02*
X174709524Y-101171590D01*
X174709524Y-101171590D02*
X174804762Y-101219209D01*
X174328571Y-101647780D02*
X173995238Y-100647780D01*
X173995238Y-100647780D02*
X173661905Y-101647780D01*
D13*
X145899999Y-125285300D02*
X145999999Y-125318633D01*
X145999999Y-125318633D02*
X146166666Y-125318633D01*
X146166666Y-125318633D02*
X146233332Y-125285300D01*
X146233332Y-125285300D02*
X146266666Y-125251966D01*
X146266666Y-125251966D02*
X146299999Y-125185300D01*
X146299999Y-125185300D02*
X146299999Y-125118633D01*
X146299999Y-125118633D02*
X146266666Y-125051966D01*
X146266666Y-125051966D02*
X146233332Y-125018633D01*
X146233332Y-125018633D02*
X146166666Y-124985300D01*
X146166666Y-124985300D02*
X146033332Y-124951966D01*
X146033332Y-124951966D02*
X145966666Y-124918633D01*
X145966666Y-124918633D02*
X145933332Y-124885300D01*
X145933332Y-124885300D02*
X145899999Y-124818633D01*
X145899999Y-124818633D02*
X145899999Y-124751966D01*
X145899999Y-124751966D02*
X145933332Y-124685300D01*
X145933332Y-124685300D02*
X145966666Y-124651966D01*
X145966666Y-124651966D02*
X146033332Y-124618633D01*
X146033332Y-124618633D02*
X146199999Y-124618633D01*
X146199999Y-124618633D02*
X146299999Y-124651966D01*
X146499999Y-124618633D02*
X146899999Y-124618633D01*
X146699999Y-125318633D02*
X146699999Y-124618633D01*
X147133332Y-125318633D02*
X147133332Y-124618633D01*
X147133332Y-124618633D02*
X147366666Y-125118633D01*
X147366666Y-125118633D02*
X147599999Y-124618633D01*
X147599999Y-124618633D02*
X147599999Y-125318633D01*
X147866666Y-124618633D02*
X148299999Y-124618633D01*
X148299999Y-124618633D02*
X148066666Y-124885300D01*
X148066666Y-124885300D02*
X148166666Y-124885300D01*
X148166666Y-124885300D02*
X148233332Y-124918633D01*
X148233332Y-124918633D02*
X148266666Y-124951966D01*
X148266666Y-124951966D02*
X148299999Y-125018633D01*
X148299999Y-125018633D02*
X148299999Y-125185300D01*
X148299999Y-125185300D02*
X148266666Y-125251966D01*
X148266666Y-125251966D02*
X148233332Y-125285300D01*
X148233332Y-125285300D02*
X148166666Y-125318633D01*
X148166666Y-125318633D02*
X147966666Y-125318633D01*
X147966666Y-125318633D02*
X147899999Y-125285300D01*
X147899999Y-125285300D02*
X147866666Y-125251966D01*
X148566666Y-124685300D02*
X148599999Y-124651966D01*
X148599999Y-124651966D02*
X148666666Y-124618633D01*
X148666666Y-124618633D02*
X148833333Y-124618633D01*
X148833333Y-124618633D02*
X148899999Y-124651966D01*
X148899999Y-124651966D02*
X148933333Y-124685300D01*
X148933333Y-124685300D02*
X148966666Y-124751966D01*
X148966666Y-124751966D02*
X148966666Y-124818633D01*
X148966666Y-124818633D02*
X148933333Y-124918633D01*
X148933333Y-124918633D02*
X148533333Y-125318633D01*
X148533333Y-125318633D02*
X148966666Y-125318633D01*
X149500000Y-124951966D02*
X149266666Y-124951966D01*
X149266666Y-125318633D02*
X149266666Y-124618633D01*
X149266666Y-124618633D02*
X149600000Y-124618633D01*
X150233333Y-125318633D02*
X149833333Y-125318633D01*
X150033333Y-125318633D02*
X150033333Y-124618633D01*
X150033333Y-124618633D02*
X149966666Y-124718633D01*
X149966666Y-124718633D02*
X149900000Y-124785300D01*
X149900000Y-124785300D02*
X149833333Y-124818633D01*
X150666667Y-124618633D02*
X150733333Y-124618633D01*
X150733333Y-124618633D02*
X150800000Y-124651966D01*
X150800000Y-124651966D02*
X150833333Y-124685300D01*
X150833333Y-124685300D02*
X150866667Y-124751966D01*
X150866667Y-124751966D02*
X150900000Y-124885300D01*
X150900000Y-124885300D02*
X150900000Y-125051966D01*
X150900000Y-125051966D02*
X150866667Y-125185300D01*
X150866667Y-125185300D02*
X150833333Y-125251966D01*
X150833333Y-125251966D02*
X150800000Y-125285300D01*
X150800000Y-125285300D02*
X150733333Y-125318633D01*
X150733333Y-125318633D02*
X150666667Y-125318633D01*
X150666667Y-125318633D02*
X150600000Y-125285300D01*
X150600000Y-125285300D02*
X150566667Y-125251966D01*
X150566667Y-125251966D02*
X150533333Y-125185300D01*
X150533333Y-125185300D02*
X150500000Y-125051966D01*
X150500000Y-125051966D02*
X150500000Y-124885300D01*
X150500000Y-124885300D02*
X150533333Y-124751966D01*
X150533333Y-124751966D02*
X150566667Y-124685300D01*
X150566667Y-124685300D02*
X150600000Y-124651966D01*
X150600000Y-124651966D02*
X150666667Y-124618633D01*
X151133334Y-124618633D02*
X151566667Y-124618633D01*
X151566667Y-124618633D02*
X151333334Y-124885300D01*
X151333334Y-124885300D02*
X151433334Y-124885300D01*
X151433334Y-124885300D02*
X151500000Y-124918633D01*
X151500000Y-124918633D02*
X151533334Y-124951966D01*
X151533334Y-124951966D02*
X151566667Y-125018633D01*
X151566667Y-125018633D02*
X151566667Y-125185300D01*
X151566667Y-125185300D02*
X151533334Y-125251966D01*
X151533334Y-125251966D02*
X151500000Y-125285300D01*
X151500000Y-125285300D02*
X151433334Y-125318633D01*
X151433334Y-125318633D02*
X151233334Y-125318633D01*
X151233334Y-125318633D02*
X151166667Y-125285300D01*
X151166667Y-125285300D02*
X151133334Y-125251966D01*
X152266667Y-125318633D02*
X152033334Y-124985300D01*
X151866667Y-125318633D02*
X151866667Y-124618633D01*
X151866667Y-124618633D02*
X152133334Y-124618633D01*
X152133334Y-124618633D02*
X152200001Y-124651966D01*
X152200001Y-124651966D02*
X152233334Y-124685300D01*
X152233334Y-124685300D02*
X152266667Y-124751966D01*
X152266667Y-124751966D02*
X152266667Y-124851966D01*
X152266667Y-124851966D02*
X152233334Y-124918633D01*
X152233334Y-124918633D02*
X152200001Y-124951966D01*
X152200001Y-124951966D02*
X152133334Y-124985300D01*
X152133334Y-124985300D02*
X151866667Y-124985300D01*
X152566667Y-124951966D02*
X152800001Y-124951966D01*
X152900001Y-125318633D02*
X152566667Y-125318633D01*
X152566667Y-125318633D02*
X152566667Y-124618633D01*
X152566667Y-124618633D02*
X152900001Y-124618633D01*
X153100000Y-124618633D02*
X153500000Y-124618633D01*
X153300000Y-125318633D02*
X153300000Y-124618633D01*
X154033333Y-124618633D02*
X153900000Y-124618633D01*
X153900000Y-124618633D02*
X153833333Y-124651966D01*
X153833333Y-124651966D02*
X153800000Y-124685300D01*
X153800000Y-124685300D02*
X153733333Y-124785300D01*
X153733333Y-124785300D02*
X153700000Y-124918633D01*
X153700000Y-124918633D02*
X153700000Y-125185300D01*
X153700000Y-125185300D02*
X153733333Y-125251966D01*
X153733333Y-125251966D02*
X153766667Y-125285300D01*
X153766667Y-125285300D02*
X153833333Y-125318633D01*
X153833333Y-125318633D02*
X153966667Y-125318633D01*
X153966667Y-125318633D02*
X154033333Y-125285300D01*
X154033333Y-125285300D02*
X154066667Y-125251966D01*
X154066667Y-125251966D02*
X154100000Y-125185300D01*
X154100000Y-125185300D02*
X154100000Y-125018633D01*
X154100000Y-125018633D02*
X154066667Y-124951966D01*
X154066667Y-124951966D02*
X154033333Y-124918633D01*
X154033333Y-124918633D02*
X153966667Y-124885300D01*
X153966667Y-124885300D02*
X153833333Y-124885300D01*
X153833333Y-124885300D02*
X153766667Y-124918633D01*
X153766667Y-124918633D02*
X153733333Y-124951966D01*
X153733333Y-124951966D02*
X153700000Y-125018633D01*
D10*
X141566669Y-139116033D02*
X141166669Y-139116033D01*
X141366669Y-139116033D02*
X141366669Y-138416033D01*
X141366669Y-138416033D02*
X141300002Y-138516033D01*
X141300002Y-138516033D02*
X141233336Y-138582700D01*
X141233336Y-138582700D02*
X141166669Y-138616033D01*
X146100000Y-138482700D02*
X146133333Y-138449366D01*
X146133333Y-138449366D02*
X146200000Y-138416033D01*
X146200000Y-138416033D02*
X146366667Y-138416033D01*
X146366667Y-138416033D02*
X146433333Y-138449366D01*
X146433333Y-138449366D02*
X146466667Y-138482700D01*
X146466667Y-138482700D02*
X146500000Y-138549366D01*
X146500000Y-138549366D02*
X146500000Y-138616033D01*
X146500000Y-138616033D02*
X146466667Y-138716033D01*
X146466667Y-138716033D02*
X146066667Y-139116033D01*
X146066667Y-139116033D02*
X146500000Y-139116033D01*
X150999998Y-138416033D02*
X151433331Y-138416033D01*
X151433331Y-138416033D02*
X151199998Y-138682700D01*
X151199998Y-138682700D02*
X151299998Y-138682700D01*
X151299998Y-138682700D02*
X151366664Y-138716033D01*
X151366664Y-138716033D02*
X151399998Y-138749366D01*
X151399998Y-138749366D02*
X151433331Y-138816033D01*
X151433331Y-138816033D02*
X151433331Y-138982700D01*
X151433331Y-138982700D02*
X151399998Y-139049366D01*
X151399998Y-139049366D02*
X151366664Y-139082700D01*
X151366664Y-139082700D02*
X151299998Y-139116033D01*
X151299998Y-139116033D02*
X151099998Y-139116033D01*
X151099998Y-139116033D02*
X151033331Y-139082700D01*
X151033331Y-139082700D02*
X150999998Y-139049366D01*
D14*
G36*
X171807078Y-117884231D02*
G01*
X171937652Y-117903193D01*
X172072814Y-117940342D01*
X172192974Y-117994003D01*
X172220670Y-118009997D01*
X172333100Y-118091373D01*
X172424634Y-118187618D01*
X172495271Y-118298731D01*
X172525485Y-118366885D01*
X172564125Y-118497555D01*
X172582169Y-118636664D01*
X172580919Y-118767401D01*
X172569302Y-118869830D01*
X172548670Y-118995968D01*
X172523962Y-119123942D01*
X172507069Y-119206397D01*
X172479162Y-119336479D01*
X172448447Y-119468501D01*
X172430865Y-119535343D01*
X172388199Y-119670168D01*
X172331959Y-119798405D01*
X172262145Y-119920053D01*
X172178758Y-120035113D01*
X172083067Y-120140806D01*
X171975707Y-120234989D01*
X171856678Y-120317662D01*
X171742956Y-120380559D01*
X171725980Y-120388825D01*
X171603663Y-120439797D01*
X171475086Y-120478250D01*
X171340249Y-120504184D01*
X171199152Y-120517598D01*
X171115715Y-120519642D01*
X170973377Y-120513321D01*
X170842525Y-120494359D01*
X170707045Y-120457210D01*
X170586568Y-120403550D01*
X170558793Y-120387555D01*
X170446362Y-120305872D01*
X170354829Y-120209421D01*
X170284191Y-120098202D01*
X170253978Y-120030032D01*
X170215645Y-119898698D01*
X170197807Y-119759025D01*
X170199016Y-119641583D01*
X170869115Y-119641583D01*
X170899170Y-119767526D01*
X170936001Y-119831903D01*
X171036140Y-119912646D01*
X171159317Y-119945866D01*
X171233831Y-119950018D01*
X171369636Y-119936061D01*
X171497932Y-119889000D01*
X171580558Y-119831903D01*
X171672449Y-119731587D01*
X171737384Y-119619863D01*
X171776783Y-119514387D01*
X171810556Y-119386674D01*
X171839311Y-119262307D01*
X171853622Y-119194966D01*
X171879668Y-119063008D01*
X171901252Y-118931857D01*
X171907599Y-118883166D01*
X171910983Y-118756045D01*
X171880928Y-118630383D01*
X171844096Y-118566285D01*
X171743957Y-118485108D01*
X171620781Y-118451709D01*
X171546267Y-118447534D01*
X171410387Y-118461566D01*
X171281837Y-118508881D01*
X171198904Y-118566285D01*
X171107400Y-118666213D01*
X171042663Y-118777740D01*
X171003315Y-118883166D01*
X170968683Y-119013350D01*
X170939972Y-119137791D01*
X170927746Y-119194966D01*
X170902117Y-119326209D01*
X170881002Y-119452870D01*
X170872498Y-119514387D01*
X170869115Y-119641583D01*
X170199016Y-119641583D01*
X170199157Y-119627871D01*
X170210796Y-119525182D01*
X170233396Y-119397672D01*
X170257589Y-119269423D01*
X170271124Y-119202586D01*
X170298403Y-119077808D01*
X170328944Y-118946475D01*
X170346692Y-118872370D01*
X170389636Y-118736315D01*
X170446075Y-118606927D01*
X170516008Y-118484207D01*
X170599435Y-118368155D01*
X170695404Y-118260994D01*
X170802962Y-118165580D01*
X170906583Y-118091730D01*
X171019076Y-118026875D01*
X171052847Y-118009997D01*
X171175690Y-117958530D01*
X171304731Y-117919704D01*
X171439972Y-117893519D01*
X171581412Y-117879975D01*
X171665017Y-117877911D01*
X171807078Y-117884231D01*
G37*
G36*
X174329661Y-118538454D02*
G01*
X174454678Y-118569267D01*
X174578728Y-118629634D01*
X174682694Y-118716832D01*
X174705548Y-118742824D01*
X174778775Y-118862884D01*
X174817128Y-118988839D01*
X174831475Y-119134303D01*
X174824666Y-119274514D01*
X174810328Y-119375950D01*
X174787776Y-119503207D01*
X174783657Y-119523277D01*
X174755199Y-119650561D01*
X174748730Y-119673780D01*
X174713344Y-119798681D01*
X174660240Y-119935669D01*
X174595526Y-120058592D01*
X174519203Y-120167450D01*
X174431271Y-120262244D01*
X174382952Y-120304366D01*
X174263144Y-120388248D01*
X174135982Y-120451527D01*
X174001466Y-120494204D01*
X173859597Y-120516278D01*
X173775227Y-120519642D01*
X173648508Y-120510354D01*
X173523514Y-120472624D01*
X173490098Y-120453598D01*
X173390203Y-120367560D01*
X173344040Y-120299921D01*
X173183378Y-121072119D01*
X173140830Y-121140702D01*
X173067167Y-121169914D01*
X172618200Y-121169914D01*
X172556602Y-121140702D01*
X172542631Y-121070849D01*
X172837421Y-119653459D01*
X173478032Y-119653459D01*
X173488190Y-119780088D01*
X173526930Y-119863019D01*
X173635828Y-119937784D01*
X173733315Y-119950018D01*
X173866690Y-119930484D01*
X173978813Y-119866584D01*
X173984787Y-119861114D01*
X174066547Y-119758239D01*
X174118686Y-119636417D01*
X174121319Y-119627422D01*
X174149895Y-119523912D01*
X174164501Y-119420402D01*
X174164184Y-119289586D01*
X174125129Y-119186711D01*
X174021582Y-119112479D01*
X173910489Y-119097806D01*
X173777449Y-119119080D01*
X173670447Y-119182900D01*
X173584567Y-119284962D01*
X173532010Y-119394366D01*
X173499078Y-119520402D01*
X173498353Y-119523912D01*
X173478032Y-119653459D01*
X172837421Y-119653459D01*
X173042401Y-118667890D01*
X173084948Y-118598036D01*
X173158611Y-118568825D01*
X173589798Y-118568825D01*
X173651396Y-118598672D01*
X173666001Y-118668525D01*
X173648221Y-118753619D01*
X173745212Y-118664830D01*
X173780307Y-118637408D01*
X173894256Y-118577279D01*
X173942240Y-118560570D01*
X174070410Y-118534382D01*
X174189267Y-118528183D01*
X174329661Y-118538454D01*
G37*
G36*
X176392117Y-118535233D02*
G01*
X176532330Y-118560555D01*
X176654207Y-118604293D01*
X176769400Y-118675510D01*
X176862798Y-118765163D01*
X176941830Y-118880684D01*
X176990688Y-118998970D01*
X177005632Y-119055894D01*
X177026327Y-119188596D01*
X177030547Y-119324512D01*
X177018290Y-119463644D01*
X177004362Y-119542328D01*
X176982770Y-119646473D01*
X176938953Y-119717597D01*
X176865290Y-119747443D01*
X175680321Y-119747443D01*
X175676511Y-119878736D01*
X175729853Y-119966529D01*
X175851154Y-120022739D01*
X175941319Y-120031937D01*
X176067978Y-120020783D01*
X176108967Y-120010346D01*
X176225915Y-119953045D01*
X176232798Y-119948113D01*
X176298842Y-119906201D01*
X176361075Y-119896676D01*
X176824013Y-119896676D01*
X176876720Y-119918267D01*
X176885611Y-119976055D01*
X176819925Y-120090410D01*
X176735743Y-120181170D01*
X176632068Y-120268603D01*
X176517762Y-120342227D01*
X176398556Y-120403716D01*
X176369965Y-120416766D01*
X176250182Y-120461774D01*
X176121985Y-120493923D01*
X175985374Y-120513212D01*
X175840349Y-120519642D01*
X175703107Y-120513207D01*
X175555403Y-120488501D01*
X175426228Y-120445264D01*
X175298945Y-120371401D01*
X175196883Y-120272317D01*
X175184362Y-120256103D01*
X175112582Y-120130991D01*
X175073454Y-120008127D01*
X175054998Y-119870841D01*
X175057216Y-119719133D01*
X175074856Y-119581693D01*
X175085932Y-119523912D01*
X175117035Y-119399581D01*
X175137567Y-119341023D01*
X175764780Y-119341023D01*
X176405527Y-119341023D01*
X176397831Y-119207966D01*
X176354724Y-119110507D01*
X176252897Y-119031503D01*
X176152784Y-119015887D01*
X176022603Y-119039542D01*
X175910202Y-119110507D01*
X175827013Y-119207966D01*
X175770334Y-119324123D01*
X175764780Y-119341023D01*
X175137567Y-119341023D01*
X175164117Y-119265301D01*
X175223502Y-119139357D01*
X175295191Y-119021747D01*
X175305017Y-119007632D01*
X175389715Y-118901343D01*
X175485049Y-118807279D01*
X175591020Y-118725440D01*
X175707627Y-118655824D01*
X175833245Y-118599981D01*
X175966244Y-118560093D01*
X176106626Y-118536161D01*
X176235515Y-118528308D01*
X176254389Y-118528183D01*
X176392117Y-118535233D01*
G37*
G36*
X179098060Y-120379935D02*
G01*
X179054878Y-120449788D01*
X178981214Y-120479000D01*
X178532882Y-120479000D01*
X178470649Y-120449788D01*
X178457313Y-120379300D01*
X178650998Y-119447709D01*
X178663066Y-119319023D01*
X178627502Y-119191791D01*
X178524485Y-119113317D01*
X178413496Y-119097806D01*
X178283033Y-119118039D01*
X178171247Y-119184221D01*
X178165199Y-119189886D01*
X178088837Y-119292396D01*
X178041989Y-119417279D01*
X178035017Y-119447709D01*
X177841333Y-120379300D01*
X177798151Y-120449788D01*
X177724487Y-120479000D01*
X177275520Y-120479000D01*
X177213922Y-120449788D01*
X177199951Y-120379935D01*
X177556204Y-118667890D01*
X177598751Y-118598672D01*
X177672415Y-118568825D01*
X178103601Y-118568825D01*
X178165199Y-118598672D01*
X178179805Y-118668525D01*
X178162024Y-118753619D01*
X178261425Y-118665778D01*
X178372373Y-118599512D01*
X178494868Y-118554821D01*
X178628911Y-118531705D01*
X178710691Y-118528183D01*
X178838555Y-118535573D01*
X178970236Y-118562873D01*
X179097659Y-118618707D01*
X179200475Y-118700814D01*
X179232687Y-118738378D01*
X179298651Y-118856296D01*
X179330713Y-118981027D01*
X179338831Y-119125874D01*
X179326731Y-119266040D01*
X179308890Y-119367695D01*
X179098060Y-120379935D01*
G37*
G36*
X182090328Y-117918553D02*
G01*
X182151926Y-117947764D01*
X182166532Y-118017618D01*
X181675017Y-120379935D01*
X181631835Y-120449788D01*
X181558172Y-120479000D01*
X181092059Y-120479000D01*
X181030461Y-120449153D01*
X181016490Y-120378030D01*
X181206364Y-119463584D01*
X180416385Y-119463584D01*
X180226511Y-120378030D01*
X180183329Y-120449153D01*
X180109030Y-120479000D01*
X179642917Y-120479000D01*
X179580684Y-120451693D01*
X179566713Y-120379935D01*
X180058228Y-118017618D01*
X180100775Y-117947764D01*
X180175073Y-117918553D01*
X180641186Y-117918553D01*
X180702784Y-117947764D01*
X180717390Y-118016983D01*
X180535136Y-118893961D01*
X181325115Y-118893961D01*
X181507369Y-118016983D01*
X181549916Y-117947764D01*
X181624215Y-117918553D01*
X182090328Y-117918553D01*
G37*
G36*
X183578904Y-118535171D02*
G01*
X183711017Y-118556134D01*
X183842633Y-118598255D01*
X183963359Y-118669687D01*
X184022729Y-118726948D01*
X184093058Y-118835062D01*
X184133224Y-118960639D01*
X184143226Y-119103680D01*
X184127233Y-119243166D01*
X184123064Y-119264184D01*
X183890642Y-120379935D01*
X183848095Y-120449788D01*
X183774431Y-120479000D01*
X183325464Y-120479000D01*
X183263866Y-120450423D01*
X183249260Y-120383110D01*
X183270216Y-120283410D01*
X183171708Y-120368608D01*
X183056479Y-120439732D01*
X183013029Y-120459949D01*
X182889883Y-120498597D01*
X182760024Y-120516785D01*
X182677097Y-120519642D01*
X182537509Y-120509521D01*
X182405047Y-120473940D01*
X182288385Y-120404359D01*
X182242101Y-120357709D01*
X182176042Y-120246739D01*
X182146945Y-120117042D01*
X182152359Y-119984301D01*
X182160816Y-119936683D01*
X182170874Y-119904931D01*
X182807278Y-119904931D01*
X182863953Y-120019534D01*
X182951431Y-120031937D01*
X183083641Y-120011882D01*
X183204669Y-119951715D01*
X183237195Y-119927157D01*
X183325795Y-119834582D01*
X183385111Y-119718242D01*
X183397223Y-119672510D01*
X183058751Y-119725217D01*
X182933533Y-119764046D01*
X182887927Y-119790625D01*
X182810361Y-119892381D01*
X182807278Y-119904931D01*
X182170874Y-119904931D01*
X182202604Y-119804762D01*
X182270813Y-119686907D01*
X182365445Y-119583117D01*
X182429435Y-119531533D01*
X182550607Y-119457671D01*
X182676232Y-119402092D01*
X182798470Y-119361177D01*
X182934149Y-119326469D01*
X183057481Y-119302286D01*
X183489302Y-119228623D01*
X183487367Y-119098987D01*
X183385741Y-119021081D01*
X183327369Y-119015887D01*
X183197935Y-119039842D01*
X183120984Y-119083836D01*
X183055576Y-119121302D01*
X182983182Y-119128923D01*
X182531040Y-119128923D01*
X182476427Y-119107332D01*
X182469442Y-119048909D01*
X182528976Y-118933651D01*
X182615456Y-118836730D01*
X182640265Y-118813947D01*
X182743483Y-118734850D01*
X182863660Y-118665208D01*
X182987627Y-118610102D01*
X183121046Y-118566903D01*
X183258558Y-118539703D01*
X183385817Y-118528903D01*
X183428974Y-118528183D01*
X183578904Y-118535171D01*
G37*
G36*
X186230733Y-120379935D02*
G01*
X186187551Y-120449788D01*
X186113887Y-120479000D01*
X185665555Y-120479000D01*
X185603322Y-120449788D01*
X185589986Y-120379300D01*
X185783671Y-119447709D01*
X185795739Y-119319023D01*
X185760174Y-119191791D01*
X185657157Y-119113317D01*
X185546169Y-119097806D01*
X185415705Y-119118039D01*
X185303920Y-119184221D01*
X185297872Y-119189886D01*
X185221510Y-119292396D01*
X185174661Y-119417279D01*
X185167690Y-119447709D01*
X184974006Y-120379300D01*
X184930823Y-120449788D01*
X184857160Y-120479000D01*
X184408193Y-120479000D01*
X184346595Y-120449788D01*
X184332624Y-120379935D01*
X184688877Y-118667890D01*
X184731424Y-118598672D01*
X184805087Y-118568825D01*
X185236274Y-118568825D01*
X185297872Y-118598672D01*
X185312477Y-118668525D01*
X185294696Y-118753619D01*
X185394097Y-118665778D01*
X185505046Y-118599512D01*
X185627541Y-118554821D01*
X185761583Y-118531705D01*
X185843364Y-118528183D01*
X185971228Y-118535573D01*
X186102909Y-118562873D01*
X186230332Y-118618707D01*
X186333148Y-118700814D01*
X186365359Y-118738378D01*
X186431323Y-118856296D01*
X186463386Y-118981027D01*
X186471504Y-119125874D01*
X186459404Y-119266040D01*
X186441563Y-119367695D01*
X186230733Y-120379935D01*
G37*
G36*
X189005185Y-117907122D02*
G01*
X189019156Y-117976976D01*
X188519386Y-120379935D01*
X188476204Y-120449788D01*
X188402540Y-120479000D01*
X187971354Y-120479000D01*
X187910391Y-120450423D01*
X187896420Y-120381205D01*
X187913566Y-120298016D01*
X187815990Y-120385892D01*
X187780844Y-120412956D01*
X187666896Y-120471538D01*
X187618911Y-120487890D01*
X187491568Y-120513564D01*
X187372519Y-120519642D01*
X187232126Y-120509401D01*
X187107108Y-120478680D01*
X186983059Y-120418490D01*
X186879092Y-120331551D01*
X186856239Y-120305636D01*
X186782932Y-120185972D01*
X186744380Y-120060495D01*
X186729711Y-119915630D01*
X186736148Y-119776030D01*
X186738622Y-119758239D01*
X187397285Y-119758239D01*
X187436022Y-119861114D01*
X187540100Y-119935346D01*
X187651298Y-119950018D01*
X187783861Y-119928745D01*
X187890705Y-119864924D01*
X187976900Y-119762862D01*
X188029142Y-119653459D01*
X188062208Y-119529652D01*
X188063433Y-119523912D01*
X188083062Y-119396722D01*
X188083119Y-119394366D01*
X188073274Y-119267737D01*
X188034222Y-119184806D01*
X187925572Y-119110040D01*
X187828472Y-119097806D01*
X187694957Y-119117341D01*
X187582378Y-119181241D01*
X187576364Y-119186711D01*
X187494922Y-119289586D01*
X187443657Y-119411408D01*
X187441103Y-119420402D01*
X187415701Y-119523912D01*
X187397920Y-119627422D01*
X187397285Y-119758239D01*
X186738622Y-119758239D01*
X186750188Y-119675050D01*
X186778130Y-119523912D01*
X186812422Y-119376585D01*
X186848173Y-119251135D01*
X186901635Y-119113611D01*
X186966616Y-118990286D01*
X187043118Y-118881160D01*
X187131139Y-118786233D01*
X187179470Y-118744094D01*
X187299248Y-118659964D01*
X187426318Y-118596499D01*
X187560682Y-118553696D01*
X187702339Y-118531557D01*
X187786560Y-118528183D01*
X187913576Y-118537738D01*
X188038440Y-118576556D01*
X188071689Y-118596131D01*
X188170829Y-118684125D01*
X188216476Y-118753619D01*
X188377774Y-117976341D01*
X188420956Y-117907122D01*
X188495255Y-117877911D01*
X188943587Y-117877911D01*
X189005185Y-117907122D01*
G37*
D11*
X105783828Y-126643571D02*
X105783828Y-127043571D01*
X105155257Y-127214999D02*
X105155257Y-126643571D01*
X105155257Y-126643571D02*
X106355257Y-126643571D01*
X106355257Y-126643571D02*
X106355257Y-127214999D01*
X105155257Y-127729285D02*
X106355257Y-127729285D01*
X106355257Y-127729285D02*
X105498114Y-128129285D01*
X105498114Y-128129285D02*
X106355257Y-128529285D01*
X106355257Y-128529285D02*
X105155257Y-128529285D01*
X106298114Y-129729285D02*
X106355257Y-129615000D01*
X106355257Y-129615000D02*
X106355257Y-129443571D01*
X106355257Y-129443571D02*
X106298114Y-129272142D01*
X106298114Y-129272142D02*
X106183828Y-129157857D01*
X106183828Y-129157857D02*
X106069542Y-129100714D01*
X106069542Y-129100714D02*
X105840971Y-129043571D01*
X105840971Y-129043571D02*
X105669542Y-129043571D01*
X105669542Y-129043571D02*
X105440971Y-129100714D01*
X105440971Y-129100714D02*
X105326685Y-129157857D01*
X105326685Y-129157857D02*
X105212400Y-129272142D01*
X105212400Y-129272142D02*
X105155257Y-129443571D01*
X105155257Y-129443571D02*
X105155257Y-129557857D01*
X105155257Y-129557857D02*
X105212400Y-129729285D01*
X105212400Y-129729285D02*
X105269542Y-129786428D01*
X105269542Y-129786428D02*
X105669542Y-129786428D01*
X105669542Y-129786428D02*
X105669542Y-129557857D01*
X106240971Y-131157857D02*
X106298114Y-131215000D01*
X106298114Y-131215000D02*
X106355257Y-131329286D01*
X106355257Y-131329286D02*
X106355257Y-131615000D01*
X106355257Y-131615000D02*
X106298114Y-131729286D01*
X106298114Y-131729286D02*
X106240971Y-131786428D01*
X106240971Y-131786428D02*
X106126685Y-131843571D01*
X106126685Y-131843571D02*
X106012400Y-131843571D01*
X106012400Y-131843571D02*
X105840971Y-131786428D01*
X105840971Y-131786428D02*
X105155257Y-131100714D01*
X105155257Y-131100714D02*
X105155257Y-131843571D01*
D13*
X124666667Y-104081366D02*
X124233333Y-104081366D01*
X124233333Y-104081366D02*
X124466667Y-103814700D01*
X124466667Y-103814700D02*
X124366667Y-103814700D01*
X124366667Y-103814700D02*
X124300000Y-103781366D01*
X124300000Y-103781366D02*
X124266667Y-103748033D01*
X124266667Y-103748033D02*
X124233333Y-103681366D01*
X124233333Y-103681366D02*
X124233333Y-103514700D01*
X124233333Y-103514700D02*
X124266667Y-103448033D01*
X124266667Y-103448033D02*
X124300000Y-103414700D01*
X124300000Y-103414700D02*
X124366667Y-103381366D01*
X124366667Y-103381366D02*
X124566667Y-103381366D01*
X124566667Y-103381366D02*
X124633333Y-103414700D01*
X124633333Y-103414700D02*
X124666667Y-103448033D01*
X124033333Y-104081366D02*
X123800000Y-103381366D01*
X123800000Y-103381366D02*
X123566666Y-104081366D01*
X123400000Y-104081366D02*
X122966666Y-104081366D01*
X122966666Y-104081366D02*
X123200000Y-103814700D01*
X123200000Y-103814700D02*
X123100000Y-103814700D01*
X123100000Y-103814700D02*
X123033333Y-103781366D01*
X123033333Y-103781366D02*
X123000000Y-103748033D01*
X123000000Y-103748033D02*
X122966666Y-103681366D01*
X122966666Y-103681366D02*
X122966666Y-103514700D01*
X122966666Y-103514700D02*
X123000000Y-103448033D01*
X123000000Y-103448033D02*
X123033333Y-103414700D01*
X123033333Y-103414700D02*
X123100000Y-103381366D01*
X123100000Y-103381366D02*
X123300000Y-103381366D01*
X123300000Y-103381366D02*
X123366666Y-103414700D01*
X123366666Y-103414700D02*
X123400000Y-103448033D01*
D10*
X188499999Y-108950633D02*
X187966666Y-108950633D01*
X188233332Y-108683966D02*
X188233332Y-109217300D01*
X186033333Y-108950633D02*
X185500000Y-108950633D01*
X148633333Y-141168483D02*
X149166667Y-141168483D01*
X148900000Y-141435150D02*
X148900000Y-140901817D01*
X148733333Y-143489072D02*
X149066666Y-143489072D01*
X148666666Y-143689072D02*
X148900000Y-142989072D01*
X148900000Y-142989072D02*
X149133333Y-143689072D01*
X148950000Y-145576327D02*
X149050000Y-145609661D01*
X149050000Y-145609661D02*
X149083333Y-145642994D01*
X149083333Y-145642994D02*
X149116666Y-145709661D01*
X149116666Y-145709661D02*
X149116666Y-145809661D01*
X149116666Y-145809661D02*
X149083333Y-145876327D01*
X149083333Y-145876327D02*
X149050000Y-145909661D01*
X149050000Y-145909661D02*
X148983333Y-145942994D01*
X148983333Y-145942994D02*
X148716666Y-145942994D01*
X148716666Y-145942994D02*
X148716666Y-145242994D01*
X148716666Y-145242994D02*
X148950000Y-145242994D01*
X148950000Y-145242994D02*
X149016666Y-145276327D01*
X149016666Y-145276327D02*
X149050000Y-145309661D01*
X149050000Y-145309661D02*
X149083333Y-145376327D01*
X149083333Y-145376327D02*
X149083333Y-145442994D01*
X149083333Y-145442994D02*
X149050000Y-145509661D01*
X149050000Y-145509661D02*
X149016666Y-145542994D01*
X149016666Y-145542994D02*
X148950000Y-145576327D01*
X148950000Y-145576327D02*
X148716666Y-145576327D01*
X148633333Y-147930249D02*
X149166667Y-147930249D01*
X163116033Y-119516666D02*
X162782700Y-119749999D01*
X163116033Y-119916666D02*
X162416033Y-119916666D01*
X162416033Y-119916666D02*
X162416033Y-119649999D01*
X162416033Y-119649999D02*
X162449366Y-119583333D01*
X162449366Y-119583333D02*
X162482700Y-119549999D01*
X162482700Y-119549999D02*
X162549366Y-119516666D01*
X162549366Y-119516666D02*
X162649366Y-119516666D01*
X162649366Y-119516666D02*
X162716033Y-119549999D01*
X162716033Y-119549999D02*
X162749366Y-119583333D01*
X162749366Y-119583333D02*
X162782700Y-119649999D01*
X162782700Y-119649999D02*
X162782700Y-119916666D01*
X162416033Y-119283333D02*
X163116033Y-118816666D01*
X162416033Y-118816666D02*
X163116033Y-119283333D01*
D13*
X163433332Y-103948033D02*
X163499999Y-103981366D01*
X163499999Y-103981366D02*
X163599999Y-103981366D01*
X163599999Y-103981366D02*
X163699999Y-103948033D01*
X163699999Y-103948033D02*
X163766666Y-103881366D01*
X163766666Y-103881366D02*
X163799999Y-103814700D01*
X163799999Y-103814700D02*
X163833332Y-103681366D01*
X163833332Y-103681366D02*
X163833332Y-103581366D01*
X163833332Y-103581366D02*
X163799999Y-103448033D01*
X163799999Y-103448033D02*
X163766666Y-103381366D01*
X163766666Y-103381366D02*
X163699999Y-103314700D01*
X163699999Y-103314700D02*
X163599999Y-103281366D01*
X163599999Y-103281366D02*
X163533332Y-103281366D01*
X163533332Y-103281366D02*
X163433332Y-103314700D01*
X163433332Y-103314700D02*
X163399999Y-103348033D01*
X163399999Y-103348033D02*
X163399999Y-103581366D01*
X163399999Y-103581366D02*
X163533332Y-103581366D01*
X163099999Y-103281366D02*
X163099999Y-103981366D01*
X163099999Y-103981366D02*
X162699999Y-103281366D01*
X162699999Y-103281366D02*
X162699999Y-103981366D01*
X162366666Y-103281366D02*
X162366666Y-103981366D01*
X162366666Y-103981366D02*
X162199999Y-103981366D01*
X162199999Y-103981366D02*
X162099999Y-103948033D01*
X162099999Y-103948033D02*
X162033333Y-103881366D01*
X162033333Y-103881366D02*
X161999999Y-103814700D01*
X161999999Y-103814700D02*
X161966666Y-103681366D01*
X161966666Y-103681366D02*
X161966666Y-103581366D01*
X161966666Y-103581366D02*
X161999999Y-103448033D01*
X161999999Y-103448033D02*
X162033333Y-103381366D01*
X162033333Y-103381366D02*
X162099999Y-103314700D01*
X162099999Y-103314700D02*
X162199999Y-103281366D01*
X162199999Y-103281366D02*
X162366666Y-103281366D01*
X159033333Y-103981366D02*
X159366666Y-103981366D01*
X159366666Y-103981366D02*
X159399999Y-103648033D01*
X159399999Y-103648033D02*
X159366666Y-103681366D01*
X159366666Y-103681366D02*
X159299999Y-103714700D01*
X159299999Y-103714700D02*
X159133333Y-103714700D01*
X159133333Y-103714700D02*
X159066666Y-103681366D01*
X159066666Y-103681366D02*
X159033333Y-103648033D01*
X159033333Y-103648033D02*
X158999999Y-103581366D01*
X158999999Y-103581366D02*
X158999999Y-103414700D01*
X158999999Y-103414700D02*
X159033333Y-103348033D01*
X159033333Y-103348033D02*
X159066666Y-103314700D01*
X159066666Y-103314700D02*
X159133333Y-103281366D01*
X159133333Y-103281366D02*
X159299999Y-103281366D01*
X159299999Y-103281366D02*
X159366666Y-103314700D01*
X159366666Y-103314700D02*
X159399999Y-103348033D01*
X158799999Y-103981366D02*
X158566666Y-103281366D01*
X158566666Y-103281366D02*
X158333332Y-103981366D01*
D10*
X131382700Y-126833333D02*
X131416033Y-126733333D01*
X131416033Y-126733333D02*
X131416033Y-126566667D01*
X131416033Y-126566667D02*
X131382700Y-126500000D01*
X131382700Y-126500000D02*
X131349366Y-126466667D01*
X131349366Y-126466667D02*
X131282700Y-126433333D01*
X131282700Y-126433333D02*
X131216033Y-126433333D01*
X131216033Y-126433333D02*
X131149366Y-126466667D01*
X131149366Y-126466667D02*
X131116033Y-126500000D01*
X131116033Y-126500000D02*
X131082700Y-126566667D01*
X131082700Y-126566667D02*
X131049366Y-126700000D01*
X131049366Y-126700000D02*
X131016033Y-126766667D01*
X131016033Y-126766667D02*
X130982700Y-126800000D01*
X130982700Y-126800000D02*
X130916033Y-126833333D01*
X130916033Y-126833333D02*
X130849366Y-126833333D01*
X130849366Y-126833333D02*
X130782700Y-126800000D01*
X130782700Y-126800000D02*
X130749366Y-126766667D01*
X130749366Y-126766667D02*
X130716033Y-126700000D01*
X130716033Y-126700000D02*
X130716033Y-126533333D01*
X130716033Y-126533333D02*
X130749366Y-126433333D01*
X131349366Y-125733333D02*
X131382700Y-125766666D01*
X131382700Y-125766666D02*
X131416033Y-125866666D01*
X131416033Y-125866666D02*
X131416033Y-125933333D01*
X131416033Y-125933333D02*
X131382700Y-126033333D01*
X131382700Y-126033333D02*
X131316033Y-126100000D01*
X131316033Y-126100000D02*
X131249366Y-126133333D01*
X131249366Y-126133333D02*
X131116033Y-126166666D01*
X131116033Y-126166666D02*
X131016033Y-126166666D01*
X131016033Y-126166666D02*
X130882700Y-126133333D01*
X130882700Y-126133333D02*
X130816033Y-126100000D01*
X130816033Y-126100000D02*
X130749366Y-126033333D01*
X130749366Y-126033333D02*
X130716033Y-125933333D01*
X130716033Y-125933333D02*
X130716033Y-125866666D01*
X130716033Y-125866666D02*
X130749366Y-125766666D01*
X130749366Y-125766666D02*
X130782700Y-125733333D01*
X131416033Y-125100000D02*
X131416033Y-125433333D01*
X131416033Y-125433333D02*
X130716033Y-125433333D01*
D11*
X192700000Y-111216171D02*
X192871428Y-111273314D01*
X192871428Y-111273314D02*
X192928571Y-111330457D01*
X192928571Y-111330457D02*
X192985714Y-111444742D01*
X192985714Y-111444742D02*
X192985714Y-111616171D01*
X192985714Y-111616171D02*
X192928571Y-111730457D01*
X192928571Y-111730457D02*
X192871428Y-111787600D01*
X192871428Y-111787600D02*
X192757143Y-111844742D01*
X192757143Y-111844742D02*
X192300000Y-111844742D01*
X192300000Y-111844742D02*
X192300000Y-110644742D01*
X192300000Y-110644742D02*
X192700000Y-110644742D01*
X192700000Y-110644742D02*
X192814286Y-110701885D01*
X192814286Y-110701885D02*
X192871428Y-110759028D01*
X192871428Y-110759028D02*
X192928571Y-110873314D01*
X192928571Y-110873314D02*
X192928571Y-110987600D01*
X192928571Y-110987600D02*
X192871428Y-111101885D01*
X192871428Y-111101885D02*
X192814286Y-111159028D01*
X192814286Y-111159028D02*
X192700000Y-111216171D01*
X192700000Y-111216171D02*
X192300000Y-111216171D01*
X193328571Y-110644742D02*
X194014286Y-110644742D01*
X193671428Y-111844742D02*
X193671428Y-110644742D01*
X194414286Y-111844742D02*
X194414286Y-110644742D01*
X194414286Y-110644742D02*
X195100000Y-111844742D01*
X195100000Y-111844742D02*
X195100000Y-110644742D01*
D13*
X133766667Y-104381366D02*
X133333333Y-104381366D01*
X133333333Y-104381366D02*
X133566667Y-104114700D01*
X133566667Y-104114700D02*
X133466667Y-104114700D01*
X133466667Y-104114700D02*
X133400000Y-104081366D01*
X133400000Y-104081366D02*
X133366667Y-104048033D01*
X133366667Y-104048033D02*
X133333333Y-103981366D01*
X133333333Y-103981366D02*
X133333333Y-103814700D01*
X133333333Y-103814700D02*
X133366667Y-103748033D01*
X133366667Y-103748033D02*
X133400000Y-103714700D01*
X133400000Y-103714700D02*
X133466667Y-103681366D01*
X133466667Y-103681366D02*
X133666667Y-103681366D01*
X133666667Y-103681366D02*
X133733333Y-103714700D01*
X133733333Y-103714700D02*
X133766667Y-103748033D01*
X133133333Y-104381366D02*
X132900000Y-103681366D01*
X132900000Y-103681366D02*
X132666666Y-104381366D01*
X132500000Y-104381366D02*
X132066666Y-104381366D01*
X132066666Y-104381366D02*
X132300000Y-104114700D01*
X132300000Y-104114700D02*
X132200000Y-104114700D01*
X132200000Y-104114700D02*
X132133333Y-104081366D01*
X132133333Y-104081366D02*
X132100000Y-104048033D01*
X132100000Y-104048033D02*
X132066666Y-103981366D01*
X132066666Y-103981366D02*
X132066666Y-103814700D01*
X132066666Y-103814700D02*
X132100000Y-103748033D01*
X132100000Y-103748033D02*
X132133333Y-103714700D01*
X132133333Y-103714700D02*
X132200000Y-103681366D01*
X132200000Y-103681366D02*
X132400000Y-103681366D01*
X132400000Y-103681366D02*
X132466666Y-103714700D01*
X132466666Y-103714700D02*
X132500000Y-103748033D01*
D10*
X162416033Y-122533333D02*
X162416033Y-122133333D01*
X163116033Y-122333333D02*
X162416033Y-122333333D01*
X162416033Y-121966667D02*
X163116033Y-121500000D01*
X162416033Y-121500000D02*
X163116033Y-121966667D01*
D13*
X129833332Y-103948033D02*
X129899999Y-103981366D01*
X129899999Y-103981366D02*
X129999999Y-103981366D01*
X129999999Y-103981366D02*
X130099999Y-103948033D01*
X130099999Y-103948033D02*
X130166666Y-103881366D01*
X130166666Y-103881366D02*
X130199999Y-103814700D01*
X130199999Y-103814700D02*
X130233332Y-103681366D01*
X130233332Y-103681366D02*
X130233332Y-103581366D01*
X130233332Y-103581366D02*
X130199999Y-103448033D01*
X130199999Y-103448033D02*
X130166666Y-103381366D01*
X130166666Y-103381366D02*
X130099999Y-103314700D01*
X130099999Y-103314700D02*
X129999999Y-103281366D01*
X129999999Y-103281366D02*
X129933332Y-103281366D01*
X129933332Y-103281366D02*
X129833332Y-103314700D01*
X129833332Y-103314700D02*
X129799999Y-103348033D01*
X129799999Y-103348033D02*
X129799999Y-103581366D01*
X129799999Y-103581366D02*
X129933332Y-103581366D01*
X129499999Y-103281366D02*
X129499999Y-103981366D01*
X129499999Y-103981366D02*
X129099999Y-103281366D01*
X129099999Y-103281366D02*
X129099999Y-103981366D01*
X128766666Y-103281366D02*
X128766666Y-103981366D01*
X128766666Y-103981366D02*
X128599999Y-103981366D01*
X128599999Y-103981366D02*
X128499999Y-103948033D01*
X128499999Y-103948033D02*
X128433333Y-103881366D01*
X128433333Y-103881366D02*
X128399999Y-103814700D01*
X128399999Y-103814700D02*
X128366666Y-103681366D01*
X128366666Y-103681366D02*
X128366666Y-103581366D01*
X128366666Y-103581366D02*
X128399999Y-103448033D01*
X128399999Y-103448033D02*
X128433333Y-103381366D01*
X128433333Y-103381366D02*
X128499999Y-103314700D01*
X128499999Y-103314700D02*
X128599999Y-103281366D01*
X128599999Y-103281366D02*
X128766666Y-103281366D01*
D15*
%TO.C,R65*%
X140065000Y-133372936D02*
X140065000Y-133827064D01*
X141535000Y-133372936D02*
X141535000Y-133827064D01*
%TO.C,TP15*%
X183300000Y-116300000D02*
G75*
G02*
X181900000Y-116300000I-700000J0D01*
G01*
X181900000Y-116300000D02*
G75*
G02*
X183300000Y-116300000I700000J0D01*
G01*
%TO.C,R46*%
X181265000Y-132227064D02*
X181265000Y-131772936D01*
X182735000Y-132227064D02*
X182735000Y-131772936D01*
%TO.C,C29*%
X124961252Y-128265000D02*
X124438748Y-128265000D01*
X124961252Y-129735000D02*
X124438748Y-129735000D01*
%TO.C,C9*%
X140688748Y-124065000D02*
X141211252Y-124065000D01*
X140688748Y-125535000D02*
X141211252Y-125535000D01*
%TO.C,C32*%
X183065000Y-123538748D02*
X183065000Y-124061252D01*
X184535000Y-123538748D02*
X184535000Y-124061252D01*
%TO.C,TP20*%
X108500000Y-118300000D02*
G75*
G02*
X107100000Y-118300000I-700000J0D01*
G01*
X107100000Y-118300000D02*
G75*
G02*
X108500000Y-118300000I700000J0D01*
G01*
%TO.C,C13*%
X167538748Y-101690000D02*
X168061252Y-101690000D01*
X167538748Y-103160000D02*
X168061252Y-103160000D01*
%TO.C,R20*%
X109365000Y-136722936D02*
X109365000Y-137177064D01*
X110835000Y-136722936D02*
X110835000Y-137177064D01*
%TO.C,TP25*%
X111500000Y-147000000D02*
G75*
G02*
X110100000Y-147000000I-700000J0D01*
G01*
X110100000Y-147000000D02*
G75*
G02*
X111500000Y-147000000I700000J0D01*
G01*
%TO.C,J1*%
X165240000Y-141425000D02*
X166460000Y-141425000D01*
X165240000Y-148625000D02*
X166460000Y-148625000D01*
X165240000Y-149845000D02*
X165240000Y-141425000D01*
X166460000Y-141425000D02*
X166460000Y-143625000D01*
X166460000Y-143625000D02*
X165240000Y-143625000D01*
X166460000Y-148625000D02*
X166460000Y-143625000D01*
X167530000Y-144625000D02*
X167850000Y-144625000D01*
X167530000Y-148045000D02*
X167530000Y-144625000D01*
X167850000Y-144625000D02*
X168170000Y-144625000D01*
X167850000Y-148125000D02*
X167530000Y-148045000D01*
X168170000Y-144625000D02*
X168170000Y-148045000D01*
X168170000Y-148045000D02*
X167850000Y-148125000D01*
X169180000Y-143625000D02*
X169020000Y-143625000D01*
X170030000Y-144625000D02*
X170350000Y-144625000D01*
X170030000Y-148045000D02*
X170030000Y-144625000D01*
X170350000Y-144625000D02*
X170670000Y-144625000D01*
X170350000Y-148125000D02*
X170030000Y-148045000D01*
X170670000Y-144625000D02*
X170670000Y-148045000D01*
X170670000Y-148045000D02*
X170350000Y-148125000D01*
X171740000Y-141425000D02*
X172960000Y-141425000D01*
X171740000Y-143625000D02*
X171740000Y-141425000D01*
X171740000Y-143625000D02*
X172960000Y-143625000D01*
X171740000Y-144625000D02*
X166460000Y-144625000D01*
X171740000Y-148625000D02*
X171740000Y-143625000D01*
X172960000Y-141425000D02*
X172960000Y-149845000D01*
X172960000Y-148625000D02*
X171740000Y-148625000D01*
X172960000Y-149845000D02*
X165240000Y-149845000D01*
%TO.C,C27*%
X117761252Y-128265000D02*
X117238748Y-128265000D01*
X117761252Y-129735000D02*
X117238748Y-129735000D01*
%TO.C,C5*%
X157465000Y-120338747D02*
X157465000Y-120861253D01*
X158935000Y-120338747D02*
X158935000Y-120861253D01*
%TO.C,TP34*%
X191450000Y-126250000D02*
G75*
G02*
X190050000Y-126250000I-700000J0D01*
G01*
X190050000Y-126250000D02*
G75*
G02*
X191450000Y-126250000I700000J0D01*
G01*
%TO.C,C20*%
X113961252Y-100865000D02*
X113438748Y-100865000D01*
X113961252Y-102335000D02*
X113438748Y-102335000D01*
%TO.C,R48*%
X186727064Y-135090000D02*
X185272936Y-135090000D01*
X186727064Y-136910000D02*
X185272936Y-136910000D01*
%TO.C,TP18*%
X110550000Y-101800000D02*
G75*
G02*
X108650000Y-101800000I-950000J0D01*
G01*
X108650000Y-101800000D02*
G75*
G02*
X110550000Y-101800000I950000J0D01*
G01*
%TO.C,R63*%
X138065000Y-133372936D02*
X138065000Y-133827064D01*
X139535000Y-133372936D02*
X139535000Y-133827064D01*
%TO.C,C35*%
X178165000Y-123538748D02*
X178165000Y-124061252D01*
X179635000Y-123538748D02*
X179635000Y-124061252D01*
%TO.C,TP17*%
X159800000Y-101850000D02*
G75*
G02*
X157900000Y-101850000I-950000J0D01*
G01*
X157900000Y-101850000D02*
G75*
G02*
X159800000Y-101850000I950000J0D01*
G01*
%TO.C,J15*%
X145070000Y-147130000D02*
X145070000Y-139450000D01*
X147730000Y-139450000D02*
X145070000Y-139450000D01*
X147730000Y-147130000D02*
X145070000Y-147130000D01*
X147730000Y-147130000D02*
X147730000Y-139450000D01*
X147730000Y-148400000D02*
X147730000Y-149730000D01*
X147730000Y-149730000D02*
X146400000Y-149730000D01*
%TO.C,R31*%
X109365000Y-140764564D02*
X109365000Y-140310436D01*
X110835000Y-140764564D02*
X110835000Y-140310436D01*
%TO.C,TP37*%
X136205000Y-144780000D02*
G75*
G02*
X134305000Y-144780000I-950000J0D01*
G01*
X134305000Y-144780000D02*
G75*
G02*
X136205000Y-144780000I950000J0D01*
G01*
%TO.C,R61*%
X135865000Y-133385436D02*
X135865000Y-133839564D01*
X137335000Y-133385436D02*
X137335000Y-133839564D01*
%TO.C,U10*%
X164240000Y-129750000D02*
X164240000Y-127550000D01*
X164240000Y-129750000D02*
X164240000Y-131950000D01*
X169760000Y-129750000D02*
X169760000Y-127550000D01*
X169760000Y-129750000D02*
X169760000Y-131950000D01*
X164965000Y-133990000D02*
X164485000Y-133990000D01*
X164725000Y-133660000D01*
X164965000Y-133990000D01*
G36*
X164965000Y-133990000D02*
G01*
X164485000Y-133990000D01*
X164725000Y-133660000D01*
X164965000Y-133990000D01*
G37*
%TO.C,R45*%
X171765000Y-132227064D02*
X171765000Y-131772936D01*
X173235000Y-132227064D02*
X173235000Y-131772936D01*
%TO.C,R35*%
X120860436Y-128265000D02*
X121314564Y-128265000D01*
X120860436Y-129735000D02*
X121314564Y-129735000D01*
%TO.C,D4*%
X118715000Y-100515000D02*
X118715000Y-104400000D01*
X121885000Y-100515000D02*
X118715000Y-100515000D01*
X121885000Y-104400000D02*
X121885000Y-100515000D01*
%TO.C,TP6*%
X109300000Y-129200000D02*
G75*
G02*
X107400000Y-129200000I-950000J0D01*
G01*
X107400000Y-129200000D02*
G75*
G02*
X109300000Y-129200000I950000J0D01*
G01*
%TO.C,RV1*%
X131780000Y-106880000D02*
X131780000Y-112120000D01*
X132360000Y-112120000D02*
X131780000Y-112120000D01*
X133160000Y-106880000D02*
X131780000Y-106880000D01*
X134660000Y-112120000D02*
X134140000Y-112120000D01*
X137020000Y-106880000D02*
X135640000Y-106880000D01*
X137020000Y-106880000D02*
X137020000Y-112120000D01*
X137020000Y-112120000D02*
X136439000Y-112120000D01*
%TO.C,TP14*%
X132395000Y-144780000D02*
G75*
G02*
X130495000Y-144780000I-950000J0D01*
G01*
X130495000Y-144780000D02*
G75*
G02*
X132395000Y-144780000I950000J0D01*
G01*
%TO.C,R40*%
X123265000Y-140322936D02*
X123265000Y-140777064D01*
X124735000Y-140322936D02*
X124735000Y-140777064D01*
%TO.C,C15*%
X157765000Y-113963748D02*
X157765000Y-114486252D01*
X159235000Y-113963748D02*
X159235000Y-114486252D01*
%TO.C,R41*%
X123365000Y-125872936D02*
X123365000Y-126327064D01*
X124835000Y-125872936D02*
X124835000Y-126327064D01*
%TO.C,TP23*%
X128300000Y-147000000D02*
G75*
G02*
X126900000Y-147000000I-700000J0D01*
G01*
X126900000Y-147000000D02*
G75*
G02*
X128300000Y-147000000I700000J0D01*
G01*
%TO.C,R51*%
X129665000Y-133385436D02*
X129665000Y-133839564D01*
X131135000Y-133385436D02*
X131135000Y-133839564D01*
%TO.C,TP41*%
X136205000Y-142240000D02*
G75*
G02*
X134305000Y-142240000I-950000J0D01*
G01*
X134305000Y-142240000D02*
G75*
G02*
X136205000Y-142240000I950000J0D01*
G01*
%TO.C,TP1*%
X132395000Y-139700000D02*
G75*
G02*
X130495000Y-139700000I-950000J0D01*
G01*
X130495000Y-139700000D02*
G75*
G02*
X132395000Y-139700000I950000J0D01*
G01*
%TO.C,R67*%
X119927064Y-130865000D02*
X119472936Y-130865000D01*
X119927064Y-132335000D02*
X119472936Y-132335000D01*
%TO.C,R1*%
X153772936Y-109665000D02*
X154227064Y-109665000D01*
X153772936Y-111135000D02*
X154227064Y-111135000D01*
%TO.C,R49*%
X190365000Y-132227064D02*
X190365000Y-131772936D01*
X191835000Y-132227064D02*
X191835000Y-131772936D01*
%TO.C,C37*%
X192165000Y-123538748D02*
X192165000Y-124061252D01*
X193635000Y-123538748D02*
X193635000Y-124061252D01*
%TO.C,R37*%
X125365000Y-140777064D02*
X125365000Y-140322936D01*
X126835000Y-140777064D02*
X126835000Y-140322936D01*
%TO.C,C30*%
X124961252Y-146315000D02*
X124438748Y-146315000D01*
X124961252Y-147785000D02*
X124438748Y-147785000D01*
%TO.C,TP13*%
X130250000Y-123460000D02*
G75*
G02*
X128350000Y-123460000I-950000J0D01*
G01*
X128350000Y-123460000D02*
G75*
G02*
X130250000Y-123460000I950000J0D01*
G01*
%TO.C,C4*%
X153811253Y-132865001D02*
X153288747Y-132865001D01*
X153811253Y-134335001D02*
X153288747Y-134335001D01*
%TO.C,TP39*%
X136205000Y-137160000D02*
G75*
G02*
X134305000Y-137160000I-950000J0D01*
G01*
X134305000Y-137160000D02*
G75*
G02*
X136205000Y-137160000I950000J0D01*
G01*
%TO.C,C3*%
X146411252Y-133735001D02*
X145888747Y-133735000D01*
X146411253Y-132265000D02*
X145888748Y-132264999D01*
%TO.C,C17*%
X108765000Y-108661252D02*
X108765000Y-108138748D01*
X110235000Y-108661252D02*
X110235000Y-108138748D01*
%TO.C,TP40*%
X136205000Y-139700000D02*
G75*
G02*
X134305000Y-139700000I-950000J0D01*
G01*
X134305000Y-139700000D02*
G75*
G02*
X136205000Y-139700000I950000J0D01*
G01*
%TO.C,SW1*%
X146800000Y-113500000D02*
X146800000Y-114700000D01*
X146800000Y-116300000D02*
X146800000Y-117500000D01*
X146800000Y-117500000D02*
X153200000Y-117500000D01*
X153200000Y-113500000D02*
X146800000Y-113500000D01*
X153200000Y-114700000D02*
X153200000Y-113500000D01*
X153200000Y-117500000D02*
X153200000Y-116300000D01*
%TO.C,R36*%
X120772936Y-146315000D02*
X121227064Y-146315000D01*
X120772936Y-147785000D02*
X121227064Y-147785000D01*
%TO.C,C2*%
X141161253Y-119665000D02*
X140638747Y-119665000D01*
X141161253Y-121135000D02*
X140638747Y-121135000D01*
%TO.C,C18*%
X125665000Y-102561252D02*
X125665000Y-102038748D01*
X127135000Y-102561252D02*
X127135000Y-102038748D01*
%TO.C,TP2*%
X162150000Y-121870000D02*
G75*
G02*
X160250000Y-121870000I-950000J0D01*
G01*
X160250000Y-121870000D02*
G75*
G02*
X162150000Y-121870000I950000J0D01*
G01*
%TO.C,D3*%
X177815000Y-109452500D02*
X177815000Y-111452500D01*
X177815000Y-109452500D02*
X181825000Y-109452500D01*
X177815000Y-111452500D02*
X181825000Y-111452500D01*
%TO.C,C6*%
X141211252Y-126615000D02*
X140688748Y-126615000D01*
X141211252Y-128085000D02*
X140688748Y-128085000D01*
%TO.C,TP4*%
X132395000Y-142240000D02*
G75*
G02*
X130495000Y-142240000I-950000J0D01*
G01*
X130495000Y-142240000D02*
G75*
G02*
X132395000Y-142240000I950000J0D01*
G01*
%TO.C,R55*%
X164065000Y-120127064D02*
X164065000Y-119672936D01*
X165535000Y-120127064D02*
X165535000Y-119672936D01*
%TO.C,C42*%
X168565000Y-123538748D02*
X168565000Y-124061252D01*
X170035000Y-123538748D02*
X170035000Y-124061252D01*
%TO.C,TP38*%
X136205000Y-147320000D02*
G75*
G02*
X134305000Y-147320000I-950000J0D01*
G01*
X134305000Y-147320000D02*
G75*
G02*
X136205000Y-147320000I950000J0D01*
G01*
%TO.C,J7*%
X155390000Y-141457500D02*
X156610000Y-141457500D01*
X155390000Y-148657500D02*
X156610000Y-148657500D01*
X155390000Y-149877500D02*
X155390000Y-141457500D01*
X156610000Y-141457500D02*
X156610000Y-143657500D01*
X156610000Y-143657500D02*
X155390000Y-143657500D01*
X156610000Y-148657500D02*
X156610000Y-143657500D01*
X157680000Y-144657500D02*
X158000000Y-144657500D01*
X157680000Y-148077500D02*
X157680000Y-144657500D01*
X158000000Y-144657500D02*
X158320000Y-144657500D01*
X158000000Y-148157500D02*
X157680000Y-148077500D01*
X158320000Y-144657500D02*
X158320000Y-148077500D01*
X158320000Y-148077500D02*
X158000000Y-148157500D01*
X159330000Y-143657500D02*
X159170000Y-143657500D01*
X160180000Y-144657500D02*
X160500000Y-144657500D01*
X160180000Y-148077500D02*
X160180000Y-144657500D01*
X160500000Y-144657500D02*
X160820000Y-144657500D01*
X160500000Y-148157500D02*
X160180000Y-148077500D01*
X160820000Y-144657500D02*
X160820000Y-148077500D01*
X160820000Y-148077500D02*
X160500000Y-148157500D01*
X161890000Y-141457500D02*
X163110000Y-141457500D01*
X161890000Y-143657500D02*
X161890000Y-141457500D01*
X161890000Y-143657500D02*
X163110000Y-143657500D01*
X161890000Y-144657500D02*
X156610000Y-144657500D01*
X161890000Y-148657500D02*
X161890000Y-143657500D01*
X163110000Y-141457500D02*
X163110000Y-149877500D01*
X163110000Y-148657500D02*
X161890000Y-148657500D01*
X163110000Y-149877500D02*
X155390000Y-149877500D01*
%TO.C,C10*%
X176940000Y-103465000D02*
X178140000Y-103465000D01*
X176940000Y-106920563D02*
X176940000Y-103465000D01*
X177390000Y-108475000D02*
X177890000Y-108475000D01*
X177640000Y-108725000D02*
X177640000Y-108225000D01*
X178004437Y-107985000D02*
X176940000Y-106920563D01*
X178004437Y-107985000D02*
X178140000Y-107985000D01*
X180395563Y-107985000D02*
X180260000Y-107985000D01*
X180395563Y-107985000D02*
X181460000Y-106920563D01*
X181460000Y-103465000D02*
X180260000Y-103465000D01*
X181460000Y-106920563D02*
X181460000Y-103465000D01*
%TO.C,C12*%
X172865000Y-105936252D02*
X172865000Y-105413748D01*
X174335000Y-105936252D02*
X174335000Y-105413748D01*
%TO.C,R60*%
X133865000Y-129872936D02*
X133865000Y-130327064D01*
X135335000Y-129872936D02*
X135335000Y-130327064D01*
%TO.C,J16*%
X150070000Y-147130000D02*
X150070000Y-139450000D01*
X152730000Y-139450000D02*
X150070000Y-139450000D01*
X152730000Y-147130000D02*
X150070000Y-147130000D01*
X152730000Y-147130000D02*
X152730000Y-139450000D01*
X152730000Y-148400000D02*
X152730000Y-149730000D01*
X152730000Y-149730000D02*
X151400000Y-149730000D01*
%TO.C,R38*%
X125465000Y-122727064D02*
X125465000Y-122272936D01*
X126935000Y-122727064D02*
X126935000Y-122272936D01*
%TO.C,J12*%
X131580000Y-100670000D02*
X131580000Y-103330000D01*
X139260000Y-100670000D02*
X131580000Y-100670000D01*
X139260000Y-100670000D02*
X139260000Y-103330000D01*
X139260000Y-103330000D02*
X131580000Y-103330000D01*
X140530000Y-100670000D02*
X141860000Y-100670000D01*
X141860000Y-100670000D02*
X141860000Y-102000000D01*
%TO.C,R57*%
X129665000Y-129872936D02*
X129665000Y-130327064D01*
X131135000Y-129872936D02*
X131135000Y-130327064D01*
%TO.C,D6*%
X118040000Y-132800000D02*
X118040000Y-134800000D01*
X118040000Y-132800000D02*
X122050000Y-132800000D01*
X118040000Y-134800000D02*
X122050000Y-134800000D01*
%TO.C,R15*%
X116665000Y-101972936D02*
X116665000Y-102427064D01*
X118135000Y-101972936D02*
X118135000Y-102427064D01*
%TO.C,U4*%
X110940000Y-106450000D02*
X110940000Y-104500000D01*
X110940000Y-106450000D02*
X110940000Y-108400000D01*
X116060000Y-106450000D02*
X116060000Y-104500000D01*
X116060000Y-106450000D02*
X116060000Y-108400000D01*
X116295000Y-103990000D02*
X115965000Y-103750000D01*
X116295000Y-103510000D01*
X116295000Y-103990000D01*
G36*
X116295000Y-103990000D02*
G01*
X115965000Y-103750000D01*
X116295000Y-103510000D01*
X116295000Y-103990000D01*
G37*
%TO.C,U5*%
X115402500Y-117250000D02*
X115402500Y-118090000D01*
X115402500Y-127670000D02*
X115402500Y-126830000D01*
X118162500Y-117250000D02*
X115402500Y-117250000D01*
X118162500Y-117250000D02*
X120922500Y-117250000D01*
X118162500Y-127670000D02*
X115402500Y-127670000D01*
X118162500Y-127670000D02*
X120922500Y-127670000D01*
X120922500Y-117250000D02*
X120922500Y-118090000D01*
X120922500Y-127670000D02*
X120922500Y-126830000D01*
X114612500Y-118090000D02*
X114372500Y-117760000D01*
X114852500Y-117760000D01*
X114612500Y-118090000D01*
G36*
X114612500Y-118090000D02*
G01*
X114372500Y-117760000D01*
X114852500Y-117760000D01*
X114612500Y-118090000D01*
G37*
%TO.C,TP5*%
X132395000Y-137160000D02*
G75*
G02*
X130495000Y-137160000I-950000J0D01*
G01*
X130495000Y-137160000D02*
G75*
G02*
X132395000Y-137160000I950000J0D01*
G01*
%TO.C,TP3*%
X162150000Y-119330000D02*
G75*
G02*
X160250000Y-119330000I-950000J0D01*
G01*
X160250000Y-119330000D02*
G75*
G02*
X162150000Y-119330000I950000J0D01*
G01*
%TO.C,J11*%
X100970000Y-125370000D02*
X102300000Y-125370000D01*
X100970000Y-126700000D02*
X100970000Y-125370000D01*
X100970000Y-127970000D02*
X100970000Y-133110000D01*
X100970000Y-127970000D02*
X103630000Y-127970000D01*
X100970000Y-133110000D02*
X103630000Y-133110000D01*
X103630000Y-127970000D02*
X103630000Y-133110000D01*
%TO.C,R16*%
X160165000Y-106272936D02*
X160165000Y-106727064D01*
X161635000Y-106272936D02*
X161635000Y-106727064D01*
%TO.C,C1*%
X141161252Y-115365000D02*
X140638748Y-115365000D01*
X141161252Y-116835000D02*
X140638748Y-116835000D01*
%TO.C,R9*%
X140672936Y-117465000D02*
X141127064Y-117465000D01*
X140672936Y-118935000D02*
X141127064Y-118935000D01*
%TO.C,R6*%
X155515000Y-114022936D02*
X155515000Y-114477064D01*
X156985000Y-114022936D02*
X156985000Y-114477064D01*
%TO.C,R22*%
X109127064Y-130865000D02*
X108672936Y-130865000D01*
X109127064Y-132335000D02*
X108672936Y-132335000D01*
%TO.C,C31*%
X173565000Y-123538748D02*
X173565000Y-124061252D01*
X175035000Y-123538748D02*
X175035000Y-124061252D01*
%TO.C,C44*%
X116361252Y-112865000D02*
X115838748Y-112865000D01*
X116361252Y-114335000D02*
X115838748Y-114335000D01*
%TO.C,U8*%
X183240000Y-129750000D02*
X183240000Y-127550000D01*
X183240000Y-129750000D02*
X183240000Y-131950000D01*
X188760000Y-129750000D02*
X188760000Y-127550000D01*
X188760000Y-129750000D02*
X188760000Y-131950000D01*
X183965000Y-133990000D02*
X183485000Y-133990000D01*
X183725000Y-133660000D01*
X183965000Y-133990000D01*
G36*
X183965000Y-133990000D02*
G01*
X183485000Y-133990000D01*
X183725000Y-133660000D01*
X183965000Y-133990000D01*
G37*
%TO.C,C25*%
X111465000Y-136688748D02*
X111465000Y-137211252D01*
X112935000Y-136688748D02*
X112935000Y-137211252D01*
%TO.C,C28*%
X117611252Y-146315000D02*
X117088748Y-146315000D01*
X117611252Y-147785000D02*
X117088748Y-147785000D01*
%TO.C,RV3*%
X123330000Y-114680000D02*
X123330000Y-119920000D01*
X123910000Y-119920000D02*
X123330000Y-119920000D01*
X124710000Y-114680000D02*
X123330000Y-114680000D01*
X126210000Y-119920000D02*
X125690000Y-119920000D01*
X128570000Y-114680000D02*
X127190000Y-114680000D01*
X128570000Y-114680000D02*
X128570000Y-119920000D01*
X128570000Y-119920000D02*
X127989000Y-119920000D01*
%TO.C,C22*%
X116311252Y-133015000D02*
X115788748Y-133015000D01*
X116311252Y-134485000D02*
X115788748Y-134485000D01*
%TO.C,U9*%
X192320000Y-129750000D02*
X192320000Y-127550000D01*
X192320000Y-129750000D02*
X192320000Y-131950000D01*
X197840000Y-129750000D02*
X197840000Y-127550000D01*
X197840000Y-129750000D02*
X197840000Y-131950000D01*
X193045000Y-133990000D02*
X192565000Y-133990000D01*
X192805000Y-133660000D01*
X193045000Y-133990000D01*
G36*
X193045000Y-133990000D02*
G01*
X192565000Y-133990000D01*
X192805000Y-133660000D01*
X193045000Y-133990000D01*
G37*
%TO.C,C34*%
X185365000Y-123538748D02*
X185365000Y-124061252D01*
X186835000Y-123538748D02*
X186835000Y-124061252D01*
%TO.C,R2*%
X146427064Y-109665000D02*
X145972936Y-109665000D01*
X146427064Y-111135000D02*
X145972936Y-111135000D01*
%TO.C,R28*%
X109465000Y-122727064D02*
X109465000Y-122272936D01*
X110935000Y-122727064D02*
X110935000Y-122272936D01*
%TO.C,R34*%
X109365000Y-143922936D02*
X109365000Y-144377064D01*
X110835000Y-143922936D02*
X110835000Y-144377064D01*
%TO.C,RV2*%
X137680000Y-106880000D02*
X137680000Y-112120000D01*
X138260000Y-112120000D02*
X137680000Y-112120000D01*
X139060000Y-106880000D02*
X137680000Y-106880000D01*
X140560000Y-112120000D02*
X140040000Y-112120000D01*
X142920000Y-106880000D02*
X141540000Y-106880000D01*
X142920000Y-106880000D02*
X142920000Y-112120000D01*
X142920000Y-112120000D02*
X142339000Y-112120000D01*
%TO.C,C24*%
X111565000Y-122238748D02*
X111565000Y-122761252D01*
X113035000Y-122238748D02*
X113035000Y-122761252D01*
%TO.C,RV4*%
X123180000Y-132730000D02*
X123180000Y-137970000D01*
X123760000Y-137970000D02*
X123180000Y-137970000D01*
X124560000Y-132730000D02*
X123180000Y-132730000D01*
X126060000Y-137970000D02*
X125540000Y-137970000D01*
X128420000Y-132730000D02*
X127040000Y-132730000D01*
X128420000Y-132730000D02*
X128420000Y-137970000D01*
X128420000Y-137970000D02*
X127839000Y-137970000D01*
%TO.C,R52*%
X195927064Y-135090000D02*
X194472936Y-135090000D01*
X195927064Y-136910000D02*
X194472936Y-136910000D01*
%TO.C,C26*%
X111465000Y-140288748D02*
X111465000Y-140811252D01*
X112935000Y-140288748D02*
X112935000Y-140811252D01*
%TO.C,R26*%
X113472936Y-146315000D02*
X113927064Y-146315000D01*
X113472936Y-147785000D02*
X113927064Y-147785000D01*
%TO.C,C8*%
X140688748Y-121865000D02*
X141211252Y-121865000D01*
X140688748Y-123335000D02*
X141211252Y-123335000D01*
%TO.C,TP36*%
X132395000Y-147320000D02*
G75*
G02*
X130495000Y-147320000I-950000J0D01*
G01*
X130495000Y-147320000D02*
G75*
G02*
X132395000Y-147320000I950000J0D01*
G01*
%TO.C,U6*%
X115340000Y-135300000D02*
X115340000Y-136140000D01*
X115340000Y-145720000D02*
X115340000Y-144880000D01*
X118100000Y-135300000D02*
X115340000Y-135300000D01*
X118100000Y-135300000D02*
X120860000Y-135300000D01*
X118100000Y-145720000D02*
X115340000Y-145720000D01*
X118100000Y-145720000D02*
X120860000Y-145720000D01*
X120860000Y-135300000D02*
X120860000Y-136140000D01*
X120860000Y-145720000D02*
X120860000Y-144880000D01*
X114550000Y-136140000D02*
X114310000Y-135810000D01*
X114790000Y-135810000D01*
X114550000Y-136140000D01*
G36*
X114550000Y-136140000D02*
G01*
X114310000Y-135810000D01*
X114790000Y-135810000D01*
X114550000Y-136140000D01*
G37*
%TO.C,J3*%
X183140000Y-100422500D02*
X190860000Y-100422500D01*
X183140000Y-101642500D02*
X184360000Y-101642500D01*
X183140000Y-108842500D02*
X183140000Y-100422500D01*
X184360000Y-101642500D02*
X184360000Y-106642500D01*
X184360000Y-105642500D02*
X189640000Y-105642500D01*
X184360000Y-106642500D02*
X183140000Y-106642500D01*
X184360000Y-106642500D02*
X184360000Y-108842500D01*
X184360000Y-108842500D02*
X183140000Y-108842500D01*
X185430000Y-102222500D02*
X185750000Y-102142500D01*
X185430000Y-105642500D02*
X185430000Y-102222500D01*
X185750000Y-102142500D02*
X186070000Y-102222500D01*
X185750000Y-105642500D02*
X185430000Y-105642500D01*
X186070000Y-102222500D02*
X186070000Y-105642500D01*
X186070000Y-105642500D02*
X185750000Y-105642500D01*
X186920000Y-106642500D02*
X187080000Y-106642500D01*
X187930000Y-102222500D02*
X188250000Y-102142500D01*
X187930000Y-105642500D02*
X187930000Y-102222500D01*
X188250000Y-102142500D02*
X188570000Y-102222500D01*
X188250000Y-105642500D02*
X187930000Y-105642500D01*
X188570000Y-102222500D02*
X188570000Y-105642500D01*
X188570000Y-105642500D02*
X188250000Y-105642500D01*
X189640000Y-101642500D02*
X189640000Y-106642500D01*
X189640000Y-106642500D02*
X190860000Y-106642500D01*
X189640000Y-108842500D02*
X189640000Y-106642500D01*
X190860000Y-100422500D02*
X190860000Y-108842500D01*
X190860000Y-101642500D02*
X189640000Y-101642500D01*
X190860000Y-108842500D02*
X189640000Y-108842500D01*
%TO.C,TP31*%
X182200000Y-124000000D02*
G75*
G02*
X180800000Y-124000000I-700000J0D01*
G01*
X180800000Y-124000000D02*
G75*
G02*
X182200000Y-124000000I700000J0D01*
G01*
%TO.C,TP24*%
X111600000Y-129000000D02*
G75*
G02*
X110200000Y-129000000I-700000J0D01*
G01*
X110200000Y-129000000D02*
G75*
G02*
X111600000Y-129000000I700000J0D01*
G01*
%TO.C,R39*%
X123365000Y-122272936D02*
X123365000Y-122727064D01*
X124835000Y-122272936D02*
X124835000Y-122727064D01*
%TO.C,TP35*%
X191450000Y-124000000D02*
G75*
G02*
X190050000Y-124000000I-700000J0D01*
G01*
X190050000Y-124000000D02*
G75*
G02*
X191450000Y-124000000I700000J0D01*
G01*
%TO.C,R3*%
X150327064Y-109665000D02*
X149872936Y-109665000D01*
X150327064Y-111135000D02*
X149872936Y-111135000D01*
%TO.C,C16*%
X157765000Y-110836252D02*
X157765000Y-110313748D01*
X159235000Y-110836252D02*
X159235000Y-110313748D01*
%TO.C,R58*%
X131665000Y-129872936D02*
X131665000Y-130327064D01*
X133135000Y-129872936D02*
X133135000Y-130327064D01*
%TO.C,C11*%
X174965000Y-105936252D02*
X174965000Y-105413748D01*
X176435000Y-105936252D02*
X176435000Y-105413748D01*
%TO.C,TP33*%
X163500000Y-128600000D02*
G75*
G02*
X162100000Y-128600000I-700000J0D01*
G01*
X162100000Y-128600000D02*
G75*
G02*
X163500000Y-128600000I700000J0D01*
G01*
%TO.C,TP30*%
X172700000Y-124000000D02*
G75*
G02*
X171300000Y-124000000I-700000J0D01*
G01*
X171300000Y-124000000D02*
G75*
G02*
X172700000Y-124000000I700000J0D01*
G01*
%TO.C,U3*%
X123190000Y-106950000D02*
X123190000Y-110710000D01*
X123190000Y-110710000D02*
X124450000Y-110710000D01*
X130010000Y-106950000D02*
X130010000Y-110710000D01*
X130010000Y-110710000D02*
X128750000Y-110710000D01*
X130240000Y-105910000D02*
X129910000Y-105670000D01*
X130240000Y-105430000D01*
X130240000Y-105910000D01*
G36*
X130240000Y-105910000D02*
G01*
X129910000Y-105670000D01*
X130240000Y-105430000D01*
X130240000Y-105910000D01*
G37*
%TO.C,R30*%
X112639564Y-133015000D02*
X112185436Y-133015000D01*
X112639564Y-134485000D02*
X112185436Y-134485000D01*
%TO.C,L1*%
X167290000Y-115150000D02*
X167290000Y-109500000D01*
X167950000Y-108840000D02*
X168750000Y-108840000D01*
X168750000Y-115760000D02*
X167900000Y-115760000D01*
X172650000Y-108840000D02*
X173500000Y-108840000D01*
X173500000Y-115760000D02*
X172650000Y-115760000D01*
X174110000Y-109450000D02*
X174110000Y-115150000D01*
X167290000Y-109500000D02*
G75*
G02*
X167950000Y-108840000I660002J-2D01*
G01*
X167900000Y-115760000D02*
G75*
G02*
X167290000Y-115150000I0J610000D01*
G01*
X173500000Y-108840000D02*
G75*
G02*
X174110000Y-109450000I0J-610000D01*
G01*
X174110000Y-115150000D02*
G75*
G02*
X173500000Y-115760000I-610000J0D01*
G01*
%TO.C,C14*%
X159890000Y-108890000D02*
X162240000Y-108890000D01*
X159890000Y-114645563D02*
X159890000Y-108890000D01*
X160954437Y-115710000D02*
X159890000Y-114645563D01*
X160954437Y-115710000D02*
X162240000Y-115710000D01*
X161058750Y-116343750D02*
X161846250Y-116343750D01*
X161452500Y-116737500D02*
X161452500Y-115950000D01*
X165645563Y-115710000D02*
X164360000Y-115710000D01*
X165645563Y-115710000D02*
X166710000Y-114645563D01*
X166710000Y-108890000D02*
X164360000Y-108890000D01*
X166710000Y-114645563D02*
X166710000Y-108890000D01*
%TO.C,R5*%
X133272936Y-125265000D02*
X133727064Y-125265000D01*
X133272936Y-126735000D02*
X133727064Y-126735000D01*
%TO.C,R68*%
X120027064Y-112865000D02*
X119572936Y-112865000D01*
X120027064Y-114335000D02*
X119572936Y-114335000D01*
%TO.C,TP32*%
X191450000Y-128450000D02*
G75*
G02*
X190050000Y-128450000I-700000J0D01*
G01*
X190050000Y-128450000D02*
G75*
G02*
X191450000Y-128450000I700000J0D01*
G01*
%TO.C,R29*%
X111565000Y-125860436D02*
X111565000Y-126314564D01*
X113035000Y-125860436D02*
X113035000Y-126314564D01*
%TO.C,R12*%
X171272936Y-101665000D02*
X171727064Y-101665000D01*
X171272936Y-103135000D02*
X171727064Y-103135000D01*
%TO.C,R27*%
X112639564Y-114965000D02*
X112185436Y-114965000D01*
X112639564Y-116435000D02*
X112185436Y-116435000D01*
%TO.C,R33*%
X109465000Y-125847936D02*
X109465000Y-126302064D01*
X110935000Y-125847936D02*
X110935000Y-126302064D01*
%TO.C,R53*%
X167727064Y-135090000D02*
X166272936Y-135090000D01*
X167727064Y-136910000D02*
X166272936Y-136910000D01*
%TO.C,R47*%
X177127064Y-134890000D02*
X175672936Y-134890000D01*
X177127064Y-136710000D02*
X175672936Y-136710000D01*
%TO.C,TP12*%
X130250000Y-126000000D02*
G75*
G02*
X128350000Y-126000000I-950000J0D01*
G01*
X128350000Y-126000000D02*
G75*
G02*
X130250000Y-126000000I950000J0D01*
G01*
%TO.C,R23*%
X109027064Y-114965000D02*
X108572936Y-114965000D01*
X109027064Y-116435000D02*
X108572936Y-116435000D01*
%TO.C,R56*%
X131665000Y-133385436D02*
X131665000Y-133839564D01*
X133135000Y-133385436D02*
X133135000Y-133839564D01*
%TO.C,R10*%
X175365000Y-111227064D02*
X175365000Y-110772936D01*
X176835000Y-111227064D02*
X176835000Y-110772936D01*
%TO.C,J5*%
X145420000Y-100215000D02*
X154580000Y-100215000D01*
X145420000Y-101920000D02*
X145420000Y-100215000D01*
X145420000Y-103930000D02*
X145420000Y-105850000D01*
X154580000Y-100215000D02*
X154580000Y-101920000D01*
X154580000Y-105850000D02*
X154580000Y-103930000D01*
%TO.C,TP27*%
X182200000Y-128500000D02*
G75*
G02*
X180800000Y-128500000I-700000J0D01*
G01*
X180800000Y-128500000D02*
G75*
G02*
X182200000Y-128500000I700000J0D01*
G01*
%TO.C,D1*%
X130585000Y-116310000D02*
X130585000Y-120195000D01*
X133755000Y-116310000D02*
X130585000Y-116310000D01*
X133755000Y-120195000D02*
X133755000Y-116310000D01*
%TO.C,C43*%
X116311252Y-130865000D02*
X115788748Y-130865000D01*
X116311252Y-132335000D02*
X115788748Y-132335000D01*
%TO.C,C23*%
X111565000Y-118638748D02*
X111565000Y-119161252D01*
X113035000Y-118638748D02*
X113035000Y-119161252D01*
%TO.C,R4*%
X133272936Y-122865000D02*
X133727064Y-122865000D01*
X133272936Y-124335000D02*
X133727064Y-124335000D01*
%TO.C,C21*%
X116361252Y-114965000D02*
X115838748Y-114965000D01*
X116361252Y-116435000D02*
X115838748Y-116435000D01*
%TO.C,R19*%
X112639564Y-130865000D02*
X112185436Y-130865000D01*
X112639564Y-132335000D02*
X112185436Y-132335000D01*
%TO.C,SW2*%
X190600000Y-112300000D02*
X190600000Y-113500000D01*
X190600000Y-115100000D02*
X190600000Y-116300000D01*
X190600000Y-116300000D02*
X197000000Y-116300000D01*
X197000000Y-112300000D02*
X190600000Y-112300000D01*
X197000000Y-113500000D02*
X197000000Y-112300000D01*
X197000000Y-116300000D02*
X197000000Y-115100000D01*
%TO.C,Q1*%
X178040000Y-114012500D02*
X178040000Y-113362500D01*
X178040000Y-114012500D02*
X178040000Y-114662500D01*
X181160000Y-114012500D02*
X181160000Y-113362500D01*
X181160000Y-114012500D02*
X181160000Y-114662500D01*
X181440000Y-113090000D02*
X181110000Y-112850000D01*
X181440000Y-112610000D01*
X181440000Y-113090000D01*
G36*
X181440000Y-113090000D02*
G01*
X181110000Y-112850000D01*
X181440000Y-112610000D01*
X181440000Y-113090000D01*
G37*
%TO.C,U7*%
X173740000Y-129750000D02*
X173740000Y-127550000D01*
X173740000Y-129750000D02*
X173740000Y-131950000D01*
X179260000Y-129750000D02*
X179260000Y-127550000D01*
X179260000Y-129750000D02*
X179260000Y-131950000D01*
X174465000Y-133990000D02*
X173985000Y-133990000D01*
X174225000Y-133660000D01*
X174465000Y-133990000D01*
G36*
X174465000Y-133990000D02*
G01*
X173985000Y-133990000D01*
X174225000Y-133660000D01*
X174465000Y-133990000D01*
G37*
%TO.C,R42*%
X123265000Y-143922936D02*
X123265000Y-144377064D01*
X124735000Y-143922936D02*
X124735000Y-144377064D01*
%TO.C,Y1*%
X135700000Y-122800000D02*
X135700000Y-126800000D01*
X139000000Y-122800000D02*
X135700000Y-122800000D01*
%TO.C,R32*%
X111465000Y-143922936D02*
X111465000Y-144377064D01*
X112935000Y-143922936D02*
X112935000Y-144377064D01*
%TO.C,R17*%
X112639564Y-112865000D02*
X112185436Y-112865000D01*
X112639564Y-114335000D02*
X112185436Y-114335000D01*
%TO.C,J2*%
X174090000Y-141425000D02*
X175310000Y-141425000D01*
X174090000Y-148625000D02*
X175310000Y-148625000D01*
X174090000Y-149845000D02*
X174090000Y-141425000D01*
X175310000Y-141425000D02*
X175310000Y-143625000D01*
X175310000Y-143625000D02*
X174090000Y-143625000D01*
X175310000Y-148625000D02*
X175310000Y-143625000D01*
X176380000Y-144625000D02*
X176700000Y-144625000D01*
X176380000Y-148045000D02*
X176380000Y-144625000D01*
X176700000Y-144625000D02*
X177020000Y-144625000D01*
X176700000Y-148125000D02*
X176380000Y-148045000D01*
X177020000Y-144625000D02*
X177020000Y-148045000D01*
X177020000Y-148045000D02*
X176700000Y-148125000D01*
X178030000Y-143625000D02*
X177870000Y-143625000D01*
X178880000Y-144625000D02*
X179200000Y-144625000D01*
X178880000Y-148045000D02*
X178880000Y-144625000D01*
X179200000Y-144625000D02*
X179520000Y-144625000D01*
X179200000Y-148125000D02*
X178880000Y-148045000D01*
X179520000Y-144625000D02*
X179520000Y-148045000D01*
X179520000Y-148045000D02*
X179200000Y-148125000D01*
X180590000Y-141425000D02*
X181810000Y-141425000D01*
X180590000Y-143625000D02*
X180590000Y-141425000D01*
X180590000Y-143625000D02*
X181810000Y-143625000D01*
X180590000Y-144625000D02*
X175310000Y-144625000D01*
X180590000Y-148625000D02*
X180590000Y-143625000D01*
X181810000Y-141425000D02*
X181810000Y-149845000D01*
X181810000Y-148625000D02*
X180590000Y-148625000D01*
X181810000Y-149845000D02*
X174090000Y-149845000D01*
%TO.C,TP22*%
X128400000Y-129000000D02*
G75*
G02*
X127000000Y-129000000I-700000J0D01*
G01*
X127000000Y-129000000D02*
G75*
G02*
X128400000Y-129000000I700000J0D01*
G01*
%TO.C,J14*%
X140070000Y-147130000D02*
X140070000Y-139450000D01*
X142730000Y-139450000D02*
X140070000Y-139450000D01*
X142730000Y-147130000D02*
X140070000Y-147130000D01*
X142730000Y-147130000D02*
X142730000Y-139450000D01*
X142730000Y-148400000D02*
X142730000Y-149730000D01*
X142730000Y-149730000D02*
X141400000Y-149730000D01*
%TO.C,J8*%
X100970000Y-115615000D02*
X102300000Y-115615000D01*
X100970000Y-116945000D02*
X100970000Y-115615000D01*
X100970000Y-118215000D02*
X100970000Y-123355000D01*
X100970000Y-118215000D02*
X103630000Y-118215000D01*
X100970000Y-123355000D02*
X103630000Y-123355000D01*
X103630000Y-118215000D02*
X103630000Y-123355000D01*
%TO.C,R62*%
X135865000Y-129872936D02*
X135865000Y-130327064D01*
X137335000Y-129872936D02*
X137335000Y-130327064D01*
%TO.C,R11*%
X175365000Y-114927064D02*
X175365000Y-114472936D01*
X176835000Y-114927064D02*
X176835000Y-114472936D01*
%TO.C,J6*%
X182940000Y-141425000D02*
X184160000Y-141425000D01*
X182940000Y-148625000D02*
X184160000Y-148625000D01*
X182940000Y-149845000D02*
X182940000Y-141425000D01*
X184160000Y-141425000D02*
X184160000Y-143625000D01*
X184160000Y-143625000D02*
X182940000Y-143625000D01*
X184160000Y-148625000D02*
X184160000Y-143625000D01*
X185230000Y-144625000D02*
X185550000Y-144625000D01*
X185230000Y-148045000D02*
X185230000Y-144625000D01*
X185550000Y-144625000D02*
X185870000Y-144625000D01*
X185550000Y-148125000D02*
X185230000Y-148045000D01*
X185870000Y-144625000D02*
X185870000Y-148045000D01*
X185870000Y-148045000D02*
X185550000Y-148125000D01*
X186880000Y-143625000D02*
X186720000Y-143625000D01*
X187730000Y-144625000D02*
X188050000Y-144625000D01*
X187730000Y-148045000D02*
X187730000Y-144625000D01*
X188050000Y-144625000D02*
X188370000Y-144625000D01*
X188050000Y-148125000D02*
X187730000Y-148045000D01*
X188370000Y-144625000D02*
X188370000Y-148045000D01*
X188370000Y-148045000D02*
X188050000Y-148125000D01*
X189440000Y-141425000D02*
X190660000Y-141425000D01*
X189440000Y-143625000D02*
X189440000Y-141425000D01*
X189440000Y-143625000D02*
X190660000Y-143625000D01*
X189440000Y-144625000D02*
X184160000Y-144625000D01*
X189440000Y-148625000D02*
X189440000Y-143625000D01*
X190660000Y-141425000D02*
X190660000Y-149845000D01*
X190660000Y-148625000D02*
X189440000Y-148625000D01*
X190660000Y-149845000D02*
X182940000Y-149845000D01*
%TO.C,TP8*%
X163950000Y-101850000D02*
G75*
G02*
X162050000Y-101850000I-950000J0D01*
G01*
X162050000Y-101850000D02*
G75*
G02*
X163950000Y-101850000I950000J0D01*
G01*
%TO.C,R7*%
X132427064Y-114265000D02*
X131972936Y-114265000D01*
X132427064Y-115735000D02*
X131972936Y-115735000D01*
%TO.C,R44*%
X125365000Y-143935436D02*
X125365000Y-144389564D01*
X126835000Y-143935436D02*
X126835000Y-144389564D01*
%TO.C,TP26*%
X172700000Y-128500000D02*
G75*
G02*
X171300000Y-128500000I-700000J0D01*
G01*
X171300000Y-128500000D02*
G75*
G02*
X172700000Y-128500000I700000J0D01*
G01*
%TO.C,C33*%
X175865000Y-123538748D02*
X175865000Y-124061252D01*
X177335000Y-123538748D02*
X177335000Y-124061252D01*
%TO.C,R21*%
X109027064Y-112865000D02*
X108572936Y-112865000D01*
X109027064Y-114335000D02*
X108572936Y-114335000D01*
%TO.C,R24*%
X113660436Y-128265000D02*
X114114564Y-128265000D01*
X113660436Y-129735000D02*
X114114564Y-129735000D01*
%TO.C,R43*%
X125465000Y-125872936D02*
X125465000Y-126327064D01*
X126935000Y-125872936D02*
X126935000Y-126327064D01*
%TO.C,C36*%
X187565000Y-123538748D02*
X187565000Y-124061252D01*
X189035000Y-123538748D02*
X189035000Y-124061252D01*
%TO.C,TP29*%
X182200000Y-126250000D02*
G75*
G02*
X180800000Y-126250000I-700000J0D01*
G01*
X180800000Y-126250000D02*
G75*
G02*
X182200000Y-126250000I700000J0D01*
G01*
%TO.C,TP19*%
X125000000Y-101800000D02*
G75*
G02*
X122600000Y-101800000I-1200000J0D01*
G01*
X122600000Y-101800000D02*
G75*
G02*
X125000000Y-101800000I1200000J0D01*
G01*
%TO.C,D2*%
X134615000Y-116315000D02*
X134615000Y-120200000D01*
X137785000Y-116315000D02*
X134615000Y-116315000D01*
X137785000Y-120200000D02*
X137785000Y-116315000D01*
%TO.C,R13*%
X158065000Y-106727064D02*
X158065000Y-106272936D01*
X159535000Y-106727064D02*
X159535000Y-106272936D01*
%TO.C,C40*%
X166315000Y-123538748D02*
X166315000Y-124061252D01*
X167785000Y-123538748D02*
X167785000Y-124061252D01*
%TO.C,R54*%
X166165000Y-119672936D02*
X166165000Y-120127064D01*
X167635000Y-119672936D02*
X167635000Y-120127064D01*
%TO.C,TP28*%
X172700000Y-126250000D02*
G75*
G02*
X171300000Y-126250000I-700000J0D01*
G01*
X171300000Y-126250000D02*
G75*
G02*
X172700000Y-126250000I700000J0D01*
G01*
%TO.C,R64*%
X138065000Y-129860436D02*
X138065000Y-130314564D01*
X139535000Y-129860436D02*
X139535000Y-130314564D01*
%TO.C,D5*%
X118140000Y-114800000D02*
X118140000Y-116800000D01*
X118140000Y-114800000D02*
X122150000Y-114800000D01*
X118140000Y-116800000D02*
X122150000Y-116800000D01*
%TO.C,R59*%
X133865000Y-133385436D02*
X133865000Y-133839564D01*
X135335000Y-133385436D02*
X135335000Y-133839564D01*
%TO.C,C41*%
X196565000Y-123538748D02*
X196565000Y-124061252D01*
X198035000Y-123538748D02*
X198035000Y-124061252D01*
%TO.C,R18*%
X109465000Y-118660436D02*
X109465000Y-119114564D01*
X110935000Y-118660436D02*
X110935000Y-119114564D01*
%TO.C,C39*%
X194365000Y-123538748D02*
X194365000Y-124061252D01*
X195835000Y-123538748D02*
X195835000Y-124061252D01*
%TO.C,R25*%
X109127064Y-133015000D02*
X108672936Y-133015000D01*
X109127064Y-134485000D02*
X108672936Y-134485000D01*
D11*
%TO.C,U2*%
X169174999Y-107227600D02*
X169174999Y-105175001D01*
X172224000Y-106325001D02*
X172224000Y-104924999D01*
D15*
%TO.C,R8*%
X135972936Y-114265000D02*
X136427064Y-114265000D01*
X135972936Y-115735000D02*
X136427064Y-115735000D01*
%TO.C,R14*%
X181965000Y-113727064D02*
X181965000Y-113272936D01*
X183435000Y-113727064D02*
X183435000Y-113272936D01*
%TO.C,R66*%
X140065000Y-129872936D02*
X140065000Y-130327064D01*
X141535000Y-129872936D02*
X141535000Y-130327064D01*
%TO.C,TP16*%
X182400000Y-108300000D02*
G75*
G02*
X181000000Y-108300000I-700000J0D01*
G01*
X181000000Y-108300000D02*
G75*
G02*
X182400000Y-108300000I700000J0D01*
G01*
%TO.C,C38*%
X164065000Y-123538748D02*
X164065000Y-124061252D01*
X165535000Y-123538748D02*
X165535000Y-124061252D01*
%TO.C,C19*%
X117340000Y-105540000D02*
X117340000Y-106740000D01*
X117340000Y-110060000D02*
X117340000Y-108860000D01*
X120795563Y-105540000D02*
X117340000Y-105540000D01*
X120795563Y-110060000D02*
X117340000Y-110060000D01*
X121860000Y-106604437D02*
X120795563Y-105540000D01*
X121860000Y-106604437D02*
X121860000Y-106740000D01*
X121860000Y-108995563D02*
X120795563Y-110060000D01*
X121860000Y-108995563D02*
X121860000Y-108860000D01*
X122350000Y-109610000D02*
X122350000Y-109110000D01*
X122600000Y-109360000D02*
X122100000Y-109360000D01*
%TO.C,C7*%
X146411252Y-134315000D02*
X145888748Y-134315000D01*
X146411252Y-135785000D02*
X145888748Y-135785000D01*
%TO.C,U1*%
X144615000Y-120370001D02*
X144275000Y-120840000D01*
X143935000Y-120370000D01*
X144615000Y-120370001D01*
G36*
X144615000Y-120370001D02*
G01*
X144275000Y-120840000D01*
X143935000Y-120370000D01*
X144615000Y-120370001D01*
G37*
X155110000Y-130110000D02*
X155110000Y-129160000D01*
X155110000Y-119890000D02*
X155110000Y-120840000D01*
X154160000Y-130110000D02*
X155110000Y-130110000D01*
X154160000Y-119890000D02*
X155110000Y-119890000D01*
X145840000Y-130110000D02*
X144890000Y-130110000D01*
X145840000Y-119890000D02*
X144890000Y-119890000D01*
X144890000Y-130110000D02*
X144890000Y-129160000D01*
X144890000Y-119890000D02*
X144890000Y-120840000D01*
%TO.C,TP21*%
X108500000Y-136200000D02*
G75*
G02*
X107100000Y-136200000I-700000J0D01*
G01*
X107100000Y-136200000D02*
G75*
G02*
X108500000Y-136200000I700000J0D01*
G01*
%TO.C,TP7*%
X130300000Y-101800000D02*
G75*
G02*
X128400000Y-101800000I-950000J0D01*
G01*
X128400000Y-101800000D02*
G75*
G02*
X130300000Y-101800000I950000J0D01*
G01*
%TO.C,R50*%
X162265000Y-132227064D02*
X162265000Y-131772936D01*
X163735000Y-132227064D02*
X163735000Y-131772936D01*
%TD*%
%LPC*%
D16*
%TO.C,R65*%
X140800000Y-132687500D03*
X140800000Y-134512500D03*
%TD*%
D17*
%TO.C,TP15*%
X182600000Y-116300000D03*
%TD*%
D18*
%TO.C,R46*%
X182000000Y-132912500D03*
X182000000Y-131087500D03*
%TD*%
D19*
%TO.C,C29*%
X125650000Y-129000000D03*
X123750000Y-129000000D03*
%TD*%
D20*
%TO.C,C9*%
X140000000Y-124800000D03*
X141900000Y-124800000D03*
%TD*%
D21*
%TO.C,H4*%
X192600000Y-145000000D03*
X193302944Y-143302944D03*
X193302944Y-146697056D03*
X195000000Y-142600000D03*
D22*
X195000000Y-145000000D03*
D21*
X195000000Y-147400000D03*
X196697056Y-143302944D03*
X196697056Y-146697056D03*
X197400000Y-145000000D03*
%TD*%
D23*
%TO.C,C32*%
X183800000Y-122850000D03*
X183800000Y-124750000D03*
%TD*%
D17*
%TO.C,TP20*%
X107800000Y-118300000D03*
%TD*%
D20*
%TO.C,C13*%
X166850000Y-102425000D03*
X168750000Y-102425000D03*
%TD*%
D16*
%TO.C,R20*%
X110100000Y-136037500D03*
X110100000Y-137862500D03*
%TD*%
D17*
%TO.C,TP25*%
X110800000Y-147000000D03*
%TD*%
D24*
%TO.C,J1*%
X170350000Y-143035000D03*
D25*
X167850000Y-143035000D03*
%TD*%
D19*
%TO.C,C27*%
X118450000Y-129000000D03*
X116550000Y-129000000D03*
%TD*%
D23*
%TO.C,C5*%
X158200000Y-119650001D03*
X158200000Y-121549999D03*
%TD*%
D17*
%TO.C,TP34*%
X190750000Y-126250000D03*
%TD*%
D19*
%TO.C,C20*%
X114650000Y-101600000D03*
X112750000Y-101600000D03*
%TD*%
D26*
%TO.C,R48*%
X187462500Y-136000000D03*
X184537500Y-136000000D03*
%TD*%
D27*
%TO.C,TP18*%
X109600000Y-101800000D03*
%TD*%
D16*
%TO.C,R63*%
X138800000Y-132687500D03*
X138800000Y-134512500D03*
%TD*%
D23*
%TO.C,C35*%
X178900000Y-122850000D03*
X178900000Y-124750000D03*
%TD*%
D27*
%TO.C,TP17*%
X158850000Y-101850000D03*
%TD*%
D28*
%TO.C,J15*%
X146400000Y-148400000D03*
D29*
X146400000Y-145860000D03*
X146400000Y-143320000D03*
X146400000Y-140780000D03*
%TD*%
D18*
%TO.C,R31*%
X110100000Y-141450000D03*
X110100000Y-139625000D03*
%TD*%
D27*
%TO.C,TP37*%
X135255000Y-144780000D03*
%TD*%
D16*
%TO.C,R61*%
X136600000Y-132700000D03*
X136600000Y-134525000D03*
%TD*%
D30*
%TO.C,U10*%
X167000000Y-129750000D03*
D31*
X164725000Y-132612500D03*
X165375000Y-132612500D03*
X166025000Y-132612500D03*
X166675000Y-132612500D03*
X167325000Y-132612500D03*
X167975000Y-132612500D03*
X168625000Y-132612500D03*
X169275000Y-132612500D03*
X169275000Y-126887500D03*
X168625000Y-126887500D03*
X167975000Y-126887500D03*
X167325000Y-126887500D03*
X166675000Y-126887500D03*
X166025000Y-126887500D03*
X165375000Y-126887500D03*
X164725000Y-126887500D03*
%TD*%
D18*
%TO.C,R45*%
X172500000Y-132912500D03*
X172500000Y-131087500D03*
%TD*%
D32*
%TO.C,R35*%
X120175000Y-129000000D03*
X122000000Y-129000000D03*
%TD*%
D33*
%TO.C,D4*%
X120300000Y-101400000D03*
X120300000Y-104200000D03*
%TD*%
D27*
%TO.C,TP6*%
X108350000Y-129200000D03*
%TD*%
D34*
%TO.C,RV1*%
X135550000Y-111500000D03*
D35*
X134400000Y-107500000D03*
D34*
X133250000Y-111500000D03*
%TD*%
D27*
%TO.C,TP14*%
X131445000Y-144780000D03*
%TD*%
D16*
%TO.C,R40*%
X124000000Y-139637500D03*
X124000000Y-141462500D03*
%TD*%
D23*
%TO.C,C15*%
X158500000Y-113275000D03*
X158500000Y-115175000D03*
%TD*%
D16*
%TO.C,R41*%
X124100000Y-125187500D03*
X124100000Y-127012500D03*
%TD*%
D21*
%TO.C,H1*%
X102600000Y-105000000D03*
X103302944Y-103302944D03*
X103302944Y-106697056D03*
X105000000Y-102600000D03*
D22*
X105000000Y-105000000D03*
D21*
X105000000Y-107400000D03*
X106697056Y-103302944D03*
X106697056Y-106697056D03*
X107400000Y-105000000D03*
%TD*%
D17*
%TO.C,TP23*%
X127600000Y-147000000D03*
%TD*%
D16*
%TO.C,R51*%
X130400000Y-132700000D03*
X130400000Y-134525000D03*
%TD*%
D27*
%TO.C,TP41*%
X135255000Y-142240000D03*
%TD*%
%TO.C,TP1*%
X131445000Y-139700000D03*
%TD*%
D36*
%TO.C,R67*%
X120612500Y-131600000D03*
X118787500Y-131600000D03*
%TD*%
D32*
%TO.C,R1*%
X153087500Y-110400000D03*
X154912500Y-110400000D03*
%TD*%
D18*
%TO.C,R49*%
X191100000Y-132912500D03*
X191100000Y-131087500D03*
%TD*%
D23*
%TO.C,C37*%
X192900000Y-122850000D03*
X192900000Y-124750000D03*
%TD*%
D18*
%TO.C,R37*%
X126100000Y-141462500D03*
X126100000Y-139637500D03*
%TD*%
D19*
%TO.C,C30*%
X125650000Y-147050000D03*
X123750000Y-147050000D03*
%TD*%
D27*
%TO.C,TP13*%
X129300000Y-123460000D03*
%TD*%
D19*
%TO.C,C4*%
X154499999Y-133600001D03*
X152600001Y-133600001D03*
%TD*%
D27*
%TO.C,TP39*%
X135255000Y-137160000D03*
%TD*%
D19*
%TO.C,C3*%
X147100000Y-132999999D03*
X145200000Y-133000001D03*
%TD*%
D37*
%TO.C,C17*%
X109500000Y-109350000D03*
X109500000Y-107450000D03*
%TD*%
D27*
%TO.C,TP40*%
X135255000Y-139700000D03*
%TD*%
D38*
%TO.C,SW1*%
X146125000Y-115500000D03*
X153875000Y-115500000D03*
%TD*%
D32*
%TO.C,R36*%
X120087500Y-147050000D03*
X121912500Y-147050000D03*
%TD*%
D19*
%TO.C,C2*%
X141849999Y-120400000D03*
X139950001Y-120400000D03*
%TD*%
D37*
%TO.C,C18*%
X126400000Y-103250000D03*
X126400000Y-101350000D03*
%TD*%
D27*
%TO.C,TP2*%
X161200000Y-121870000D03*
%TD*%
D39*
%TO.C,D3*%
X178525000Y-110452500D03*
X181825000Y-110452500D03*
%TD*%
D19*
%TO.C,C6*%
X141900000Y-127350000D03*
X140000000Y-127350000D03*
%TD*%
D27*
%TO.C,TP4*%
X131445000Y-142240000D03*
%TD*%
D18*
%TO.C,R55*%
X164800000Y-120812500D03*
X164800000Y-118987500D03*
%TD*%
D23*
%TO.C,C42*%
X169300000Y-122850000D03*
X169300000Y-124750000D03*
%TD*%
D27*
%TO.C,TP38*%
X135255000Y-147320000D03*
%TD*%
D24*
%TO.C,J7*%
X160500000Y-143067500D03*
D25*
X158000000Y-143067500D03*
%TD*%
D40*
%TO.C,C10*%
X179200000Y-107525000D03*
X179200000Y-103925000D03*
%TD*%
D37*
%TO.C,C12*%
X173600000Y-106625000D03*
X173600000Y-104725000D03*
%TD*%
D16*
%TO.C,R60*%
X134600000Y-129187500D03*
X134600000Y-131012500D03*
%TD*%
D28*
%TO.C,J16*%
X151400000Y-148400000D03*
D29*
X151400000Y-145860000D03*
X151400000Y-143320000D03*
X151400000Y-140780000D03*
%TD*%
D18*
%TO.C,R38*%
X126200000Y-123412500D03*
X126200000Y-121587500D03*
%TD*%
D28*
%TO.C,J12*%
X140530000Y-102000000D03*
D29*
X137990000Y-102000000D03*
X135450000Y-102000000D03*
X132910000Y-102000000D03*
%TD*%
D16*
%TO.C,R57*%
X130400000Y-129187500D03*
X130400000Y-131012500D03*
%TD*%
D39*
%TO.C,D6*%
X118750000Y-133800000D03*
X122050000Y-133800000D03*
%TD*%
D16*
%TO.C,R15*%
X117400000Y-101287500D03*
X117400000Y-103112500D03*
%TD*%
D41*
%TO.C,U4*%
X115405000Y-103825000D03*
X114135000Y-103825000D03*
X112865000Y-103825000D03*
X111595000Y-103825000D03*
X111595000Y-109075000D03*
X112865000Y-109075000D03*
X114135000Y-109075000D03*
X115405000Y-109075000D03*
%TD*%
D42*
%TO.C,U5*%
X114700000Y-118650000D03*
X114700000Y-119920000D03*
X114700000Y-121190000D03*
X114700000Y-122460000D03*
X114700000Y-123730000D03*
X114700000Y-125000000D03*
X114700000Y-126270000D03*
X121625000Y-126270000D03*
X121625000Y-125000000D03*
X121625000Y-123730000D03*
X121625000Y-122460000D03*
X121625000Y-121190000D03*
X121625000Y-119920000D03*
X121625000Y-118650000D03*
%TD*%
D27*
%TO.C,TP5*%
X131445000Y-137160000D03*
%TD*%
%TO.C,TP3*%
X161200000Y-119330000D03*
%TD*%
D28*
%TO.C,J11*%
X102300000Y-126700000D03*
D29*
X102300000Y-129240000D03*
X102300000Y-131780000D03*
%TD*%
D16*
%TO.C,R16*%
X160900000Y-105587500D03*
X160900000Y-107412500D03*
%TD*%
D19*
%TO.C,C1*%
X141850000Y-116100000D03*
X139950000Y-116100000D03*
%TD*%
D32*
%TO.C,R9*%
X139987500Y-118200000D03*
X141812500Y-118200000D03*
%TD*%
D16*
%TO.C,R6*%
X156250000Y-113337500D03*
X156250000Y-115162500D03*
%TD*%
D36*
%TO.C,R22*%
X109812500Y-131600000D03*
X107987500Y-131600000D03*
%TD*%
D23*
%TO.C,C31*%
X174300000Y-122850000D03*
X174300000Y-124750000D03*
%TD*%
D19*
%TO.C,C44*%
X117050000Y-113600000D03*
X115150000Y-113600000D03*
%TD*%
D30*
%TO.C,U8*%
X186000000Y-129750000D03*
D31*
X183725000Y-132612500D03*
X184375000Y-132612500D03*
X185025000Y-132612500D03*
X185675000Y-132612500D03*
X186325000Y-132612500D03*
X186975000Y-132612500D03*
X187625000Y-132612500D03*
X188275000Y-132612500D03*
X188275000Y-126887500D03*
X187625000Y-126887500D03*
X186975000Y-126887500D03*
X186325000Y-126887500D03*
X185675000Y-126887500D03*
X185025000Y-126887500D03*
X184375000Y-126887500D03*
X183725000Y-126887500D03*
%TD*%
D23*
%TO.C,C25*%
X112200000Y-136000000D03*
X112200000Y-137900000D03*
%TD*%
D19*
%TO.C,C28*%
X118300000Y-147050000D03*
X116400000Y-147050000D03*
%TD*%
D34*
%TO.C,RV3*%
X127100000Y-119300000D03*
D35*
X125950000Y-115300000D03*
D34*
X124800000Y-119300000D03*
%TD*%
D19*
%TO.C,C22*%
X117000000Y-133750000D03*
X115100000Y-133750000D03*
%TD*%
D30*
%TO.C,U9*%
X195080000Y-129750000D03*
D31*
X192805000Y-132612500D03*
X193455000Y-132612500D03*
X194105000Y-132612500D03*
X194755000Y-132612500D03*
X195405000Y-132612500D03*
X196055000Y-132612500D03*
X196705000Y-132612500D03*
X197355000Y-132612500D03*
X197355000Y-126887500D03*
X196705000Y-126887500D03*
X196055000Y-126887500D03*
X195405000Y-126887500D03*
X194755000Y-126887500D03*
X194105000Y-126887500D03*
X193455000Y-126887500D03*
X192805000Y-126887500D03*
%TD*%
D23*
%TO.C,C34*%
X186100000Y-122850000D03*
X186100000Y-124750000D03*
%TD*%
D36*
%TO.C,R2*%
X147112500Y-110400000D03*
X145287500Y-110400000D03*
%TD*%
D18*
%TO.C,R28*%
X110200000Y-123412500D03*
X110200000Y-121587500D03*
%TD*%
D16*
%TO.C,R34*%
X110100000Y-143237500D03*
X110100000Y-145062500D03*
%TD*%
D34*
%TO.C,RV2*%
X141450000Y-111500000D03*
D35*
X140300000Y-107500000D03*
D34*
X139150000Y-111500000D03*
%TD*%
D23*
%TO.C,C24*%
X112300000Y-121550000D03*
X112300000Y-123450000D03*
%TD*%
D34*
%TO.C,RV4*%
X126950000Y-137350000D03*
D35*
X125800000Y-133350000D03*
D34*
X124650000Y-137350000D03*
%TD*%
D26*
%TO.C,R52*%
X196662500Y-136000000D03*
X193737500Y-136000000D03*
%TD*%
D23*
%TO.C,C26*%
X112200000Y-139600000D03*
X112200000Y-141500000D03*
%TD*%
D32*
%TO.C,R26*%
X112787500Y-147050000D03*
X114612500Y-147050000D03*
%TD*%
D20*
%TO.C,C8*%
X140000000Y-122600000D03*
X141900000Y-122600000D03*
%TD*%
D27*
%TO.C,TP36*%
X131445000Y-147320000D03*
%TD*%
D42*
%TO.C,U6*%
X114637500Y-136700000D03*
X114637500Y-137970000D03*
X114637500Y-139240000D03*
X114637500Y-140510000D03*
X114637500Y-141780000D03*
X114637500Y-143050000D03*
X114637500Y-144320000D03*
X121562500Y-144320000D03*
X121562500Y-143050000D03*
X121562500Y-141780000D03*
X121562500Y-140510000D03*
X121562500Y-139240000D03*
X121562500Y-137970000D03*
X121562500Y-136700000D03*
%TD*%
D43*
%TO.C,J3*%
X185750000Y-107232500D03*
D25*
X188250000Y-107232500D03*
%TD*%
D17*
%TO.C,TP31*%
X181500000Y-124000000D03*
%TD*%
%TO.C,TP24*%
X110900000Y-129000000D03*
%TD*%
D16*
%TO.C,R39*%
X124100000Y-121587500D03*
X124100000Y-123412500D03*
%TD*%
D17*
%TO.C,TP35*%
X190750000Y-124000000D03*
%TD*%
D36*
%TO.C,R3*%
X151012500Y-110400000D03*
X149187500Y-110400000D03*
%TD*%
D37*
%TO.C,C16*%
X158500000Y-111525000D03*
X158500000Y-109625000D03*
%TD*%
D16*
%TO.C,R58*%
X132400000Y-129187500D03*
X132400000Y-131012500D03*
%TD*%
D37*
%TO.C,C11*%
X175700000Y-106625000D03*
X175700000Y-104725000D03*
%TD*%
D17*
%TO.C,TP33*%
X162800000Y-128600000D03*
%TD*%
%TO.C,TP30*%
X172000000Y-124000000D03*
%TD*%
D44*
%TO.C,U3*%
X128900000Y-105650000D03*
X126600000Y-105650000D03*
D45*
X126600000Y-111950000D03*
D44*
X124300000Y-105650000D03*
%TD*%
D36*
%TO.C,R30*%
X113325000Y-133750000D03*
X111500000Y-133750000D03*
%TD*%
D46*
%TO.C,L1*%
X170700000Y-109575000D03*
X170700000Y-115025000D03*
%TD*%
D47*
%TO.C,C14*%
X163300000Y-115100000D03*
X163300000Y-109500000D03*
%TD*%
D32*
%TO.C,R5*%
X132587500Y-126000000D03*
X134412500Y-126000000D03*
%TD*%
D36*
%TO.C,R68*%
X120712500Y-113600000D03*
X118887500Y-113600000D03*
%TD*%
D17*
%TO.C,TP32*%
X190750000Y-128450000D03*
%TD*%
D16*
%TO.C,R29*%
X112300000Y-125175000D03*
X112300000Y-127000000D03*
%TD*%
D32*
%TO.C,R12*%
X170587500Y-102400000D03*
X172412500Y-102400000D03*
%TD*%
D36*
%TO.C,R27*%
X113325000Y-115700000D03*
X111500000Y-115700000D03*
%TD*%
D16*
%TO.C,R33*%
X110200000Y-125162500D03*
X110200000Y-126987500D03*
%TD*%
D26*
%TO.C,R53*%
X168462500Y-136000000D03*
X165537500Y-136000000D03*
%TD*%
%TO.C,R47*%
X177862500Y-135800000D03*
X174937500Y-135800000D03*
%TD*%
D21*
%TO.C,H3*%
X102600000Y-145000000D03*
X103302944Y-143302944D03*
X103302944Y-146697056D03*
X105000000Y-142600000D03*
D22*
X105000000Y-145000000D03*
D21*
X105000000Y-147400000D03*
X106697056Y-143302944D03*
X106697056Y-146697056D03*
X107400000Y-145000000D03*
%TD*%
D27*
%TO.C,TP12*%
X129300000Y-126000000D03*
%TD*%
D36*
%TO.C,R23*%
X109712500Y-115700000D03*
X107887500Y-115700000D03*
%TD*%
D16*
%TO.C,R56*%
X132400000Y-132700000D03*
X132400000Y-134525000D03*
%TD*%
D18*
%TO.C,R10*%
X176100000Y-111912500D03*
X176100000Y-110087500D03*
%TD*%
D48*
%TO.C,J5*%
X152890000Y-106605000D03*
X147110000Y-106605000D03*
D49*
X153200000Y-107725000D03*
X152400000Y-107725000D03*
D50*
X151250000Y-107725000D03*
X150250000Y-107725000D03*
X149750000Y-107725000D03*
X148750000Y-107725000D03*
D49*
X147600000Y-107725000D03*
X146800000Y-107725000D03*
X146800000Y-107725000D03*
X147600000Y-107725000D03*
D50*
X148250000Y-107725000D03*
X149250000Y-107725000D03*
X150750000Y-107725000D03*
X151750000Y-107725000D03*
D49*
X152400000Y-107725000D03*
X153200000Y-107725000D03*
D51*
X154320000Y-107125000D03*
D52*
X154320000Y-102925000D03*
D51*
X145680000Y-107125000D03*
D52*
X145680000Y-102925000D03*
%TD*%
D17*
%TO.C,TP27*%
X181500000Y-128500000D03*
%TD*%
D33*
%TO.C,D1*%
X132170000Y-117195000D03*
X132170000Y-119995000D03*
%TD*%
D19*
%TO.C,C43*%
X117000000Y-131600000D03*
X115100000Y-131600000D03*
%TD*%
D23*
%TO.C,C23*%
X112300000Y-117950000D03*
X112300000Y-119850000D03*
%TD*%
D32*
%TO.C,R4*%
X132587500Y-123600000D03*
X134412500Y-123600000D03*
%TD*%
D19*
%TO.C,C21*%
X117050000Y-115700000D03*
X115150000Y-115700000D03*
%TD*%
D36*
%TO.C,R19*%
X113325000Y-131600000D03*
X111500000Y-131600000D03*
%TD*%
D38*
%TO.C,SW2*%
X189925000Y-114300000D03*
X197675000Y-114300000D03*
%TD*%
D53*
%TO.C,Q1*%
X180550000Y-113075000D03*
X178650000Y-113075000D03*
X179600000Y-114950000D03*
%TD*%
D30*
%TO.C,U7*%
X176500000Y-129750000D03*
D31*
X174225000Y-132612500D03*
X174875000Y-132612500D03*
X175525000Y-132612500D03*
X176175000Y-132612500D03*
X176825000Y-132612500D03*
X177475000Y-132612500D03*
X178125000Y-132612500D03*
X178775000Y-132612500D03*
X178775000Y-126887500D03*
X178125000Y-126887500D03*
X177475000Y-126887500D03*
X176825000Y-126887500D03*
X176175000Y-126887500D03*
X175525000Y-126887500D03*
X174875000Y-126887500D03*
X174225000Y-126887500D03*
%TD*%
D16*
%TO.C,R42*%
X124000000Y-143237500D03*
X124000000Y-145062500D03*
%TD*%
D54*
%TO.C,Y1*%
X136500000Y-123700000D03*
X136500000Y-125900000D03*
X138200000Y-125900000D03*
X138200000Y-123700000D03*
%TD*%
D16*
%TO.C,R32*%
X112200000Y-143237500D03*
X112200000Y-145062500D03*
%TD*%
D36*
%TO.C,R17*%
X113325000Y-113600000D03*
X111500000Y-113600000D03*
%TD*%
D24*
%TO.C,J2*%
X179200000Y-143035000D03*
D25*
X176700000Y-143035000D03*
%TD*%
D17*
%TO.C,TP22*%
X127700000Y-129000000D03*
%TD*%
D28*
%TO.C,J14*%
X141400000Y-148400000D03*
D29*
X141400000Y-145860000D03*
X141400000Y-143320000D03*
X141400000Y-140780000D03*
%TD*%
D28*
%TO.C,J8*%
X102300000Y-116945000D03*
D29*
X102300000Y-119485000D03*
X102300000Y-122025000D03*
%TD*%
D16*
%TO.C,R62*%
X136600000Y-129187500D03*
X136600000Y-131012500D03*
%TD*%
D18*
%TO.C,R11*%
X176100000Y-115612500D03*
X176100000Y-113787500D03*
%TD*%
D24*
%TO.C,J6*%
X188050000Y-143035000D03*
D25*
X185550000Y-143035000D03*
%TD*%
D27*
%TO.C,TP8*%
X163000000Y-101850000D03*
%TD*%
D36*
%TO.C,R7*%
X133112500Y-115000000D03*
X131287500Y-115000000D03*
%TD*%
D21*
%TO.C,H2*%
X192600000Y-105000000D03*
X193302944Y-103302944D03*
X193302944Y-106697056D03*
X195000000Y-102600000D03*
D22*
X195000000Y-105000000D03*
D21*
X195000000Y-107400000D03*
X196697056Y-103302944D03*
X196697056Y-106697056D03*
X197400000Y-105000000D03*
%TD*%
D16*
%TO.C,R44*%
X126100000Y-143250000D03*
X126100000Y-145075000D03*
%TD*%
D17*
%TO.C,TP26*%
X172000000Y-128500000D03*
%TD*%
D23*
%TO.C,C33*%
X176600000Y-122850000D03*
X176600000Y-124750000D03*
%TD*%
D36*
%TO.C,R21*%
X109712500Y-113600000D03*
X107887500Y-113600000D03*
%TD*%
D32*
%TO.C,R24*%
X112975000Y-129000000D03*
X114800000Y-129000000D03*
%TD*%
D16*
%TO.C,R43*%
X126200000Y-125187500D03*
X126200000Y-127012500D03*
%TD*%
D23*
%TO.C,C36*%
X188300000Y-122850000D03*
X188300000Y-124750000D03*
%TD*%
D17*
%TO.C,TP29*%
X181500000Y-126250000D03*
%TD*%
D55*
%TO.C,TP19*%
X123800000Y-101800000D03*
%TD*%
D33*
%TO.C,D2*%
X136200000Y-117200000D03*
X136200000Y-120000000D03*
%TD*%
D18*
%TO.C,R13*%
X158800000Y-107412500D03*
X158800000Y-105587500D03*
%TD*%
D23*
%TO.C,C40*%
X167050000Y-122850000D03*
X167050000Y-124750000D03*
%TD*%
D16*
%TO.C,R54*%
X166900000Y-118987500D03*
X166900000Y-120812500D03*
%TD*%
D17*
%TO.C,TP28*%
X172000000Y-126250000D03*
%TD*%
D16*
%TO.C,R64*%
X138800000Y-129175000D03*
X138800000Y-131000000D03*
%TD*%
D39*
%TO.C,D5*%
X118850000Y-115800000D03*
X122150000Y-115800000D03*
%TD*%
D16*
%TO.C,R59*%
X134600000Y-132700000D03*
X134600000Y-134525000D03*
%TD*%
D23*
%TO.C,C41*%
X197300000Y-122850000D03*
X197300000Y-124750000D03*
%TD*%
D16*
%TO.C,R18*%
X110200000Y-117975000D03*
X110200000Y-119800000D03*
%TD*%
D23*
%TO.C,C39*%
X195100000Y-122850000D03*
X195100000Y-124750000D03*
%TD*%
D36*
%TO.C,R25*%
X109812500Y-133750000D03*
X107987500Y-133750000D03*
%TD*%
D56*
%TO.C,U2*%
X169749999Y-106900001D03*
X170700000Y-106900001D03*
X171649998Y-106900001D03*
X171649998Y-104350001D03*
X170700000Y-104350001D03*
X169749999Y-104350001D03*
%TD*%
D32*
%TO.C,R8*%
X135287500Y-115000000D03*
X137112500Y-115000000D03*
%TD*%
D18*
%TO.C,R14*%
X182700000Y-114412500D03*
X182700000Y-112587500D03*
%TD*%
D16*
%TO.C,R66*%
X140800000Y-129187500D03*
X140800000Y-131012500D03*
%TD*%
D17*
%TO.C,TP16*%
X181700000Y-108300000D03*
%TD*%
D23*
%TO.C,C38*%
X164800000Y-122850000D03*
X164800000Y-124750000D03*
%TD*%
D57*
%TO.C,C19*%
X121400000Y-107800000D03*
X117800000Y-107800000D03*
%TD*%
D19*
%TO.C,C7*%
X147100000Y-135050000D03*
X145200000Y-135050000D03*
%TD*%
D58*
%TO.C,U1*%
X146250001Y-119325000D03*
X146750000Y-119325000D03*
X147250000Y-119325000D03*
X147750000Y-119325000D03*
X148250000Y-119325000D03*
X148750001Y-119325000D03*
X149250000Y-119325000D03*
X149750000Y-119325000D03*
X150250000Y-119325000D03*
X150750000Y-119325000D03*
X151249999Y-119325000D03*
X151750000Y-119325000D03*
X152250000Y-119325000D03*
X152750000Y-119325000D03*
X153250000Y-119325000D03*
X153749999Y-119325000D03*
D59*
X155675000Y-121250001D03*
X155675000Y-121750000D03*
X155675000Y-122250000D03*
X155675000Y-122750000D03*
X155675000Y-123250000D03*
X155675000Y-123750001D03*
X155675000Y-124250000D03*
X155675000Y-124750000D03*
X155675000Y-125250000D03*
X155675000Y-125750000D03*
X155675000Y-126249999D03*
X155675000Y-126750000D03*
X155675000Y-127250000D03*
X155675000Y-127750000D03*
X155675000Y-128250000D03*
X155675000Y-128749999D03*
D58*
X153749999Y-130675000D03*
X153250000Y-130675000D03*
X152750000Y-130675000D03*
X152250000Y-130675000D03*
X151750000Y-130675000D03*
X151249999Y-130675000D03*
X150750000Y-130675000D03*
X150250000Y-130675000D03*
X149750000Y-130675000D03*
X149250000Y-130675000D03*
X148750001Y-130675000D03*
X148250000Y-130675000D03*
X147750000Y-130675000D03*
X147250000Y-130675000D03*
X146750000Y-130675000D03*
X146250001Y-130675000D03*
D59*
X144325000Y-128749999D03*
X144325000Y-128250000D03*
X144325000Y-127750000D03*
X144325000Y-127250000D03*
X144325000Y-126750000D03*
X144325000Y-126249999D03*
X144325000Y-125750000D03*
X144325000Y-125250000D03*
X144325000Y-124750000D03*
X144325000Y-124250000D03*
X144325000Y-123750001D03*
X144325000Y-123250000D03*
X144325000Y-122750000D03*
X144325000Y-122250000D03*
X144325000Y-121750000D03*
X144325000Y-121250001D03*
%TD*%
D17*
%TO.C,TP21*%
X107800000Y-136200000D03*
%TD*%
D27*
%TO.C,TP7*%
X129350000Y-101800000D03*
%TD*%
D18*
%TO.C,R50*%
X163000000Y-132912500D03*
X163000000Y-131087500D03*
%TD*%
%LPD*%
M02*
